<svg xmlns="http://www.w3.org/2000/svg" viewBox="0 0 192 192" role="img" aria-label="farina">
  <path fill="currentColor" fill-rule="evenodd" d="M 97 24 L 98 24 L 98 25 L 102 25 L 102 26 L 104 26 L 104 27 L 105 27 L 105 29 L 109 29 L 109 30 L 110 30 L 110 31 L 111 31 L 111 32 L 112 32 L 112 33 L 113 33 L 113 34 L 114 34 L 114 35 L 115 35 L 115 37 L 116 37 L 116 38 L 117 38 L 117 40 L 120 40 L 120 41 L 121 41 L 121 42 L 123 42 L 123 43 L 124 43 L 124 44 L 127 44 L 127 45 L 128 45 L 128 44 L 134 44 L 134 45 L 137 45 L 137 46 L 138 46 L 138 47 L 139 47 L 139 48 L 140 48 L 140 49 L 142 49 L 142 50 L 143 50 L 143 52 L 144 52 L 144 53 L 145 53 L 145 54 L 146 54 L 146 55 L 147 55 L 147 58 L 148 58 L 148 62 L 147 62 L 147 74 L 146 74 L 146 76 L 145 76 L 145 77 L 144 77 L 144 83 L 145 83 L 145 87 L 146 87 L 146 90 L 147 90 L 147 93 L 148 93 L 148 97 L 149 97 L 149 106 L 150 106 L 150 121 L 151 121 L 151 124 L 152 124 L 152 129 L 153 129 L 153 132 L 154 132 L 154 134 L 155 134 L 155 137 L 156 137 L 156 139 L 157 139 L 157 142 L 160 142 L 160 143 L 159 143 L 159 144 L 158 144 L 158 145 L 162 145 L 162 144 L 167 144 L 167 145 L 168 145 L 168 146 L 160 146 L 160 148 L 164 148 L 164 150 L 161 150 L 161 151 L 152 151 L 152 152 L 170 152 L 170 153 L 169 153 L 169 154 L 157 154 L 157 155 L 158 155 L 158 156 L 159 156 L 159 155 L 163 155 L 163 157 L 160 157 L 160 158 L 161 158 L 161 160 L 160 160 L 160 161 L 159 161 L 159 162 L 161 162 L 161 164 L 156 164 L 156 163 L 157 163 L 157 162 L 156 162 L 156 163 L 152 163 L 152 164 L 150 164 L 150 165 L 152 165 L 152 166 L 150 166 L 150 167 L 148 167 L 148 166 L 146 166 L 146 165 L 142 165 L 142 166 L 131 166 L 131 165 L 124 165 L 124 166 L 122 166 L 122 167 L 120 167 L 120 166 L 117 166 L 117 165 L 122 165 L 122 164 L 117 164 L 117 163 L 115 163 L 115 162 L 111 162 L 111 163 L 112 163 L 112 164 L 104 164 L 104 163 L 105 163 L 105 162 L 94 162 L 94 163 L 93 163 L 93 164 L 78 164 L 78 163 L 77 163 L 77 162 L 53 162 L 53 160 L 70 160 L 70 159 L 44 159 L 44 158 L 45 158 L 45 157 L 40 157 L 40 156 L 31 156 L 31 155 L 42 155 L 42 154 L 23 154 L 23 153 L 22 153 L 22 152 L 34 152 L 34 151 L 27 151 L 27 150 L 26 150 L 26 149 L 31 149 L 31 147 L 30 147 L 30 145 L 29 145 L 29 143 L 30 143 L 30 138 L 31 138 L 31 136 L 32 136 L 32 134 L 33 134 L 33 131 L 34 131 L 34 125 L 35 125 L 35 121 L 36 121 L 36 101 L 37 101 L 37 97 L 38 97 L 38 93 L 39 93 L 39 89 L 40 89 L 40 84 L 41 84 L 41 81 L 40 81 L 40 79 L 39 79 L 39 77 L 38 77 L 38 71 L 37 71 L 37 61 L 38 61 L 38 56 L 39 56 L 39 54 L 40 54 L 40 53 L 41 53 L 41 52 L 42 52 L 42 51 L 43 51 L 43 50 L 46 50 L 46 49 L 47 49 L 47 48 L 48 48 L 48 47 L 50 47 L 50 46 L 58 46 L 58 45 L 62 45 L 62 44 L 63 44 L 63 43 L 64 43 L 64 42 L 65 42 L 65 41 L 67 41 L 67 40 L 69 40 L 69 39 L 71 39 L 71 37 L 72 37 L 72 36 L 73 36 L 73 35 L 74 35 L 74 34 L 75 34 L 75 33 L 77 33 L 77 32 L 80 32 L 80 31 L 84 31 L 84 30 L 86 30 L 86 29 L 87 29 L 87 28 L 89 28 L 89 27 L 91 27 L 91 26 L 92 26 L 92 25 L 97 25 Z M 95 28 L 94 28 L 94 29 L 92 29 L 92 30 L 90 30 L 90 31 L 89 31 L 89 32 L 87 32 L 87 33 L 86 33 L 86 34 L 85 34 L 85 35 L 84 35 L 84 36 L 83 36 L 83 37 L 81 37 L 81 36 L 82 36 L 82 35 L 79 35 L 79 36 L 77 36 L 77 37 L 76 37 L 76 38 L 75 38 L 75 39 L 74 39 L 74 41 L 73 41 L 73 43 L 74 43 L 74 44 L 72 44 L 72 45 L 71 45 L 71 46 L 69 46 L 69 44 L 67 44 L 67 45 L 66 45 L 66 46 L 65 46 L 65 48 L 64 48 L 64 49 L 63 49 L 63 51 L 62 51 L 62 52 L 61 52 L 61 54 L 60 54 L 60 55 L 59 55 L 59 56 L 58 56 L 58 57 L 57 57 L 57 58 L 56 58 L 56 59 L 55 59 L 55 61 L 57 61 L 57 62 L 60 62 L 60 61 L 62 61 L 62 63 L 61 63 L 61 64 L 62 64 L 62 65 L 65 65 L 65 66 L 72 66 L 72 67 L 76 67 L 76 68 L 80 68 L 80 69 L 84 69 L 84 70 L 100 70 L 100 69 L 104 69 L 104 68 L 108 68 L 108 67 L 112 67 L 112 66 L 115 66 L 115 65 L 118 65 L 118 64 L 121 64 L 121 63 L 124 63 L 124 62 L 126 62 L 126 61 L 125 61 L 125 60 L 124 60 L 124 58 L 126 58 L 126 59 L 127 59 L 127 58 L 126 58 L 126 56 L 127 56 L 127 57 L 129 57 L 129 58 L 130 58 L 130 59 L 131 59 L 131 58 L 130 58 L 130 57 L 129 57 L 129 56 L 127 56 L 127 55 L 126 55 L 126 53 L 125 53 L 125 54 L 124 54 L 124 53 L 123 53 L 123 52 L 125 52 L 125 51 L 124 51 L 124 50 L 123 50 L 123 49 L 122 49 L 122 47 L 121 47 L 121 45 L 119 45 L 119 44 L 115 44 L 115 43 L 114 43 L 114 41 L 113 41 L 113 39 L 112 39 L 112 40 L 110 40 L 110 39 L 109 39 L 109 38 L 108 38 L 108 37 L 107 37 L 107 35 L 109 35 L 109 36 L 110 36 L 110 35 L 109 35 L 109 34 L 107 34 L 107 33 L 104 33 L 104 34 L 105 34 L 105 35 L 106 35 L 106 37 L 105 37 L 105 36 L 104 36 L 104 35 L 102 35 L 102 34 L 101 34 L 101 32 L 100 32 L 100 31 L 102 31 L 102 32 L 103 32 L 103 33 L 104 33 L 104 32 L 103 32 L 103 31 L 102 31 L 102 30 L 101 30 L 101 29 L 99 29 L 99 28 Z M 89 36 L 90 36 L 90 38 L 89 38 L 89 39 L 88 39 L 88 40 L 87 40 L 87 41 L 86 41 L 86 38 L 87 38 L 87 37 L 89 37 Z M 102 37 L 103 37 L 103 38 L 104 38 L 104 39 L 105 39 L 105 40 L 106 40 L 106 42 L 105 42 L 105 41 L 104 41 L 104 40 L 103 40 L 103 39 L 102 39 Z M 112 38 L 111 38 L 111 39 L 112 39 Z M 111 42 L 113 42 L 113 45 L 112 45 L 112 44 L 111 44 Z M 117 45 L 118 45 L 118 46 L 119 46 L 119 47 L 120 47 L 120 48 L 121 48 L 121 50 L 118 50 L 118 51 L 116 51 L 116 49 L 118 49 L 118 47 L 117 47 Z M 100 46 L 102 46 L 102 49 L 100 49 Z M 79 47 L 80 47 L 80 50 L 79 50 L 79 52 L 77 52 L 77 51 L 76 51 L 76 50 L 77 50 L 77 48 L 79 48 Z M 132 48 L 131 48 L 131 50 L 129 50 L 129 51 L 131 51 L 131 52 L 136 52 L 136 53 L 137 53 L 137 59 L 136 59 L 136 60 L 135 60 L 135 61 L 134 61 L 134 62 L 133 62 L 133 63 L 131 63 L 131 64 L 129 64 L 129 65 L 127 65 L 127 66 L 124 66 L 124 67 L 122 67 L 122 68 L 119 68 L 119 69 L 116 69 L 116 70 L 113 70 L 113 71 L 109 71 L 109 72 L 106 72 L 106 73 L 103 73 L 103 74 L 99 74 L 99 75 L 88 75 L 88 74 L 83 74 L 83 73 L 79 73 L 79 72 L 75 72 L 75 71 L 71 71 L 71 70 L 66 70 L 66 69 L 61 69 L 61 68 L 59 68 L 59 67 L 57 67 L 57 66 L 55 66 L 55 65 L 54 65 L 54 64 L 52 64 L 52 63 L 51 63 L 51 62 L 50 62 L 50 61 L 49 61 L 49 60 L 48 60 L 48 55 L 49 55 L 49 54 L 50 54 L 50 53 L 51 53 L 51 52 L 52 52 L 52 53 L 55 53 L 55 52 L 56 52 L 56 51 L 57 51 L 57 50 L 52 50 L 52 51 L 49 51 L 49 52 L 47 52 L 47 53 L 45 53 L 45 54 L 44 54 L 44 56 L 43 56 L 43 59 L 42 59 L 42 62 L 44 62 L 44 64 L 45 64 L 45 66 L 46 66 L 46 67 L 47 67 L 47 68 L 48 68 L 48 70 L 47 70 L 47 71 L 48 71 L 48 72 L 49 72 L 49 73 L 50 73 L 50 74 L 47 74 L 47 73 L 46 73 L 46 72 L 45 72 L 45 71 L 44 71 L 44 70 L 42 70 L 42 74 L 43 74 L 43 73 L 45 73 L 45 74 L 46 74 L 46 75 L 47 75 L 47 76 L 49 76 L 49 77 L 51 77 L 51 78 L 52 78 L 52 79 L 53 79 L 53 80 L 51 80 L 51 81 L 53 81 L 53 82 L 55 82 L 55 83 L 58 83 L 58 84 L 61 84 L 61 85 L 67 85 L 67 86 L 71 86 L 71 87 L 75 87 L 75 88 L 79 88 L 79 89 L 84 89 L 84 90 L 100 90 L 100 89 L 106 89 L 106 88 L 105 88 L 105 86 L 107 86 L 107 85 L 111 85 L 111 84 L 113 84 L 113 86 L 116 86 L 116 85 L 119 85 L 119 84 L 122 84 L 122 83 L 126 83 L 126 82 L 128 82 L 128 81 L 130 81 L 130 80 L 132 80 L 132 79 L 134 79 L 134 78 L 136 78 L 136 77 L 138 77 L 138 76 L 139 76 L 139 75 L 138 75 L 138 76 L 136 76 L 136 77 L 134 77 L 134 78 L 132 78 L 132 76 L 134 76 L 134 75 L 136 75 L 136 74 L 138 74 L 138 73 L 139 73 L 139 72 L 140 72 L 140 71 L 142 71 L 142 70 L 140 70 L 140 71 L 139 71 L 139 72 L 137 72 L 137 73 L 136 73 L 136 74 L 133 74 L 133 73 L 134 73 L 134 72 L 136 72 L 136 71 L 137 71 L 137 70 L 136 70 L 136 71 L 134 71 L 134 70 L 135 70 L 135 69 L 136 69 L 136 68 L 138 68 L 138 67 L 139 67 L 139 66 L 138 66 L 138 64 L 139 64 L 139 63 L 140 63 L 140 62 L 141 62 L 141 60 L 143 60 L 143 57 L 142 57 L 142 55 L 141 55 L 141 54 L 140 54 L 140 53 L 139 53 L 139 52 L 138 52 L 138 51 L 137 51 L 137 50 L 135 50 L 135 49 L 133 49 L 133 48 Z M 118 53 L 120 53 L 120 54 L 121 54 L 121 55 L 122 55 L 122 56 L 119 56 L 119 55 L 118 55 Z M 64 54 L 66 54 L 66 55 L 67 55 L 67 57 L 66 57 L 66 58 L 64 58 Z M 108 54 L 110 54 L 110 55 L 111 55 L 111 56 L 110 56 L 110 57 L 108 57 Z M 58 59 L 59 59 L 59 61 L 57 61 L 57 60 L 58 60 Z M 86 59 L 87 59 L 87 60 L 88 60 L 88 62 L 85 62 L 85 60 L 86 60 Z M 116 60 L 119 60 L 119 62 L 116 62 Z M 121 60 L 123 60 L 123 62 L 121 62 Z M 71 61 L 72 61 L 72 62 L 74 62 L 74 65 L 71 65 L 71 64 L 70 64 L 70 62 L 71 62 Z M 110 64 L 112 64 L 112 66 L 109 66 L 109 65 L 110 65 Z M 100 65 L 102 65 L 102 67 L 101 67 L 101 68 L 97 68 L 97 66 L 100 66 Z M 51 71 L 53 71 L 53 73 L 51 73 Z M 129 71 L 131 71 L 131 73 L 130 73 L 130 74 L 127 74 L 127 73 L 128 73 L 128 72 L 129 72 Z M 142 73 L 141 73 L 141 74 L 142 74 Z M 141 74 L 140 74 L 140 75 L 141 75 Z M 44 75 L 43 75 L 43 76 L 44 76 L 44 77 L 45 77 L 45 76 L 44 76 Z M 47 77 L 46 77 L 46 78 L 47 78 L 47 79 L 49 79 L 49 80 L 51 80 L 51 79 L 49 79 L 49 78 L 47 78 Z M 126 78 L 128 78 L 128 80 L 125 80 L 125 79 L 126 79 Z M 134 84 L 133 84 L 133 85 L 134 85 Z M 133 85 L 132 85 L 132 86 L 133 86 Z M 111 86 L 110 86 L 110 87 L 113 87 L 113 86 Z M 132 86 L 131 86 L 131 87 L 130 87 L 130 88 L 128 88 L 128 89 L 127 89 L 127 90 L 126 90 L 126 91 L 123 91 L 123 90 L 124 90 L 124 89 L 126 89 L 126 88 L 127 88 L 127 87 L 125 87 L 125 88 L 124 88 L 124 89 L 122 89 L 122 90 L 120 90 L 120 91 L 119 91 L 119 92 L 117 92 L 117 93 L 114 93 L 114 92 L 115 92 L 115 91 L 117 91 L 117 90 L 114 90 L 114 91 L 111 91 L 111 92 L 107 92 L 107 93 L 103 93 L 103 94 L 95 94 L 95 95 L 100 95 L 100 97 L 94 97 L 94 98 L 88 98 L 88 97 L 84 97 L 84 96 L 90 96 L 90 95 L 89 95 L 89 94 L 80 94 L 80 93 L 75 93 L 75 92 L 72 92 L 72 91 L 68 91 L 68 90 L 65 90 L 65 91 L 67 91 L 67 92 L 69 92 L 69 93 L 70 93 L 70 94 L 67 94 L 67 93 L 64 93 L 64 92 L 61 92 L 61 91 L 59 91 L 59 90 L 57 90 L 57 89 L 55 89 L 55 90 L 56 90 L 56 91 L 57 91 L 57 92 L 58 92 L 58 94 L 56 94 L 56 93 L 55 93 L 55 92 L 54 92 L 54 91 L 53 91 L 53 90 L 52 90 L 52 89 L 51 89 L 51 88 L 49 88 L 49 89 L 50 89 L 50 90 L 51 90 L 51 92 L 52 92 L 52 93 L 50 93 L 50 92 L 49 92 L 49 91 L 47 91 L 47 94 L 46 94 L 46 98 L 45 98 L 45 100 L 43 100 L 43 98 L 44 98 L 44 93 L 43 93 L 43 96 L 42 96 L 42 101 L 41 101 L 41 112 L 42 112 L 42 109 L 44 109 L 44 119 L 45 119 L 45 123 L 46 123 L 46 124 L 44 124 L 44 123 L 43 123 L 43 125 L 44 125 L 44 126 L 41 126 L 41 127 L 42 127 L 42 132 L 43 132 L 43 135 L 44 135 L 44 137 L 45 137 L 45 139 L 46 139 L 46 142 L 45 142 L 45 141 L 44 141 L 44 140 L 43 140 L 43 137 L 42 137 L 42 140 L 41 140 L 41 138 L 39 138 L 39 139 L 38 139 L 38 138 L 37 138 L 37 136 L 36 136 L 36 138 L 35 138 L 35 141 L 34 141 L 34 142 L 37 142 L 37 144 L 38 144 L 38 146 L 37 146 L 37 147 L 39 147 L 39 148 L 42 148 L 42 147 L 40 147 L 40 144 L 41 144 L 41 145 L 42 145 L 42 146 L 43 146 L 43 144 L 45 144 L 45 145 L 47 145 L 47 146 L 48 146 L 48 145 L 47 145 L 47 143 L 48 143 L 48 144 L 50 144 L 50 145 L 51 145 L 51 146 L 53 146 L 53 147 L 54 147 L 54 148 L 56 148 L 56 149 L 58 149 L 58 150 L 59 150 L 59 151 L 62 151 L 62 152 L 66 152 L 66 153 L 69 153 L 69 154 L 77 154 L 77 155 L 82 155 L 82 156 L 99 156 L 99 155 L 107 155 L 107 154 L 114 154 L 114 153 L 113 153 L 113 152 L 114 152 L 114 151 L 116 151 L 116 150 L 118 150 L 118 149 L 121 149 L 121 148 L 123 148 L 123 147 L 126 147 L 126 146 L 128 146 L 128 145 L 129 145 L 129 144 L 132 144 L 132 145 L 131 145 L 131 146 L 130 146 L 130 147 L 128 147 L 128 148 L 131 148 L 131 147 L 132 147 L 132 146 L 134 146 L 134 145 L 136 145 L 136 144 L 138 144 L 138 145 L 143 145 L 143 144 L 145 144 L 145 145 L 147 145 L 147 144 L 149 144 L 149 143 L 150 143 L 150 142 L 152 142 L 152 139 L 151 139 L 151 136 L 150 136 L 150 137 L 149 137 L 149 140 L 148 140 L 148 141 L 147 141 L 147 142 L 146 142 L 146 139 L 147 139 L 147 136 L 146 136 L 146 139 L 145 139 L 145 141 L 144 141 L 144 142 L 142 142 L 142 140 L 143 140 L 143 139 L 144 139 L 144 135 L 145 135 L 145 131 L 147 131 L 147 124 L 146 124 L 146 128 L 145 128 L 145 129 L 144 129 L 144 130 L 143 130 L 143 131 L 141 131 L 141 130 L 142 130 L 142 129 L 141 129 L 141 130 L 140 130 L 140 131 L 139 131 L 139 132 L 137 132 L 137 130 L 138 130 L 138 128 L 139 128 L 139 126 L 140 126 L 140 122 L 141 122 L 141 118 L 142 118 L 142 112 L 144 112 L 144 118 L 145 118 L 145 104 L 144 104 L 144 98 L 143 98 L 143 94 L 142 94 L 142 90 L 141 90 L 141 88 L 140 88 L 140 91 L 141 91 L 141 95 L 142 95 L 142 100 L 143 100 L 143 102 L 141 102 L 141 100 L 140 100 L 140 97 L 139 97 L 139 93 L 138 93 L 138 89 L 137 89 L 137 90 L 136 90 L 136 91 L 135 91 L 135 92 L 133 92 L 133 91 L 134 91 L 134 89 L 135 89 L 135 88 L 136 88 L 136 87 L 134 87 L 134 88 L 133 88 L 133 89 L 132 89 L 132 90 L 131 90 L 131 91 L 130 91 L 130 89 L 131 89 L 131 88 L 132 88 Z M 54 87 L 53 87 L 53 88 L 54 88 L 54 89 L 55 89 L 55 88 L 54 88 Z M 108 87 L 107 87 L 107 88 L 110 88 L 110 87 Z M 63 89 L 62 89 L 62 90 L 64 90 L 64 89 Z M 45 91 L 44 91 L 44 92 L 45 92 Z M 134 93 L 136 93 L 136 96 L 134 96 Z M 48 97 L 49 97 L 49 98 L 50 98 L 50 99 L 49 99 L 49 101 L 50 101 L 50 102 L 49 102 L 49 106 L 47 106 L 47 101 L 48 101 Z M 119 99 L 121 99 L 121 101 L 120 101 L 120 104 L 119 104 L 119 109 L 118 109 L 118 111 L 117 111 L 117 113 L 119 113 L 119 112 L 120 112 L 120 115 L 119 115 L 119 117 L 118 117 L 118 118 L 117 118 L 117 120 L 116 120 L 116 121 L 115 121 L 115 123 L 116 123 L 116 124 L 115 124 L 115 125 L 114 125 L 114 126 L 113 126 L 113 127 L 112 127 L 112 128 L 111 128 L 111 129 L 110 129 L 110 130 L 109 130 L 109 131 L 107 131 L 107 132 L 106 132 L 106 134 L 105 134 L 105 135 L 104 135 L 104 136 L 103 136 L 103 137 L 101 137 L 101 138 L 97 138 L 97 139 L 92 139 L 92 138 L 87 138 L 87 139 L 85 139 L 85 140 L 82 140 L 82 141 L 79 141 L 79 142 L 76 142 L 76 140 L 77 140 L 77 139 L 79 139 L 79 138 L 81 138 L 81 137 L 84 137 L 84 136 L 85 136 L 85 135 L 86 135 L 86 134 L 87 134 L 87 128 L 88 128 L 88 125 L 89 125 L 89 124 L 90 124 L 90 123 L 91 123 L 91 121 L 93 121 L 93 120 L 95 120 L 95 119 L 96 119 L 96 117 L 97 117 L 97 116 L 98 116 L 98 114 L 99 114 L 99 113 L 102 113 L 102 112 L 103 112 L 103 110 L 104 110 L 104 109 L 105 109 L 105 107 L 106 107 L 106 106 L 107 106 L 107 105 L 108 105 L 108 104 L 109 104 L 109 107 L 110 107 L 110 106 L 112 106 L 112 105 L 113 105 L 113 104 L 115 104 L 115 103 L 116 103 L 116 102 L 117 102 L 117 101 L 118 101 L 118 100 L 119 100 Z M 137 100 L 138 100 L 138 101 L 139 101 L 139 107 L 137 107 L 137 105 L 136 105 L 136 101 L 137 101 Z M 42 104 L 44 104 L 44 105 L 43 105 L 43 106 L 42 106 Z M 85 105 L 86 105 L 86 107 L 85 107 Z M 115 107 L 114 107 L 114 108 L 113 108 L 113 109 L 112 109 L 112 110 L 111 110 L 111 111 L 110 111 L 110 114 L 112 114 L 112 113 L 113 113 L 113 112 L 114 112 L 114 111 L 115 111 L 115 108 L 116 108 L 116 107 Z M 106 112 L 105 112 L 105 114 L 104 114 L 104 119 L 105 119 L 105 118 L 106 118 Z M 79 112 L 80 112 L 80 114 L 79 114 Z M 117 113 L 116 113 L 116 114 L 117 114 Z M 133 113 L 135 113 L 135 115 L 134 115 L 134 114 L 133 114 Z M 42 115 L 41 115 L 41 122 L 40 122 L 40 123 L 43 123 L 43 121 L 42 121 Z M 45 114 L 46 114 L 46 115 L 47 115 L 47 117 L 46 117 L 46 118 L 45 118 Z M 100 118 L 99 118 L 99 119 L 98 119 L 98 121 L 97 121 L 97 125 L 98 125 L 98 124 L 100 124 Z M 112 118 L 111 118 L 111 119 L 109 119 L 109 120 L 108 120 L 108 121 L 112 121 L 112 120 L 113 120 L 113 119 L 114 119 L 114 118 Z M 47 119 L 49 119 L 49 123 L 50 123 L 50 126 L 51 126 L 51 128 L 49 128 L 49 127 L 48 127 L 48 124 L 47 124 Z M 137 122 L 139 122 L 139 125 L 138 125 L 138 128 L 137 128 L 137 130 L 136 130 L 136 132 L 135 132 L 135 133 L 134 133 L 134 134 L 133 134 L 133 135 L 132 135 L 132 136 L 130 136 L 130 135 L 131 135 L 131 133 L 132 133 L 132 132 L 133 132 L 133 131 L 134 131 L 134 129 L 135 129 L 135 128 L 136 128 L 136 125 L 137 125 Z M 41 124 L 40 124 L 40 125 L 39 125 L 39 127 L 40 127 L 40 126 L 41 126 Z M 93 125 L 92 125 L 92 126 L 91 126 L 91 128 L 90 128 L 90 130 L 92 130 L 92 129 L 93 129 Z M 105 126 L 104 126 L 104 127 L 102 127 L 102 128 L 101 128 L 101 129 L 105 129 L 105 128 L 108 128 L 108 127 L 109 127 L 109 126 Z M 54 128 L 55 128 L 55 129 L 56 129 L 56 130 L 54 130 Z M 45 132 L 47 132 L 47 134 L 45 134 Z M 97 133 L 96 133 L 96 134 L 94 134 L 94 135 L 95 135 L 95 136 L 96 136 L 96 135 L 100 135 L 100 134 L 101 134 L 101 133 Z M 140 134 L 142 134 L 142 135 L 141 135 L 141 136 L 140 136 Z M 47 138 L 49 138 L 49 139 L 50 139 L 50 140 L 48 140 L 48 139 L 47 139 Z M 140 139 L 141 139 L 141 141 L 140 141 L 140 142 L 139 142 L 139 143 L 137 143 L 137 142 L 138 142 L 138 140 L 140 140 Z M 35 143 L 34 143 L 34 144 L 35 144 Z M 53 144 L 55 144 L 55 145 L 57 145 L 57 146 L 59 146 L 59 147 L 60 147 L 60 148 L 61 148 L 61 149 L 59 149 L 59 148 L 56 148 L 56 147 L 54 147 L 54 146 L 53 146 Z M 68 145 L 70 145 L 70 146 L 72 146 L 72 147 L 74 147 L 74 148 L 76 148 L 76 149 L 77 149 L 77 150 L 75 150 L 75 149 L 72 149 L 72 148 L 70 148 L 70 147 L 68 147 Z M 113 145 L 115 145 L 115 147 L 113 147 L 113 148 L 110 148 L 110 147 L 111 147 L 111 146 L 113 146 Z M 159 146 L 158 146 L 158 147 L 159 147 Z M 127 148 L 126 148 L 126 149 L 128 149 L 128 148 Z M 136 148 L 135 148 L 135 149 L 134 149 L 134 150 L 133 150 L 133 151 L 131 151 L 131 152 L 128 152 L 128 153 L 127 153 L 127 155 L 125 155 L 125 156 L 124 156 L 124 157 L 122 157 L 122 158 L 119 158 L 119 159 L 118 159 L 118 160 L 119 160 L 119 161 L 123 161 L 123 162 L 131 162 L 131 163 L 134 163 L 134 164 L 136 164 L 136 163 L 143 163 L 143 162 L 147 162 L 147 161 L 152 161 L 152 160 L 154 160 L 154 159 L 156 159 L 156 158 L 154 158 L 154 157 L 153 157 L 153 156 L 152 156 L 152 155 L 149 155 L 149 154 L 148 154 L 148 153 L 147 153 L 147 152 L 144 152 L 144 151 L 142 151 L 142 152 L 140 152 L 140 151 L 139 151 L 139 150 L 141 150 L 141 151 L 142 151 L 142 150 L 141 150 L 141 149 L 140 149 L 140 148 Z M 62 148 L 64 148 L 64 149 L 66 149 L 66 150 L 67 150 L 67 151 L 64 151 L 64 150 L 62 150 Z M 125 149 L 124 149 L 124 150 L 122 150 L 122 151 L 119 151 L 119 152 L 117 152 L 117 153 L 120 153 L 120 152 L 123 152 L 123 151 L 125 151 L 125 150 L 126 150 L 126 149 Z M 70 150 L 74 150 L 74 151 L 77 151 L 77 152 L 79 152 L 79 153 L 74 153 L 74 152 L 71 152 L 71 151 L 70 151 Z M 85 150 L 87 150 L 87 152 L 86 152 L 86 151 L 85 151 Z M 106 150 L 112 150 L 112 151 L 110 151 L 110 152 L 108 152 L 108 153 L 102 153 L 102 154 L 88 154 L 88 153 L 89 153 L 89 152 L 97 152 L 97 151 L 106 151 Z M 132 153 L 133 153 L 133 155 L 132 155 L 132 156 L 131 156 L 131 154 L 132 154 Z M 145 154 L 147 154 L 147 155 L 148 155 L 148 157 L 146 157 L 146 156 L 145 156 Z M 36 157 L 39 157 L 39 158 L 40 158 L 40 159 L 35 159 L 35 158 L 36 158 Z M 150 157 L 152 157 L 152 159 L 150 159 Z M 124 158 L 126 158 L 126 160 L 124 160 Z M 128 159 L 130 159 L 130 160 L 128 160 Z M 138 159 L 139 159 L 139 160 L 140 160 L 140 161 L 137 161 L 137 160 L 138 160 Z"/>
</svg>
