<svg xmlns="http://www.w3.org/2000/svg" viewBox="0 0 192 192" role="img" aria-label="mix farine">
  <path fill="currentColor" fill-rule="evenodd" d="M 70 49 L 75 49 L 75 50 L 80 50 L 80 51 L 82 51 L 82 52 L 83 52 L 83 53 L 84 53 L 84 55 L 85 55 L 85 56 L 86 56 L 86 57 L 87 57 L 87 58 L 89 58 L 89 59 L 90 59 L 90 60 L 91 60 L 91 61 L 92 61 L 92 62 L 93 62 L 93 63 L 94 63 L 94 64 L 95 64 L 95 65 L 96 65 L 96 66 L 97 66 L 97 67 L 98 67 L 98 68 L 99 68 L 99 69 L 101 69 L 101 70 L 102 70 L 102 71 L 103 71 L 103 72 L 104 72 L 104 73 L 105 73 L 105 74 L 106 74 L 106 75 L 110 75 L 110 73 L 109 73 L 109 71 L 108 71 L 108 59 L 109 59 L 109 58 L 110 58 L 110 56 L 112 56 L 112 55 L 113 55 L 113 54 L 117 54 L 117 53 L 125 53 L 125 52 L 131 52 L 131 51 L 137 51 L 137 52 L 143 52 L 143 53 L 150 53 L 150 54 L 153 54 L 153 55 L 155 55 L 155 56 L 156 56 L 156 57 L 157 57 L 157 58 L 158 58 L 158 59 L 159 59 L 159 72 L 158 72 L 158 73 L 157 73 L 157 81 L 158 81 L 158 85 L 159 85 L 159 88 L 160 88 L 160 92 L 161 92 L 161 102 L 162 102 L 162 104 L 161 104 L 161 111 L 162 111 L 162 117 L 163 117 L 163 121 L 164 121 L 164 123 L 165 123 L 165 124 L 166 124 L 166 126 L 165 126 L 165 127 L 171 127 L 171 128 L 168 128 L 168 129 L 164 129 L 164 130 L 166 130 L 166 131 L 161 131 L 161 132 L 149 132 L 149 133 L 161 133 L 161 134 L 159 134 L 159 135 L 135 135 L 135 137 L 121 137 L 121 135 L 109 135 L 109 136 L 114 136 L 114 137 L 115 137 L 115 138 L 114 138 L 114 139 L 108 139 L 108 138 L 107 138 L 107 137 L 95 137 L 95 138 L 99 138 L 99 139 L 101 139 L 101 140 L 78 140 L 78 139 L 42 139 L 42 137 L 46 137 L 46 136 L 41 136 L 41 135 L 34 135 L 34 134 L 35 134 L 35 133 L 42 133 L 42 132 L 27 132 L 27 130 L 39 130 L 39 129 L 35 129 L 35 128 L 32 128 L 32 127 L 37 127 L 37 125 L 36 125 L 36 124 L 35 124 L 35 123 L 34 123 L 34 122 L 33 122 L 33 120 L 32 120 L 32 119 L 31 119 L 31 117 L 30 117 L 30 115 L 29 115 L 29 114 L 28 114 L 28 112 L 27 112 L 27 110 L 26 110 L 26 107 L 25 107 L 25 105 L 24 105 L 24 102 L 23 102 L 23 98 L 22 98 L 22 93 L 21 93 L 21 86 L 22 86 L 22 84 L 23 84 L 23 82 L 24 82 L 24 81 L 25 81 L 25 80 L 26 80 L 26 79 L 28 79 L 28 78 L 29 78 L 29 77 L 31 77 L 31 76 L 35 76 L 35 75 L 36 75 L 36 74 L 37 74 L 37 73 L 38 73 L 38 71 L 39 71 L 39 70 L 41 70 L 41 69 L 43 69 L 43 68 L 44 68 L 44 67 L 46 67 L 46 66 L 47 66 L 47 64 L 48 64 L 48 62 L 49 62 L 49 61 L 50 61 L 50 60 L 52 60 L 52 59 L 54 59 L 54 58 L 55 58 L 55 57 L 56 57 L 56 56 L 57 56 L 57 55 L 58 55 L 58 54 L 59 54 L 59 53 L 65 53 L 65 52 L 66 52 L 66 51 L 68 51 L 68 50 L 70 50 Z M 70 53 L 69 53 L 69 54 L 68 54 L 68 55 L 67 55 L 67 56 L 65 56 L 65 57 L 60 57 L 60 58 L 63 58 L 63 59 L 62 59 L 62 60 L 60 60 L 60 58 L 59 58 L 59 59 L 58 59 L 58 60 L 57 60 L 57 61 L 55 61 L 55 62 L 53 62 L 53 63 L 52 63 L 52 64 L 51 64 L 51 66 L 50 66 L 50 67 L 49 67 L 49 69 L 48 69 L 48 70 L 47 70 L 47 73 L 46 73 L 46 74 L 44 74 L 44 72 L 45 72 L 45 71 L 44 71 L 44 72 L 42 72 L 42 73 L 41 73 L 41 74 L 40 74 L 40 75 L 39 75 L 39 79 L 38 79 L 38 80 L 37 80 L 37 82 L 36 82 L 36 84 L 35 84 L 35 85 L 33 85 L 33 88 L 35 88 L 35 89 L 37 89 L 37 90 L 39 90 L 39 89 L 42 89 L 42 90 L 41 90 L 41 91 L 42 91 L 42 92 L 45 92 L 45 93 L 50 93 L 50 94 L 57 94 L 57 95 L 87 95 L 87 94 L 93 94 L 93 91 L 94 91 L 94 93 L 97 93 L 97 92 L 100 92 L 100 89 L 101 89 L 101 88 L 102 88 L 102 91 L 104 91 L 104 88 L 107 88 L 107 89 L 109 89 L 109 88 L 107 88 L 107 86 L 108 86 L 108 85 L 107 85 L 107 84 L 106 84 L 106 82 L 105 82 L 105 84 L 104 84 L 104 83 L 103 83 L 103 86 L 102 86 L 102 87 L 101 87 L 101 86 L 100 86 L 100 85 L 101 85 L 101 83 L 103 83 L 103 81 L 104 81 L 104 82 L 105 82 L 105 80 L 104 80 L 104 79 L 103 79 L 103 78 L 102 78 L 102 75 L 101 75 L 101 77 L 100 77 L 100 76 L 99 76 L 99 75 L 98 75 L 98 74 L 100 74 L 100 75 L 101 75 L 101 74 L 100 74 L 100 73 L 99 73 L 99 72 L 97 72 L 97 74 L 96 74 L 96 73 L 95 73 L 95 72 L 97 72 L 97 71 L 96 71 L 96 70 L 95 70 L 95 72 L 94 72 L 94 71 L 93 71 L 93 70 L 92 70 L 92 68 L 93 68 L 93 69 L 94 69 L 94 70 L 95 70 L 95 69 L 94 69 L 94 68 L 93 68 L 93 67 L 92 67 L 92 66 L 91 66 L 91 65 L 90 65 L 90 67 L 88 67 L 88 66 L 87 66 L 87 63 L 88 63 L 88 64 L 89 64 L 89 65 L 90 65 L 90 64 L 89 64 L 89 63 L 88 63 L 88 62 L 86 62 L 86 61 L 85 61 L 85 60 L 84 60 L 84 61 L 82 61 L 82 64 L 81 64 L 81 63 L 80 63 L 80 62 L 79 62 L 79 60 L 81 60 L 81 61 L 82 61 L 82 60 L 81 60 L 81 59 L 80 59 L 80 58 L 79 58 L 79 57 L 78 57 L 78 55 L 79 55 L 79 56 L 80 56 L 80 57 L 81 57 L 81 58 L 82 58 L 82 59 L 83 59 L 83 60 L 84 60 L 84 59 L 83 59 L 83 57 L 82 57 L 82 56 L 81 56 L 81 55 L 79 55 L 79 54 L 77 54 L 77 53 Z M 128 55 L 127 55 L 127 56 L 119 56 L 119 57 L 116 57 L 116 58 L 126 58 L 126 57 L 128 57 L 128 56 L 130 56 L 130 55 Z M 139 55 L 138 55 L 138 56 L 140 56 L 140 57 L 142 57 L 142 58 L 145 58 L 145 59 L 147 59 L 147 60 L 148 60 L 148 58 L 151 58 L 151 59 L 152 59 L 152 60 L 153 60 L 153 62 L 152 62 L 152 63 L 151 63 L 151 64 L 148 64 L 148 65 L 145 65 L 145 66 L 141 66 L 141 67 L 128 67 L 128 66 L 123 66 L 123 65 L 119 65 L 119 64 L 116 64 L 116 63 L 115 63 L 115 62 L 114 62 L 114 59 L 115 59 L 115 58 L 114 58 L 114 59 L 113 59 L 113 60 L 112 60 L 112 61 L 111 61 L 111 64 L 112 64 L 112 65 L 113 65 L 113 66 L 114 66 L 114 67 L 115 67 L 115 68 L 117 68 L 117 70 L 116 70 L 116 69 L 114 69 L 114 70 L 115 70 L 115 71 L 116 71 L 116 72 L 115 72 L 115 73 L 118 73 L 118 74 L 124 74 L 124 75 L 127 75 L 127 76 L 141 76 L 141 75 L 146 75 L 146 73 L 145 73 L 145 72 L 147 72 L 147 74 L 150 74 L 150 73 L 151 73 L 151 71 L 150 71 L 150 70 L 151 70 L 151 69 L 150 69 L 150 67 L 151 67 L 151 66 L 153 66 L 153 65 L 154 65 L 154 64 L 155 64 L 155 63 L 156 63 L 156 61 L 155 61 L 155 60 L 154 60 L 154 59 L 153 59 L 153 58 L 151 58 L 151 57 L 147 57 L 147 56 L 141 56 L 141 55 Z M 133 57 L 132 57 L 132 58 L 131 58 L 131 59 L 128 59 L 128 60 L 126 60 L 126 61 L 122 61 L 122 62 L 123 62 L 123 63 L 128 63 L 128 64 L 139 64 L 139 63 L 138 63 L 138 61 L 140 61 L 140 63 L 145 63 L 145 61 L 141 61 L 141 60 L 139 60 L 139 59 L 137 59 L 137 58 L 135 58 L 135 57 Z M 65 60 L 68 60 L 68 62 L 67 62 L 67 63 L 66 63 L 66 64 L 64 64 L 64 62 L 65 62 Z M 130 60 L 132 60 L 132 61 L 131 61 L 131 62 L 130 62 Z M 52 65 L 54 65 L 54 67 L 53 67 L 53 66 L 52 66 Z M 85 67 L 87 67 L 87 69 L 85 69 Z M 114 71 L 113 71 L 113 72 L 114 72 Z M 58 71 L 59 71 L 59 74 L 58 74 L 58 75 L 57 75 L 57 76 L 55 76 L 55 74 L 56 74 L 56 73 L 57 73 L 57 72 L 58 72 Z M 79 72 L 81 72 L 81 74 L 80 74 L 80 75 L 79 75 L 79 74 L 78 74 L 78 73 L 79 73 Z M 93 74 L 95 74 L 95 76 L 93 76 Z M 122 77 L 121 77 L 121 78 L 120 78 L 120 79 L 118 79 L 118 78 L 116 78 L 116 79 L 117 79 L 117 80 L 118 80 L 118 81 L 119 81 L 119 82 L 120 82 L 120 83 L 121 83 L 121 85 L 122 85 L 122 92 L 121 92 L 121 97 L 120 97 L 120 101 L 119 101 L 119 105 L 118 105 L 118 107 L 117 107 L 117 110 L 116 110 L 116 112 L 115 112 L 115 114 L 114 114 L 114 116 L 113 116 L 113 117 L 112 117 L 112 118 L 114 118 L 114 122 L 115 122 L 115 124 L 116 124 L 116 126 L 115 126 L 115 125 L 113 125 L 113 123 L 112 123 L 112 125 L 111 125 L 111 126 L 110 126 L 110 127 L 112 127 L 112 126 L 114 126 L 114 127 L 117 127 L 117 128 L 120 128 L 120 129 L 123 129 L 123 130 L 129 130 L 129 131 L 138 131 L 138 130 L 143 130 L 143 129 L 147 129 L 147 128 L 149 128 L 149 127 L 151 127 L 151 126 L 153 126 L 153 125 L 154 125 L 154 124 L 156 124 L 156 123 L 158 123 L 158 124 L 159 124 L 159 117 L 158 117 L 158 114 L 157 114 L 157 116 L 155 116 L 155 115 L 154 115 L 154 117 L 152 117 L 152 116 L 153 116 L 153 114 L 152 114 L 152 115 L 151 115 L 151 117 L 150 117 L 150 118 L 149 118 L 149 115 L 150 115 L 150 114 L 151 114 L 151 112 L 153 112 L 153 113 L 154 113 L 154 109 L 155 109 L 155 104 L 157 104 L 157 106 L 158 106 L 158 104 L 157 104 L 157 97 L 156 97 L 156 98 L 155 98 L 155 95 L 154 95 L 154 93 L 156 93 L 156 95 L 157 95 L 157 93 L 156 93 L 156 88 L 155 88 L 155 84 L 154 84 L 154 88 L 153 88 L 153 87 L 152 87 L 152 84 L 151 84 L 151 81 L 150 81 L 150 82 L 148 82 L 148 81 L 150 81 L 150 79 L 148 79 L 148 80 L 145 80 L 145 79 L 146 79 L 146 78 L 143 78 L 143 79 L 137 79 L 137 80 L 135 80 L 135 82 L 130 82 L 130 81 L 129 81 L 129 80 L 135 80 L 135 79 L 126 79 L 126 78 L 122 78 Z M 111 80 L 110 80 L 110 81 L 112 81 L 112 82 L 113 82 L 113 83 L 114 83 L 114 84 L 115 84 L 115 89 L 114 89 L 114 90 L 112 90 L 112 91 L 111 91 L 111 92 L 109 92 L 109 93 L 107 93 L 107 94 L 105 94 L 105 95 L 102 95 L 102 96 L 98 96 L 98 97 L 94 97 L 94 98 L 88 98 L 88 99 L 79 99 L 79 100 L 64 100 L 64 99 L 55 99 L 55 98 L 49 98 L 49 97 L 45 97 L 45 96 L 41 96 L 41 95 L 38 95 L 38 94 L 35 94 L 35 93 L 33 93 L 33 92 L 32 92 L 32 91 L 30 91 L 30 90 L 29 90 L 29 89 L 28 89 L 28 87 L 27 87 L 27 85 L 28 85 L 28 84 L 29 84 L 29 83 L 30 83 L 30 82 L 31 82 L 31 81 L 30 81 L 30 82 L 29 82 L 29 83 L 27 83 L 27 85 L 26 85 L 26 87 L 25 87 L 25 88 L 26 88 L 26 90 L 27 90 L 27 91 L 28 91 L 28 92 L 29 92 L 29 93 L 31 93 L 31 94 L 33 94 L 33 95 L 35 95 L 35 96 L 37 96 L 37 97 L 40 97 L 40 98 L 43 98 L 43 99 L 47 99 L 47 100 L 51 100 L 51 101 L 53 101 L 53 102 L 52 102 L 52 103 L 50 103 L 50 102 L 44 102 L 44 101 L 40 101 L 40 100 L 36 100 L 36 99 L 34 99 L 34 98 L 31 98 L 31 99 L 33 99 L 33 100 L 35 100 L 35 101 L 36 101 L 36 103 L 35 103 L 35 102 L 33 102 L 33 101 L 31 101 L 31 100 L 29 100 L 29 99 L 28 99 L 28 103 L 29 103 L 29 105 L 30 105 L 30 108 L 31 108 L 31 110 L 32 110 L 32 112 L 33 112 L 33 113 L 34 113 L 34 112 L 36 112 L 36 113 L 37 113 L 37 114 L 40 114 L 40 116 L 38 116 L 38 115 L 36 115 L 36 114 L 34 114 L 34 115 L 35 115 L 35 116 L 36 116 L 36 118 L 37 118 L 37 119 L 38 119 L 38 120 L 39 120 L 39 121 L 40 121 L 40 122 L 44 122 L 44 123 L 46 123 L 46 124 L 47 124 L 47 125 L 45 125 L 45 126 L 46 126 L 46 127 L 48 127 L 48 128 L 50 128 L 50 129 L 53 129 L 53 130 L 55 130 L 55 131 L 59 131 L 59 132 L 67 132 L 67 133 L 77 133 L 77 132 L 84 132 L 84 131 L 88 131 L 88 130 L 91 130 L 91 129 L 92 129 L 92 128 L 91 128 L 91 129 L 88 129 L 88 130 L 83 130 L 83 131 L 76 131 L 76 132 L 69 132 L 69 130 L 76 130 L 76 129 L 83 129 L 83 128 L 88 128 L 88 127 L 91 127 L 91 126 L 95 126 L 95 127 L 96 127 L 96 126 L 98 126 L 98 125 L 99 125 L 99 124 L 101 124 L 101 123 L 102 123 L 102 122 L 103 122 L 103 121 L 102 121 L 102 122 L 100 122 L 100 123 L 98 123 L 98 124 L 96 124 L 96 125 L 93 125 L 93 123 L 96 123 L 96 122 L 98 122 L 98 121 L 100 121 L 100 120 L 102 120 L 102 119 L 103 119 L 103 118 L 106 118 L 106 117 L 107 117 L 107 116 L 108 116 L 108 115 L 109 115 L 109 114 L 108 114 L 108 115 L 107 115 L 107 116 L 105 116 L 105 117 L 103 117 L 103 118 L 102 118 L 102 119 L 99 119 L 99 117 L 101 117 L 101 116 L 103 116 L 103 115 L 105 115 L 105 114 L 106 114 L 106 113 L 110 113 L 110 112 L 111 112 L 111 110 L 110 110 L 110 111 L 108 111 L 108 112 L 106 112 L 106 113 L 104 113 L 104 114 L 102 114 L 102 112 L 104 112 L 104 111 L 105 111 L 105 110 L 106 110 L 106 109 L 108 109 L 108 108 L 109 108 L 109 107 L 110 107 L 110 106 L 111 106 L 111 107 L 113 107 L 113 105 L 114 105 L 114 103 L 113 103 L 113 104 L 112 104 L 112 105 L 110 105 L 110 106 L 108 106 L 108 107 L 105 107 L 105 106 L 106 106 L 106 105 L 108 105 L 108 104 L 110 104 L 110 103 L 111 103 L 111 102 L 112 102 L 112 101 L 114 101 L 114 102 L 115 102 L 115 99 L 114 99 L 114 100 L 112 100 L 112 101 L 110 101 L 110 102 L 109 102 L 109 103 L 106 103 L 106 104 L 103 104 L 103 105 L 102 105 L 102 103 L 104 103 L 104 102 L 106 102 L 106 101 L 108 101 L 108 100 L 110 100 L 110 99 L 112 99 L 112 98 L 114 98 L 114 97 L 115 97 L 115 96 L 114 96 L 114 97 L 112 97 L 112 98 L 110 98 L 110 99 L 107 99 L 107 100 L 104 100 L 104 101 L 100 101 L 100 102 L 90 102 L 90 101 L 92 101 L 92 100 L 96 100 L 96 99 L 100 99 L 100 98 L 103 98 L 103 97 L 106 97 L 106 96 L 109 96 L 109 95 L 111 95 L 111 94 L 112 94 L 112 93 L 114 93 L 114 92 L 115 92 L 115 91 L 116 91 L 116 90 L 117 90 L 117 84 L 116 84 L 116 83 L 115 83 L 115 82 L 114 82 L 114 81 L 112 81 L 112 80 Z M 153 80 L 152 80 L 152 81 L 153 81 L 153 83 L 154 83 L 154 81 L 153 81 Z M 41 80 L 43 80 L 43 82 L 44 82 L 44 84 L 43 84 L 43 82 L 42 82 L 42 83 L 41 83 Z M 95 80 L 97 80 L 97 82 L 95 82 Z M 90 81 L 91 81 L 91 84 L 88 84 L 88 83 L 89 83 L 89 82 L 90 82 Z M 64 84 L 66 84 L 66 86 L 64 86 Z M 36 86 L 37 86 L 37 88 L 35 88 L 35 87 L 36 87 Z M 49 86 L 51 86 L 51 88 L 49 88 Z M 150 87 L 151 87 L 151 89 L 150 89 Z M 45 88 L 47 88 L 47 90 L 45 90 Z M 96 89 L 98 89 L 98 90 L 97 90 L 97 91 L 96 91 Z M 53 90 L 54 90 L 54 91 L 55 91 L 55 92 L 53 92 Z M 69 90 L 72 90 L 72 91 L 71 91 L 71 92 L 70 92 L 70 91 L 69 91 Z M 81 91 L 84 91 L 84 93 L 80 93 L 80 92 L 81 92 Z M 143 91 L 145 91 L 145 92 L 143 92 Z M 28 96 L 27 96 L 27 99 L 28 99 L 28 97 L 29 97 L 29 96 Z M 31 97 L 30 97 L 30 98 L 31 98 Z M 125 97 L 126 97 L 126 99 L 125 99 Z M 143 100 L 144 100 L 144 102 L 143 102 Z M 150 100 L 152 100 L 152 103 L 150 103 Z M 29 102 L 32 102 L 32 103 L 33 103 L 33 104 L 35 104 L 35 105 L 36 105 L 36 106 L 37 106 L 37 107 L 35 107 L 35 106 L 33 106 L 33 105 L 31 105 L 31 104 L 30 104 L 30 103 L 29 103 Z M 58 102 L 63 102 L 63 104 L 59 104 L 59 103 L 58 103 Z M 76 102 L 82 102 L 82 104 L 76 104 Z M 32 107 L 33 107 L 33 108 L 35 108 L 35 109 L 36 109 L 36 111 L 34 111 L 34 110 L 33 110 L 33 109 L 32 109 Z M 157 110 L 156 110 L 156 111 L 157 111 Z M 116 113 L 118 113 L 118 117 L 116 117 Z M 95 114 L 97 114 L 97 115 L 95 115 Z M 133 115 L 135 115 L 135 117 L 133 117 Z M 38 117 L 39 117 L 39 118 L 41 118 L 41 119 L 43 119 L 43 121 L 41 121 L 41 120 L 39 120 L 39 119 L 38 119 Z M 112 119 L 111 119 L 111 121 L 112 121 Z M 157 118 L 158 118 L 158 121 L 156 121 L 156 119 L 157 119 Z M 90 121 L 91 121 L 91 122 L 92 122 L 92 123 L 90 123 Z M 110 122 L 109 122 L 109 123 L 110 123 Z M 122 121 L 124 121 L 124 123 L 122 123 Z M 144 121 L 146 121 L 146 123 L 144 123 Z M 153 121 L 155 121 L 155 123 L 154 123 L 154 124 L 152 124 L 152 122 L 153 122 Z M 44 124 L 43 124 L 43 125 L 44 125 Z M 111 124 L 110 124 L 110 125 L 111 125 Z M 116 123 L 118 123 L 118 124 L 119 124 L 119 125 L 120 125 L 120 126 L 121 126 L 121 128 L 120 128 L 120 127 L 118 127 L 118 126 L 117 126 L 117 124 L 116 124 Z M 109 125 L 108 125 L 108 126 L 109 126 Z M 156 125 L 155 125 L 155 126 L 154 126 L 154 127 L 157 127 L 157 126 L 156 126 Z M 159 125 L 158 125 L 158 126 L 159 126 Z M 58 125 L 60 125 L 60 126 L 61 126 L 61 127 L 58 127 Z M 146 125 L 149 125 L 149 127 L 147 127 L 147 128 L 145 128 L 145 126 L 146 126 Z M 124 126 L 127 126 L 127 127 L 128 127 L 128 128 L 125 128 L 125 127 L 124 127 Z M 53 127 L 57 127 L 57 128 L 59 128 L 59 130 L 56 130 L 56 129 L 54 129 L 54 128 L 53 128 Z M 136 127 L 142 127 L 142 128 L 140 128 L 140 129 L 136 129 Z M 103 129 L 102 129 L 102 130 L 106 130 L 106 129 Z M 102 132 L 101 132 L 101 133 L 102 133 Z M 104 132 L 103 132 L 103 133 L 113 133 L 113 132 Z M 139 136 L 148 136 L 148 137 L 145 137 L 145 138 L 141 138 L 141 137 L 139 137 Z M 56 140 L 75 140 L 75 141 L 74 141 L 74 142 L 56 142 Z"/>
</svg>
