<svg xmlns="http://www.w3.org/2000/svg" viewBox="0 0 160 160" fill="none" role="img" aria-label="Bread Planner logo">
  <rect x="10" y="10" width="140" height="140" rx="30" fill="#f9e8d3"/>
  <g transform="translate(18 32)">
    <path d="M16.8 64.7c1.4-16.6 12.6-29.4 29.6-34.4 10.8-3.2 22.2-2.4 34.1.9 15.9 4.4 27.2 15.2 29.8 28.8 2.1 11-4.9 19.9-17.5 22.2-18.3 3.4-40.6 2.8-61.7.2-9.5-1.1-15.1-8-14.3-17.7Z" stroke="#322e2b" stroke-width="7.2" stroke-linecap="round" stroke-linejoin="round"/>
    <path d="M19.5 66.4c15.2 3.1 39.6 4.8 67.9 1.8 8.5-.9 16.2-2 22.2-3.9" stroke="#322e2b" stroke-width="2.8" stroke-linecap="round" opacity=".78"/>
    <path d="M25.5 77.8c9.5 1.6 21.2 2.7 34.3 2.7 17.2.1 33.2-1.4 45.2-4" stroke="#322e2b" stroke-width="3.2" stroke-linecap="round" opacity=".7"/>
    <path d="M36.8 35.2c12.1 3.2 21 11.2 27.4 23.1" stroke="#322e2b" stroke-width="6" stroke-linecap="round"/>
    <path d="M58 27.7c10.5 6.1 17.2 15.3 20.2 27.4" stroke="#322e2b" stroke-width="6" stroke-linecap="round"/>
    <path d="M78.8 31.7c8.7 6.8 13.7 14.7 15.3 23.3" stroke="#322e2b" stroke-width="5.5" stroke-linecap="round"/>
    <path d="M36.6 55.4c-1.3 1.2-2 2.9-2.2 5.1" stroke="#322e2b" stroke-width="2.8" stroke-linecap="round"/>
    <path d="M44.3 69.2c2.6.7 5.1 1.1 7.5 1.2" stroke="#322e2b" stroke-width="2.6" stroke-linecap="round"/>
    <path d="M29.5 64.9c-1.6 2.2-1.7 4.4-.2 6.4" stroke="#322e2b" stroke-width="2.4" stroke-linecap="round"/>
    <path d="M91.2 66.2c2.1-1.4 3.4-3.2 4-5.3" stroke="#322e2b" stroke-width="2.6" stroke-linecap="round"/>
    <path d="M72.7 73.1c2.4-.1 4.4-.4 6-.8" stroke="#322e2b" stroke-width="2.4" stroke-linecap="round"/>
    <path d="M49.7 48.5c2.3.8 4.2 1.9 5.6 3.4" stroke="#322e2b" stroke-width="2.4" stroke-linecap="round"/>
  </g>
</svg>
