<svg xmlns="http://www.w3.org/2000/svg" viewBox="0 0 192 192" role="img" aria-label="normale">
  <path fill="currentColor" fill-rule="evenodd" d="M 92 52 L 101 52 L 101 53 L 106 53 L 106 54 L 109 54 L 109 55 L 112 55 L 112 56 L 114 56 L 114 57 L 115 57 L 115 58 L 117 58 L 117 59 L 118 59 L 118 60 L 120 60 L 120 61 L 121 61 L 121 62 L 122 62 L 122 63 L 123 63 L 123 64 L 124 64 L 124 66 L 125 66 L 125 67 L 126 67 L 126 68 L 127 68 L 127 70 L 128 70 L 128 72 L 129 72 L 129 75 L 130 75 L 130 80 L 131 80 L 131 83 L 137 83 L 137 84 L 140 84 L 140 85 L 142 85 L 142 86 L 143 86 L 143 87 L 145 87 L 145 88 L 146 88 L 146 89 L 147 89 L 147 91 L 148 91 L 148 92 L 149 92 L 149 94 L 150 94 L 150 96 L 151 96 L 151 99 L 152 99 L 152 100 L 153 100 L 153 101 L 156 101 L 156 102 L 158 102 L 158 103 L 160 103 L 160 104 L 161 104 L 161 105 L 162 105 L 162 106 L 163 106 L 163 107 L 164 107 L 164 108 L 165 108 L 165 110 L 166 110 L 166 112 L 167 112 L 167 117 L 168 117 L 168 121 L 167 121 L 167 125 L 166 125 L 166 127 L 165 127 L 165 129 L 164 129 L 164 130 L 163 130 L 163 132 L 162 132 L 162 133 L 161 133 L 161 134 L 159 134 L 159 135 L 158 135 L 158 136 L 156 136 L 156 137 L 153 137 L 153 138 L 149 138 L 149 139 L 138 139 L 138 140 L 53 140 L 53 139 L 41 139 L 41 138 L 38 138 L 38 137 L 35 137 L 35 136 L 33 136 L 33 135 L 32 135 L 32 134 L 30 134 L 30 133 L 29 133 L 29 132 L 28 132 L 28 131 L 27 131 L 27 130 L 26 130 L 26 128 L 25 128 L 25 126 L 24 126 L 24 123 L 23 123 L 23 114 L 24 114 L 24 112 L 25 112 L 25 110 L 26 110 L 26 109 L 27 109 L 27 107 L 28 107 L 28 106 L 30 106 L 30 105 L 31 105 L 31 104 L 33 104 L 33 103 L 36 103 L 36 102 L 40 102 L 40 101 L 41 101 L 41 100 L 42 100 L 42 99 L 43 99 L 43 97 L 44 97 L 44 96 L 45 96 L 45 95 L 46 95 L 46 94 L 47 94 L 47 93 L 48 93 L 48 92 L 50 92 L 50 91 L 53 91 L 53 90 L 58 90 L 58 89 L 60 89 L 60 90 L 61 90 L 61 89 L 62 89 L 62 80 L 63 80 L 63 76 L 64 76 L 64 74 L 65 74 L 65 72 L 66 72 L 66 70 L 67 70 L 67 68 L 68 68 L 68 67 L 69 67 L 69 66 L 70 66 L 70 65 L 71 65 L 71 64 L 72 64 L 72 63 L 73 63 L 73 62 L 74 62 L 74 61 L 75 61 L 75 60 L 76 60 L 76 59 L 77 59 L 77 58 L 79 58 L 79 57 L 80 57 L 80 56 L 82 56 L 82 55 L 85 55 L 85 54 L 88 54 L 88 53 L 92 53 Z M 92 57 L 91 57 L 91 58 L 87 58 L 87 59 L 85 59 L 85 60 L 83 60 L 83 61 L 81 61 L 81 62 L 79 62 L 79 63 L 78 63 L 78 64 L 77 64 L 77 65 L 76 65 L 76 66 L 75 66 L 75 67 L 74 67 L 74 68 L 73 68 L 73 69 L 72 69 L 72 71 L 71 71 L 71 72 L 70 72 L 70 74 L 69 74 L 69 76 L 68 76 L 68 79 L 67 79 L 67 83 L 66 83 L 66 92 L 67 92 L 67 94 L 66 94 L 66 95 L 61 95 L 61 94 L 55 94 L 55 95 L 52 95 L 52 96 L 51 96 L 51 97 L 49 97 L 49 98 L 48 98 L 48 100 L 47 100 L 47 101 L 46 101 L 46 103 L 45 103 L 45 106 L 44 106 L 44 107 L 35 107 L 35 108 L 33 108 L 33 109 L 32 109 L 32 110 L 31 110 L 31 111 L 30 111 L 30 112 L 29 112 L 29 114 L 28 114 L 28 123 L 29 123 L 29 126 L 30 126 L 30 127 L 31 127 L 31 128 L 32 128 L 32 129 L 33 129 L 33 130 L 34 130 L 34 131 L 36 131 L 36 132 L 38 132 L 38 133 L 41 133 L 41 134 L 53 134 L 53 135 L 143 135 L 143 134 L 150 134 L 150 133 L 153 133 L 153 132 L 155 132 L 155 131 L 157 131 L 157 130 L 158 130 L 158 129 L 159 129 L 159 128 L 160 128 L 160 127 L 161 127 L 161 125 L 162 125 L 162 122 L 163 122 L 163 115 L 162 115 L 162 112 L 161 112 L 161 111 L 160 111 L 160 109 L 159 109 L 159 108 L 157 108 L 157 107 L 155 107 L 155 106 L 148 106 L 148 105 L 147 105 L 147 100 L 146 100 L 146 96 L 145 96 L 145 94 L 144 94 L 144 93 L 143 93 L 143 92 L 142 92 L 142 91 L 141 91 L 141 90 L 139 90 L 139 89 L 137 89 L 137 88 L 127 88 L 127 87 L 126 87 L 126 79 L 125 79 L 125 75 L 124 75 L 124 73 L 123 73 L 123 71 L 122 71 L 122 69 L 121 69 L 121 68 L 120 68 L 120 67 L 119 67 L 119 66 L 118 66 L 118 65 L 117 65 L 117 64 L 116 64 L 116 63 L 115 63 L 115 62 L 113 62 L 113 61 L 111 61 L 111 60 L 109 60 L 109 59 L 107 59 L 107 58 L 102 58 L 102 57 Z M 84 64 L 88 64 L 88 65 L 87 65 L 87 66 L 86 66 L 86 67 L 84 67 L 84 68 L 82 68 L 82 69 L 81 69 L 81 70 L 80 70 L 80 71 L 79 71 L 79 72 L 78 72 L 78 73 L 77 73 L 77 75 L 76 75 L 76 76 L 75 76 L 75 78 L 74 78 L 74 79 L 72 79 L 72 77 L 73 77 L 73 75 L 74 75 L 74 73 L 75 73 L 75 72 L 76 72 L 76 71 L 77 71 L 77 70 L 78 70 L 78 69 L 79 69 L 79 68 L 80 68 L 80 67 L 81 67 L 81 66 L 82 66 L 82 65 L 84 65 Z M 108 64 L 109 64 L 109 65 L 111 65 L 111 66 L 113 66 L 113 69 L 112 69 L 112 68 L 110 68 L 110 67 L 108 67 L 108 66 L 107 66 L 107 65 L 108 65 Z M 115 71 L 117 71 L 117 72 L 118 72 L 118 73 L 119 73 L 119 76 L 120 76 L 120 80 L 118 80 L 118 78 L 117 78 L 117 75 L 116 75 L 116 73 L 115 73 Z M 114 80 L 115 80 L 115 82 L 114 82 Z M 119 84 L 120 84 L 120 91 L 119 91 L 119 93 L 118 93 L 118 94 L 117 94 L 117 89 L 118 89 L 118 85 L 119 85 Z M 138 94 L 140 94 L 140 95 L 141 95 L 141 96 L 142 96 L 142 98 L 143 98 L 143 100 L 141 100 L 141 99 L 140 99 L 140 98 L 139 98 L 139 96 L 138 96 Z M 57 97 L 59 97 L 59 99 L 57 99 Z M 51 99 L 54 99 L 54 101 L 53 101 L 53 102 L 52 102 L 52 103 L 51 103 L 51 104 L 50 104 L 50 106 L 49 106 L 49 109 L 47 109 L 47 104 L 48 104 L 48 102 L 49 102 L 49 101 L 50 101 L 50 100 L 51 100 Z M 141 103 L 143 103 L 143 108 L 142 108 L 142 110 L 140 110 L 140 105 L 141 105 Z M 38 110 L 40 110 L 40 111 L 39 111 L 39 112 L 38 112 Z M 154 110 L 156 110 L 156 111 L 157 111 L 157 112 L 158 112 L 158 115 L 156 115 L 156 114 L 155 114 L 155 112 L 154 112 Z M 34 111 L 37 111 L 37 112 L 36 112 L 36 113 L 35 113 L 35 115 L 34 115 L 34 117 L 33 117 L 33 122 L 34 122 L 34 124 L 35 124 L 35 126 L 33 126 L 33 125 L 32 125 L 32 123 L 31 123 L 31 120 L 30 120 L 30 118 L 31 118 L 31 115 L 32 115 L 32 113 L 33 113 L 33 112 L 34 112 Z M 47 111 L 49 111 L 49 112 L 47 112 Z M 137 111 L 139 111 L 139 113 L 138 113 L 138 114 L 136 114 L 136 112 L 137 112 Z M 153 116 L 155 116 L 155 118 L 153 118 Z M 158 117 L 159 117 L 159 123 L 158 123 L 158 125 L 157 125 L 157 126 L 156 126 L 156 127 L 155 127 L 155 128 L 154 128 L 154 129 L 152 129 L 152 130 L 150 130 L 150 131 L 148 131 L 148 129 L 149 129 L 149 128 L 151 128 L 151 127 L 153 127 L 153 126 L 154 126 L 154 125 L 155 125 L 155 124 L 156 124 L 156 122 L 157 122 L 157 118 L 158 118 Z M 148 121 L 150 121 L 150 122 L 149 122 L 149 123 L 148 123 L 148 125 L 147 125 L 147 126 L 146 126 L 146 127 L 145 127 L 145 128 L 143 128 L 143 129 L 142 129 L 142 130 L 140 130 L 140 131 L 135 131 L 135 130 L 136 130 L 136 129 L 138 129 L 138 128 L 140 128 L 140 127 L 142 127 L 142 126 L 143 126 L 143 125 L 145 125 L 145 124 L 146 124 L 146 123 L 147 123 L 147 122 L 148 122 Z M 151 121 L 153 121 L 153 122 L 152 122 L 152 123 L 151 123 Z M 89 122 L 91 122 L 91 124 L 90 124 L 90 125 L 85 125 L 85 124 L 86 124 L 86 123 L 89 123 Z M 110 122 L 113 122 L 113 124 L 111 124 L 111 125 L 109 125 L 109 126 L 106 126 L 106 124 L 108 124 L 108 123 L 110 123 Z M 131 127 L 133 127 L 133 129 L 132 129 L 132 130 L 130 130 L 130 131 L 121 131 L 121 130 L 122 130 L 122 129 L 127 129 L 127 128 L 131 128 Z M 40 128 L 46 128 L 46 129 L 48 129 L 48 130 L 47 130 L 47 131 L 44 131 L 44 130 L 41 130 L 41 129 L 40 129 Z M 57 129 L 69 129 L 69 131 L 57 131 Z M 77 129 L 90 129 L 90 131 L 77 131 Z M 100 129 L 110 129 L 110 131 L 104 131 L 104 132 L 101 132 L 101 131 L 99 131 L 99 130 L 100 130 Z"/>
</svg>
