<svg xmlns="http://www.w3.org/2000/svg" viewBox="0 0 192 192" role="img" aria-label="idratazione starter">
  <path fill="currentColor" fill-rule="evenodd" d="M 70 22 L 107 22 L 107 23 L 117 23 L 117 24 L 122 24 L 122 25 L 126 25 L 126 26 L 128 26 L 128 27 L 130 27 L 130 28 L 131 28 L 131 29 L 132 29 L 132 30 L 133 30 L 133 31 L 134 31 L 134 33 L 135 33 L 135 44 L 134 44 L 134 49 L 135 49 L 135 50 L 136 50 L 136 51 L 137 51 L 137 52 L 138 52 L 138 53 L 139 53 L 139 54 L 140 54 L 140 55 L 141 55 L 141 56 L 142 56 L 142 57 L 143 57 L 143 58 L 144 58 L 144 59 L 145 59 L 145 61 L 146 61 L 146 62 L 147 62 L 147 64 L 146 64 L 146 66 L 145 66 L 145 67 L 143 67 L 143 68 L 141 68 L 141 72 L 142 72 L 142 76 L 143 76 L 143 83 L 142 83 L 142 82 L 141 82 L 141 80 L 140 80 L 140 78 L 139 78 L 139 76 L 138 76 L 138 73 L 137 73 L 137 72 L 136 72 L 136 70 L 135 70 L 135 69 L 131 69 L 131 70 L 130 70 L 130 71 L 129 71 L 129 72 L 128 72 L 128 74 L 127 74 L 127 75 L 113 75 L 113 76 L 111 76 L 111 77 L 109 77 L 109 78 L 107 78 L 107 79 L 103 79 L 103 80 L 100 80 L 100 79 L 95 79 L 95 78 L 92 78 L 92 77 L 90 77 L 90 76 L 88 76 L 88 75 L 84 75 L 84 74 L 79 74 L 79 75 L 75 75 L 75 76 L 73 76 L 73 77 L 70 77 L 70 78 L 60 78 L 60 77 L 58 77 L 58 76 L 56 76 L 56 75 L 55 75 L 55 74 L 53 74 L 53 73 L 52 73 L 52 72 L 50 72 L 50 71 L 48 71 L 48 70 L 47 70 L 47 71 L 46 71 L 46 72 L 45 72 L 45 74 L 44 74 L 44 76 L 43 76 L 43 80 L 42 80 L 42 85 L 41 85 L 41 101 L 42 101 L 42 100 L 46 100 L 46 99 L 48 99 L 48 98 L 54 98 L 54 97 L 56 97 L 56 96 L 60 96 L 60 95 L 62 95 L 62 96 L 68 96 L 68 95 L 73 95 L 73 94 L 75 94 L 75 93 L 80 93 L 80 94 L 86 94 L 86 95 L 89 95 L 89 94 L 97 94 L 97 95 L 109 95 L 109 96 L 111 96 L 111 97 L 93 97 L 93 96 L 91 96 L 91 97 L 82 97 L 82 96 L 79 96 L 79 95 L 76 95 L 76 96 L 74 96 L 74 97 L 72 97 L 72 98 L 57 98 L 57 99 L 56 99 L 56 100 L 49 100 L 49 101 L 47 101 L 47 102 L 43 102 L 43 103 L 42 103 L 42 104 L 41 104 L 41 131 L 40 131 L 40 132 L 39 132 L 39 83 L 40 83 L 40 79 L 41 79 L 41 76 L 42 76 L 42 74 L 43 74 L 43 72 L 44 72 L 44 70 L 42 70 L 42 71 L 41 71 L 41 72 L 40 72 L 40 74 L 39 74 L 39 76 L 38 76 L 38 79 L 37 79 L 37 88 L 36 88 L 36 140 L 37 140 L 37 145 L 38 145 L 38 148 L 39 148 L 39 149 L 40 149 L 40 150 L 41 150 L 41 151 L 42 151 L 42 152 L 43 152 L 43 153 L 44 153 L 44 154 L 46 154 L 46 155 L 48 155 L 48 156 L 51 156 L 51 157 L 54 157 L 54 158 L 58 158 L 58 159 L 63 159 L 63 160 L 70 160 L 70 161 L 103 161 L 103 160 L 111 160 L 111 158 L 103 158 L 103 156 L 107 156 L 107 153 L 106 153 L 106 151 L 105 151 L 105 149 L 104 149 L 104 146 L 103 146 L 103 143 L 102 143 L 102 132 L 103 132 L 103 127 L 104 127 L 104 124 L 105 124 L 105 121 L 106 121 L 106 119 L 107 119 L 107 117 L 108 117 L 108 115 L 109 115 L 109 113 L 110 113 L 110 112 L 111 112 L 111 110 L 112 110 L 112 108 L 113 108 L 113 106 L 114 106 L 114 105 L 115 105 L 115 103 L 116 103 L 116 101 L 117 101 L 117 100 L 118 100 L 118 98 L 119 98 L 119 96 L 120 96 L 120 94 L 121 94 L 121 93 L 122 93 L 122 91 L 123 91 L 123 89 L 124 89 L 124 87 L 125 87 L 125 85 L 126 85 L 126 83 L 127 83 L 127 81 L 128 81 L 128 79 L 129 79 L 129 77 L 130 77 L 130 75 L 131 75 L 131 73 L 132 73 L 132 72 L 134 72 L 134 73 L 135 73 L 135 75 L 136 75 L 136 78 L 137 78 L 137 80 L 138 80 L 138 83 L 139 83 L 139 85 L 140 85 L 140 87 L 141 87 L 141 89 L 142 89 L 142 90 L 143 90 L 143 92 L 144 92 L 144 94 L 145 94 L 145 96 L 146 96 L 146 98 L 147 98 L 147 99 L 148 99 L 148 101 L 149 101 L 149 103 L 150 103 L 150 104 L 151 104 L 151 106 L 152 106 L 152 108 L 153 108 L 153 110 L 154 110 L 154 111 L 155 111 L 155 113 L 156 113 L 156 115 L 157 115 L 157 117 L 158 117 L 158 119 L 159 119 L 159 121 L 160 121 L 160 124 L 161 124 L 161 129 L 162 129 L 162 144 L 161 144 L 161 148 L 160 148 L 160 150 L 159 150 L 159 152 L 158 152 L 158 154 L 157 154 L 157 155 L 156 155 L 156 157 L 155 157 L 155 158 L 154 158 L 154 159 L 158 159 L 158 160 L 159 160 L 159 161 L 152 161 L 152 162 L 165 162 L 165 164 L 147 164 L 147 165 L 156 165 L 156 166 L 157 166 L 157 167 L 146 167 L 146 168 L 142 168 L 142 169 L 143 169 L 143 170 L 126 170 L 126 168 L 117 168 L 117 169 L 109 169 L 109 167 L 113 167 L 113 166 L 91 166 L 91 167 L 104 167 L 104 169 L 79 169 L 79 168 L 64 168 L 64 167 L 72 167 L 72 166 L 47 166 L 47 165 L 46 165 L 46 164 L 56 164 L 56 163 L 44 163 L 44 162 L 33 162 L 33 161 L 34 161 L 34 160 L 45 160 L 45 159 L 27 159 L 27 158 L 26 158 L 26 157 L 40 157 L 40 156 L 38 156 L 38 155 L 31 155 L 31 154 L 30 154 L 30 153 L 35 153 L 35 150 L 34 150 L 34 148 L 33 148 L 33 145 L 32 145 L 32 81 L 33 81 L 33 77 L 34 77 L 34 74 L 35 74 L 35 71 L 34 71 L 34 70 L 32 70 L 32 69 L 31 69 L 31 68 L 30 68 L 30 67 L 29 67 L 29 66 L 28 66 L 28 62 L 29 62 L 29 61 L 30 61 L 30 60 L 31 60 L 31 59 L 32 59 L 32 58 L 33 58 L 33 57 L 34 57 L 34 56 L 35 56 L 35 55 L 36 55 L 36 54 L 37 54 L 37 53 L 38 53 L 38 52 L 39 52 L 39 51 L 40 51 L 40 50 L 41 50 L 41 49 L 42 49 L 42 46 L 41 46 L 41 34 L 42 34 L 42 31 L 43 31 L 43 30 L 44 30 L 44 29 L 45 29 L 45 28 L 46 28 L 46 27 L 48 27 L 48 26 L 51 26 L 51 25 L 55 25 L 55 24 L 60 24 L 60 23 L 70 23 Z M 72 26 L 71 26 L 71 27 L 61 27 L 61 28 L 56 28 L 56 29 L 52 29 L 52 30 L 49 30 L 49 31 L 48 31 L 48 32 L 47 32 L 47 33 L 46 33 L 46 35 L 45 35 L 45 43 L 46 43 L 46 45 L 47 45 L 47 47 L 49 47 L 49 46 L 48 46 L 48 43 L 47 43 L 47 40 L 49 40 L 49 43 L 50 43 L 50 46 L 51 46 L 51 47 L 52 47 L 52 48 L 53 48 L 53 49 L 57 49 L 57 50 L 58 50 L 58 48 L 57 48 L 57 45 L 56 45 L 56 43 L 58 43 L 58 45 L 59 45 L 59 47 L 60 47 L 60 49 L 61 49 L 61 50 L 63 50 L 63 51 L 68 51 L 68 52 L 77 52 L 77 53 L 78 53 L 78 51 L 77 51 L 77 47 L 78 47 L 78 49 L 79 49 L 79 51 L 80 51 L 80 53 L 97 53 L 97 52 L 99 52 L 99 51 L 100 51 L 100 50 L 101 50 L 101 48 L 102 48 L 102 46 L 104 46 L 104 49 L 103 49 L 103 51 L 102 51 L 102 52 L 108 52 L 108 51 L 113 51 L 113 50 L 115 50 L 115 49 L 116 49 L 116 47 L 117 47 L 117 44 L 118 44 L 118 43 L 119 43 L 119 48 L 118 48 L 118 50 L 119 50 L 119 49 L 122 49 L 122 48 L 123 48 L 123 47 L 124 47 L 124 43 L 125 43 L 125 42 L 126 42 L 126 44 L 127 44 L 127 39 L 129 39 L 129 43 L 128 43 L 128 46 L 129 46 L 129 45 L 130 45 L 130 42 L 131 42 L 131 35 L 130 35 L 130 32 L 129 32 L 129 31 L 127 31 L 127 30 L 124 30 L 124 29 L 121 29 L 121 28 L 116 28 L 116 27 L 106 27 L 106 26 Z M 49 34 L 51 34 L 51 36 L 49 36 Z M 126 34 L 128 34 L 128 35 L 126 35 Z M 53 36 L 57 36 L 57 37 L 60 37 L 60 38 L 61 38 L 61 39 L 56 39 L 56 38 L 53 38 Z M 120 36 L 124 36 L 124 37 L 123 37 L 123 38 L 120 38 Z M 115 37 L 119 37 L 119 39 L 115 39 L 115 40 L 113 40 L 113 38 L 115 38 Z M 65 38 L 67 38 L 67 39 L 68 39 L 68 40 L 65 40 Z M 100 39 L 103 39 L 103 41 L 99 41 L 99 40 L 100 40 Z M 78 40 L 85 40 L 85 42 L 82 42 L 82 41 L 78 41 Z M 122 45 L 123 45 L 123 47 L 121 47 L 121 46 L 122 46 Z M 128 46 L 127 46 L 127 47 L 128 47 Z M 61 47 L 63 47 L 63 48 L 64 48 L 64 49 L 61 49 Z M 113 48 L 115 48 L 115 49 L 113 49 Z M 98 49 L 99 49 L 99 51 L 97 51 L 97 50 L 98 50 Z M 81 50 L 82 50 L 82 51 L 81 51 Z M 54 52 L 53 52 L 53 53 L 55 53 L 55 52 Z M 44 53 L 43 53 L 43 54 L 42 54 L 42 55 L 40 55 L 40 56 L 39 56 L 39 57 L 38 57 L 38 58 L 37 58 L 37 59 L 36 59 L 36 60 L 35 60 L 35 61 L 34 61 L 34 62 L 33 62 L 33 63 L 32 63 L 32 64 L 33 64 L 33 65 L 34 65 L 34 66 L 36 66 L 36 67 L 38 67 L 38 66 L 49 66 L 49 67 L 51 67 L 51 68 L 53 68 L 53 69 L 54 69 L 54 70 L 56 70 L 56 71 L 57 71 L 57 72 L 59 72 L 59 73 L 61 73 L 61 74 L 70 74 L 70 73 L 73 73 L 73 72 L 75 72 L 75 71 L 88 71 L 88 72 L 91 72 L 91 73 L 93 73 L 93 74 L 95 74 L 95 75 L 106 75 L 106 74 L 109 74 L 109 73 L 111 73 L 111 72 L 113 72 L 113 71 L 127 71 L 127 70 L 128 70 L 128 69 L 129 69 L 129 68 L 130 68 L 130 67 L 131 67 L 131 66 L 134 66 L 134 65 L 140 65 L 140 64 L 142 64 L 142 62 L 141 62 L 141 61 L 140 61 L 140 60 L 139 60 L 139 59 L 138 59 L 138 58 L 137 58 L 137 57 L 136 57 L 136 56 L 135 56 L 135 55 L 134 55 L 134 54 L 133 54 L 133 53 L 130 53 L 130 54 L 132 54 L 132 55 L 133 55 L 133 57 L 132 57 L 132 56 L 130 56 L 130 54 L 127 54 L 127 56 L 129 56 L 129 57 L 130 57 L 130 58 L 128 58 L 128 57 L 127 57 L 127 59 L 128 59 L 128 60 L 129 60 L 129 62 L 130 62 L 130 64 L 131 64 L 131 66 L 130 66 L 130 65 L 129 65 L 129 64 L 128 64 L 128 63 L 127 63 L 127 62 L 126 62 L 126 60 L 125 60 L 125 59 L 124 59 L 124 58 L 123 58 L 123 57 L 117 57 L 117 58 L 111 58 L 111 59 L 108 59 L 108 60 L 109 60 L 109 63 L 110 63 L 110 66 L 111 66 L 111 70 L 110 70 L 110 69 L 109 69 L 109 67 L 108 67 L 108 65 L 107 65 L 107 62 L 106 62 L 106 60 L 93 60 L 93 61 L 92 61 L 92 64 L 93 64 L 93 69 L 94 69 L 94 70 L 93 70 L 93 71 L 92 71 L 92 68 L 91 68 L 91 64 L 90 64 L 90 61 L 89 61 L 89 60 L 78 60 L 78 62 L 77 62 L 77 64 L 76 64 L 76 66 L 75 66 L 75 67 L 74 67 L 74 70 L 72 70 L 72 68 L 73 68 L 73 67 L 74 67 L 74 63 L 75 63 L 75 60 L 72 60 L 72 59 L 63 59 L 63 60 L 62 60 L 62 61 L 64 61 L 64 62 L 62 62 L 62 61 L 61 61 L 61 63 L 60 63 L 60 64 L 59 64 L 59 65 L 58 65 L 58 62 L 59 62 L 59 60 L 60 60 L 60 59 L 61 59 L 61 58 L 59 58 L 59 57 L 54 57 L 54 56 L 50 56 L 50 57 L 49 57 L 49 58 L 48 58 L 48 59 L 47 59 L 47 60 L 46 60 L 46 61 L 45 61 L 45 62 L 44 62 L 44 63 L 43 63 L 43 64 L 42 64 L 42 65 L 40 65 L 40 64 L 41 64 L 41 63 L 42 63 L 42 62 L 43 62 L 43 61 L 44 61 L 44 60 L 45 60 L 45 58 L 46 58 L 46 57 L 47 57 L 47 56 L 48 56 L 48 54 L 47 54 L 47 56 L 46 56 L 46 57 L 44 57 L 44 56 L 45 56 L 45 55 L 46 55 L 46 53 Z M 57 53 L 56 53 L 56 54 L 60 54 L 60 53 Z M 117 53 L 116 53 L 116 54 L 117 54 Z M 62 54 L 61 54 L 61 55 L 66 55 L 66 54 Z M 109 54 L 108 54 L 108 55 L 114 55 L 114 54 Z M 69 55 L 68 55 L 68 56 L 74 56 L 74 55 Z M 97 55 L 96 55 L 96 56 L 80 56 L 80 57 L 97 57 L 97 56 L 108 56 L 108 55 Z M 120 58 L 122 58 L 122 59 L 120 59 Z M 110 60 L 111 60 L 111 61 L 112 61 L 112 63 L 111 63 L 111 62 L 110 62 Z M 72 61 L 74 61 L 74 63 L 73 63 L 73 64 L 72 64 Z M 104 61 L 105 61 L 105 63 L 104 63 Z M 123 61 L 124 61 L 124 62 L 123 62 Z M 93 62 L 95 62 L 95 65 L 94 65 L 94 63 L 93 63 Z M 132 63 L 133 63 L 133 64 L 132 64 Z M 57 66 L 58 66 L 58 68 L 56 68 L 56 67 L 57 67 Z M 112 66 L 114 66 L 114 67 L 112 67 Z M 46 76 L 47 76 L 47 78 L 45 78 L 45 77 L 46 77 Z M 45 79 L 46 79 L 46 82 L 45 82 L 45 89 L 44 89 L 44 95 L 42 95 L 42 88 L 43 88 L 43 82 L 44 82 L 44 80 L 45 80 Z M 133 80 L 132 80 L 132 83 L 131 83 L 131 85 L 130 85 L 130 87 L 129 87 L 129 89 L 128 89 L 128 91 L 127 91 L 127 93 L 126 93 L 126 95 L 125 95 L 125 96 L 124 96 L 124 98 L 123 98 L 123 100 L 122 100 L 122 102 L 121 102 L 121 103 L 120 103 L 120 105 L 119 105 L 119 107 L 118 107 L 118 108 L 117 108 L 117 110 L 116 110 L 116 112 L 115 112 L 115 114 L 114 114 L 114 115 L 113 115 L 113 117 L 112 117 L 112 119 L 111 119 L 111 121 L 110 121 L 110 124 L 109 124 L 109 127 L 108 127 L 108 130 L 107 130 L 107 144 L 108 144 L 108 147 L 109 147 L 109 149 L 110 149 L 110 151 L 111 151 L 111 152 L 112 152 L 112 154 L 113 154 L 113 155 L 114 155 L 114 156 L 115 156 L 115 157 L 117 157 L 117 158 L 118 158 L 118 159 L 120 159 L 120 160 L 122 160 L 122 161 L 124 161 L 124 162 L 128 162 L 128 163 L 136 163 L 136 162 L 140 162 L 140 161 L 143 161 L 143 160 L 145 160 L 145 159 L 147 159 L 147 158 L 148 158 L 148 157 L 149 157 L 149 156 L 150 156 L 150 155 L 151 155 L 151 154 L 152 154 L 152 153 L 153 153 L 153 152 L 154 152 L 154 150 L 155 150 L 155 148 L 156 148 L 156 145 L 157 145 L 157 141 L 158 141 L 158 132 L 157 132 L 157 127 L 156 127 L 156 124 L 155 124 L 155 122 L 154 122 L 154 119 L 153 119 L 153 117 L 152 117 L 152 115 L 151 115 L 151 113 L 150 113 L 150 111 L 149 111 L 149 110 L 148 110 L 148 108 L 147 108 L 147 106 L 146 106 L 146 105 L 145 105 L 145 103 L 144 103 L 144 101 L 143 101 L 143 99 L 142 99 L 142 98 L 141 98 L 141 96 L 140 96 L 140 94 L 139 94 L 139 92 L 138 92 L 138 90 L 137 90 L 137 88 L 136 88 L 136 86 L 135 86 L 135 84 L 134 84 L 134 82 L 133 82 Z M 136 93 L 137 93 L 137 94 L 138 94 L 138 96 L 137 96 L 137 95 L 136 95 Z M 112 96 L 114 96 L 114 98 L 112 98 Z M 138 97 L 139 97 L 139 98 L 140 98 L 140 100 L 141 100 L 141 102 L 140 102 L 140 101 L 139 101 L 139 100 L 138 100 Z M 87 100 L 89 100 L 89 101 L 90 101 L 90 103 L 89 103 L 89 102 L 86 102 L 86 101 L 87 101 Z M 69 101 L 71 101 L 71 102 L 69 102 Z M 57 103 L 60 103 L 60 105 L 57 105 Z M 65 103 L 68 103 L 68 105 L 65 105 Z M 98 103 L 100 103 L 100 104 L 101 104 L 101 105 L 98 105 Z M 89 104 L 91 104 L 91 106 L 90 106 L 90 107 L 89 107 L 89 106 L 88 106 L 88 105 L 89 105 Z M 123 105 L 125 105 L 125 107 L 124 107 L 124 109 L 123 109 L 123 111 L 122 111 L 122 113 L 121 113 L 121 115 L 120 115 L 120 116 L 119 116 L 119 118 L 118 118 L 118 120 L 116 120 L 116 118 L 117 118 L 117 116 L 118 116 L 118 114 L 119 114 L 119 112 L 120 112 L 120 110 L 121 110 L 121 109 L 122 109 L 122 107 L 123 107 Z M 141 105 L 142 105 L 142 106 L 143 106 L 143 107 L 144 107 L 144 109 L 145 109 L 145 110 L 143 110 L 143 109 L 142 109 L 142 107 L 141 107 Z M 43 106 L 45 106 L 45 107 L 43 107 Z M 47 107 L 49 107 L 49 108 L 47 108 Z M 73 107 L 78 107 L 78 108 L 79 108 L 79 110 L 80 110 L 80 111 L 79 111 L 79 112 L 78 112 L 78 113 L 77 113 L 77 114 L 74 114 L 74 113 L 73 113 L 73 112 L 72 112 L 72 108 L 73 108 Z M 75 109 L 74 109 L 74 111 L 75 111 L 75 112 L 76 112 L 76 111 L 78 111 L 78 110 L 77 110 L 77 109 Z M 58 109 L 59 109 L 59 111 L 58 111 Z M 61 110 L 63 110 L 63 111 L 61 111 Z M 85 111 L 87 111 L 87 113 L 85 113 Z M 97 111 L 99 111 L 99 112 L 98 112 L 98 113 L 97 113 Z M 44 114 L 46 114 L 46 116 L 44 116 Z M 52 116 L 57 116 L 57 117 L 58 117 L 58 119 L 59 119 L 59 122 L 58 122 L 58 123 L 57 123 L 57 124 L 56 124 L 56 125 L 53 125 L 53 124 L 51 124 L 51 123 L 50 123 L 50 118 L 51 118 L 51 117 L 52 117 Z M 147 116 L 149 116 L 149 118 L 150 118 L 150 120 L 151 120 L 151 122 L 152 122 L 152 126 L 151 126 L 151 125 L 150 125 L 150 122 L 149 122 L 149 120 L 148 120 L 148 118 L 147 118 Z M 54 118 L 53 118 L 53 119 L 52 119 L 52 122 L 53 122 L 53 123 L 55 123 L 55 122 L 56 122 L 56 121 L 57 121 L 57 120 L 56 120 L 56 118 Z M 92 118 L 95 118 L 95 119 L 97 119 L 97 120 L 98 120 L 98 122 L 96 122 L 96 121 L 92 121 L 92 122 L 91 122 L 91 124 L 92 124 L 92 125 L 96 125 L 96 127 L 94 127 L 94 128 L 92 128 L 92 127 L 91 127 L 91 126 L 90 126 L 90 125 L 89 125 L 89 121 L 90 121 L 90 120 L 91 120 L 91 119 L 92 119 Z M 115 121 L 116 121 L 116 124 L 115 124 Z M 69 122 L 71 122 L 71 123 L 72 123 L 72 124 L 73 124 L 73 125 L 72 125 L 72 127 L 69 127 L 69 126 L 68 126 L 68 123 L 69 123 Z M 146 122 L 148 122 L 148 123 L 149 123 L 149 128 L 148 128 L 148 126 L 147 126 L 147 123 L 146 123 Z M 79 127 L 81 127 L 81 129 L 79 129 Z M 152 127 L 153 127 L 153 129 L 152 129 Z M 44 128 L 46 128 L 46 130 L 44 130 Z M 61 130 L 62 130 L 62 132 L 60 132 L 60 131 L 61 131 Z M 153 131 L 154 131 L 154 133 L 155 133 L 155 141 L 154 141 L 154 145 L 153 145 L 153 147 L 152 147 L 152 149 L 151 149 L 151 150 L 150 150 L 150 152 L 149 152 L 149 153 L 148 153 L 148 154 L 147 154 L 147 155 L 145 155 L 145 156 L 144 156 L 144 157 L 142 157 L 142 158 L 139 158 L 139 157 L 141 157 L 141 156 L 143 156 L 143 155 L 145 155 L 145 153 L 146 153 L 146 152 L 147 152 L 147 151 L 148 151 L 148 150 L 149 150 L 149 148 L 150 148 L 150 146 L 151 146 L 151 143 L 152 143 L 152 138 L 153 138 Z M 111 132 L 113 132 L 113 136 L 112 136 L 112 138 L 113 138 L 113 143 L 114 143 L 114 146 L 115 146 L 115 148 L 116 148 L 116 150 L 117 150 L 117 151 L 115 151 L 115 150 L 114 150 L 114 149 L 113 149 L 113 147 L 112 147 L 112 144 L 111 144 Z M 150 134 L 151 134 L 151 138 L 149 138 L 149 135 L 150 135 Z M 51 135 L 54 135 L 54 137 L 55 137 L 55 138 L 54 138 L 54 139 L 53 139 L 53 140 L 51 140 L 51 139 L 50 139 L 50 136 L 51 136 Z M 39 136 L 41 136 L 41 141 L 42 141 L 42 144 L 43 144 L 43 146 L 44 146 L 44 148 L 46 148 L 46 149 L 47 149 L 47 150 L 49 150 L 49 151 L 51 151 L 51 152 L 53 152 L 53 153 L 54 153 L 54 154 L 50 154 L 50 153 L 48 153 L 48 152 L 46 152 L 46 151 L 45 151 L 45 150 L 43 150 L 43 149 L 42 149 L 42 147 L 41 147 L 41 146 L 40 146 L 40 143 L 39 143 Z M 69 137 L 74 137 L 74 138 L 75 138 L 75 139 L 76 139 L 76 143 L 75 143 L 75 144 L 74 144 L 74 145 L 73 145 L 73 146 L 70 146 L 70 145 L 69 145 L 69 144 L 68 144 L 68 143 L 67 143 L 67 140 L 68 140 L 68 138 L 69 138 Z M 88 137 L 92 137 L 92 138 L 93 138 L 93 141 L 92 141 L 92 142 L 89 142 L 89 141 L 88 141 Z M 71 139 L 70 139 L 70 140 L 69 140 L 69 142 L 70 142 L 70 143 L 74 143 L 74 140 L 73 140 L 73 139 Z M 91 139 L 90 139 L 90 140 L 91 140 Z M 115 139 L 116 139 L 116 141 L 117 141 L 117 144 L 118 144 L 118 147 L 119 147 L 119 148 L 117 148 L 117 147 L 116 147 L 116 145 L 115 145 Z M 149 141 L 151 141 L 151 142 L 150 142 L 150 145 L 149 145 L 149 147 L 148 147 L 148 149 L 147 149 L 147 150 L 146 150 L 146 151 L 145 151 L 145 149 L 146 149 L 146 147 L 147 147 L 147 145 L 148 145 L 148 142 L 149 142 Z M 46 145 L 48 145 L 48 146 L 49 146 L 49 148 L 47 148 L 47 146 L 46 146 Z M 59 147 L 60 147 L 60 149 L 59 149 Z M 97 148 L 98 148 L 98 150 L 97 150 Z M 84 149 L 86 149 L 86 151 L 84 151 Z M 61 150 L 62 150 L 62 151 L 63 151 L 63 152 L 61 152 Z M 69 151 L 70 151 L 70 153 L 69 153 Z M 121 151 L 122 151 L 122 152 L 123 152 L 123 154 L 122 154 L 122 153 L 121 153 Z M 56 153 L 57 153 L 57 154 L 63 154 L 63 155 L 69 155 L 69 156 L 77 156 L 77 157 L 79 157 L 79 158 L 67 158 L 67 157 L 61 157 L 61 156 L 57 156 L 57 155 L 56 155 Z M 139 153 L 141 153 L 141 155 L 139 155 L 139 156 L 136 156 L 136 155 L 137 155 L 137 154 L 139 154 Z M 119 154 L 121 154 L 121 155 L 122 155 L 122 156 L 120 156 L 120 155 L 119 155 Z M 93 156 L 101 156 L 101 158 L 97 158 L 97 159 L 83 159 L 83 158 L 82 158 L 82 157 L 93 157 Z M 131 158 L 135 158 L 135 159 L 131 159 Z"/>
</svg>
