<svg xmlns="http://www.w3.org/2000/svg" viewBox="0 0 192 192" role="img" aria-label="idratazione">
  <path fill="currentColor" fill-rule="evenodd" d="M 53 22 L 65 22 L 65 23 L 68 23 L 68 24 L 71 24 L 71 25 L 73 25 L 73 26 L 75 26 L 75 27 L 77 27 L 77 28 L 79 28 L 79 29 L 82 29 L 82 30 L 86 30 L 86 31 L 90 31 L 90 32 L 96 32 L 96 33 L 106 33 L 106 32 L 112 32 L 112 31 L 117 31 L 117 30 L 128 30 L 128 31 L 129 31 L 129 32 L 130 32 L 130 33 L 131 33 L 131 38 L 130 38 L 130 40 L 129 40 L 129 42 L 128 42 L 128 43 L 127 43 L 127 45 L 128 45 L 128 44 L 144 44 L 144 45 L 148 45 L 148 46 L 150 46 L 150 47 L 151 47 L 151 48 L 152 48 L 152 49 L 154 49 L 154 50 L 155 50 L 155 51 L 156 51 L 156 52 L 157 52 L 157 53 L 158 53 L 158 55 L 159 55 L 159 56 L 160 56 L 160 58 L 161 58 L 161 60 L 162 60 L 162 62 L 163 62 L 163 66 L 164 66 L 164 83 L 163 83 L 163 88 L 162 88 L 162 91 L 161 91 L 161 94 L 160 94 L 160 96 L 159 96 L 159 99 L 158 99 L 158 101 L 157 101 L 157 102 L 156 102 L 156 104 L 155 104 L 155 106 L 154 106 L 154 107 L 153 107 L 153 109 L 152 109 L 152 110 L 151 110 L 151 111 L 150 111 L 150 113 L 149 113 L 149 114 L 148 114 L 148 115 L 147 115 L 147 116 L 146 116 L 146 117 L 145 117 L 145 118 L 144 118 L 144 119 L 143 119 L 143 121 L 142 121 L 142 122 L 141 122 L 141 124 L 140 124 L 140 126 L 139 126 L 139 131 L 138 131 L 138 137 L 137 137 L 137 140 L 136 140 L 136 143 L 135 143 L 135 145 L 134 145 L 134 147 L 133 147 L 133 149 L 132 149 L 132 150 L 136 150 L 136 152 L 131 152 L 131 153 L 148 153 L 148 154 L 151 154 L 151 156 L 132 156 L 132 157 L 129 157 L 129 158 L 143 158 L 143 159 L 142 159 L 142 160 L 134 160 L 134 161 L 122 161 L 122 162 L 132 162 L 132 163 L 136 163 L 136 165 L 110 165 L 110 166 L 114 166 L 114 167 L 118 167 L 118 168 L 117 168 L 117 169 L 103 169 L 103 168 L 95 168 L 95 169 L 94 169 L 94 170 L 79 170 L 79 168 L 56 168 L 56 167 L 58 167 L 58 166 L 65 166 L 65 165 L 41 165 L 41 163 L 44 163 L 44 162 L 56 162 L 56 161 L 38 161 L 38 160 L 35 160 L 35 159 L 39 159 L 39 158 L 46 158 L 46 159 L 47 159 L 47 158 L 48 158 L 48 157 L 27 157 L 27 155 L 34 155 L 34 154 L 45 154 L 45 153 L 35 153 L 35 152 L 34 152 L 34 151 L 42 151 L 42 148 L 41 148 L 41 146 L 40 146 L 40 144 L 39 144 L 39 142 L 38 142 L 38 138 L 37 138 L 37 134 L 36 134 L 36 115 L 37 115 L 37 109 L 38 109 L 38 105 L 39 105 L 39 101 L 40 101 L 40 98 L 41 98 L 41 96 L 42 96 L 42 93 L 43 93 L 43 91 L 44 91 L 44 88 L 45 88 L 45 86 L 46 86 L 46 83 L 47 83 L 47 80 L 48 80 L 48 77 L 49 77 L 49 73 L 50 73 L 50 69 L 51 69 L 51 63 L 52 63 L 52 62 L 51 62 L 51 52 L 50 52 L 50 49 L 49 49 L 49 47 L 48 47 L 48 45 L 47 45 L 47 44 L 46 44 L 46 43 L 45 43 L 45 42 L 44 42 L 44 41 L 43 41 L 43 40 L 39 40 L 39 39 L 37 39 L 37 38 L 36 38 L 36 37 L 35 37 L 35 33 L 36 33 L 36 32 L 37 32 L 37 31 L 38 31 L 38 30 L 39 30 L 39 29 L 40 29 L 40 28 L 42 28 L 42 27 L 44 27 L 44 26 L 46 26 L 46 25 L 48 25 L 48 24 L 51 24 L 51 23 L 53 23 Z M 56 27 L 55 27 L 55 28 L 51 28 L 51 29 L 49 29 L 49 30 L 46 30 L 46 31 L 48 31 L 48 33 L 47 33 L 47 34 L 44 34 L 44 36 L 46 36 L 46 37 L 47 37 L 47 38 L 48 38 L 48 39 L 49 39 L 49 40 L 50 40 L 50 41 L 51 41 L 51 42 L 52 42 L 52 44 L 53 44 L 53 46 L 54 46 L 54 48 L 55 48 L 55 51 L 56 51 L 56 54 L 57 54 L 57 69 L 56 69 L 56 73 L 55 73 L 55 76 L 54 76 L 54 79 L 53 79 L 53 82 L 52 82 L 52 85 L 51 85 L 51 88 L 50 88 L 50 90 L 49 90 L 49 93 L 48 93 L 48 96 L 47 96 L 47 99 L 48 99 L 48 98 L 49 98 L 49 97 L 50 97 L 50 96 L 53 96 L 53 95 L 56 95 L 56 94 L 60 94 L 60 93 L 65 93 L 65 92 L 73 92 L 73 91 L 94 91 L 94 92 L 95 92 L 95 93 L 94 93 L 94 94 L 80 94 L 80 95 L 66 95 L 66 96 L 62 96 L 62 97 L 57 97 L 57 98 L 63 98 L 63 99 L 62 99 L 62 100 L 59 100 L 59 101 L 54 101 L 54 100 L 55 100 L 55 99 L 57 99 L 57 98 L 54 98 L 54 99 L 51 99 L 51 101 L 53 101 L 53 102 L 55 102 L 55 103 L 57 103 L 57 104 L 59 104 L 59 105 L 63 105 L 63 106 L 102 106 L 102 105 L 97 105 L 97 103 L 113 103 L 113 102 L 112 102 L 112 101 L 118 101 L 118 102 L 117 102 L 117 103 L 119 103 L 119 102 L 121 102 L 121 101 L 119 101 L 119 100 L 113 100 L 113 99 L 109 99 L 109 98 L 108 98 L 108 97 L 114 97 L 114 96 L 109 96 L 109 95 L 104 95 L 104 94 L 103 94 L 103 93 L 104 93 L 104 92 L 108 92 L 108 93 L 115 93 L 115 94 L 119 94 L 119 95 L 122 95 L 122 96 L 125 96 L 125 97 L 126 97 L 126 98 L 127 98 L 127 102 L 126 102 L 126 103 L 125 103 L 125 104 L 123 104 L 123 105 L 121 105 L 121 106 L 118 106 L 118 107 L 115 107 L 115 108 L 111 108 L 111 109 L 106 109 L 106 110 L 87 110 L 87 111 L 83 111 L 83 110 L 69 110 L 69 109 L 64 109 L 64 108 L 61 108 L 61 107 L 57 107 L 57 106 L 54 106 L 54 105 L 52 105 L 52 104 L 50 104 L 50 103 L 49 103 L 49 102 L 48 102 L 48 101 L 47 101 L 47 99 L 46 99 L 46 102 L 45 102 L 45 105 L 44 105 L 44 109 L 43 109 L 43 112 L 42 112 L 42 117 L 41 117 L 41 131 L 42 131 L 42 135 L 43 135 L 43 139 L 44 139 L 44 141 L 45 141 L 45 143 L 46 143 L 46 145 L 47 145 L 47 146 L 48 146 L 48 148 L 49 148 L 49 149 L 50 149 L 50 150 L 51 150 L 51 151 L 52 151 L 52 152 L 53 152 L 53 153 L 55 153 L 55 154 L 56 154 L 56 155 L 58 155 L 58 156 L 60 156 L 60 157 L 62 157 L 62 158 L 65 158 L 65 159 L 68 159 L 68 160 L 73 160 L 73 161 L 79 161 L 79 162 L 97 162 L 97 161 L 103 161 L 103 160 L 107 160 L 107 159 L 110 159 L 110 158 L 113 158 L 113 157 L 115 157 L 115 156 L 117 156 L 117 155 L 119 155 L 119 154 L 120 154 L 120 153 L 122 153 L 122 152 L 123 152 L 123 151 L 124 151 L 124 150 L 125 150 L 125 149 L 126 149 L 126 147 L 127 147 L 127 146 L 128 146 L 128 144 L 129 144 L 129 142 L 130 142 L 130 140 L 131 140 L 131 136 L 132 136 L 132 132 L 133 132 L 133 117 L 132 117 L 132 111 L 131 111 L 131 107 L 130 107 L 130 104 L 129 104 L 129 101 L 128 101 L 128 98 L 127 98 L 127 95 L 126 95 L 126 93 L 125 93 L 125 90 L 124 90 L 124 87 L 123 87 L 123 84 L 122 84 L 122 82 L 121 82 L 121 79 L 120 79 L 120 76 L 119 76 L 119 72 L 118 72 L 118 53 L 119 53 L 119 50 L 120 50 L 120 48 L 119 48 L 119 49 L 117 49 L 117 50 L 114 50 L 114 51 L 110 51 L 110 52 L 106 52 L 106 50 L 109 50 L 109 49 L 112 49 L 112 48 L 116 48 L 116 47 L 118 47 L 118 46 L 115 46 L 115 47 L 111 47 L 111 48 L 87 48 L 87 47 L 84 47 L 84 46 L 81 46 L 81 45 L 78 45 L 78 44 L 76 44 L 76 43 L 73 43 L 73 42 L 71 42 L 71 41 L 69 41 L 69 40 L 68 40 L 68 39 L 66 39 L 66 38 L 64 38 L 64 37 L 63 37 L 63 36 L 61 36 L 61 35 L 59 35 L 59 34 L 56 34 L 56 33 L 54 33 L 54 32 L 55 32 L 55 31 L 58 31 L 58 32 L 62 32 L 62 33 L 65 33 L 65 34 L 67 34 L 67 35 L 70 35 L 70 36 L 72 36 L 72 37 L 74 37 L 74 38 L 77 38 L 77 39 L 79 39 L 79 40 L 82 40 L 82 41 L 85 41 L 85 42 L 89 42 L 89 43 L 109 43 L 109 42 L 115 42 L 115 41 L 118 41 L 118 40 L 122 40 L 122 39 L 123 39 L 123 38 L 124 38 L 124 37 L 125 37 L 125 36 L 126 36 L 126 35 L 124 35 L 124 34 L 122 34 L 122 35 L 118 35 L 118 36 L 114 36 L 114 37 L 108 37 L 108 38 L 93 38 L 93 37 L 87 37 L 87 36 L 84 36 L 84 35 L 81 35 L 81 34 L 79 34 L 79 33 L 76 33 L 76 32 L 74 32 L 74 31 L 71 31 L 71 30 L 69 30 L 69 29 L 66 29 L 66 28 L 63 28 L 63 27 Z M 46 31 L 45 31 L 45 32 L 46 32 Z M 120 45 L 119 45 L 119 47 L 121 47 L 121 45 Z M 130 49 L 129 49 L 129 50 L 127 50 L 127 51 L 125 51 L 125 52 L 127 52 L 127 53 L 129 53 L 129 55 L 128 55 L 128 56 L 130 56 L 130 55 L 140 55 L 140 56 L 143 56 L 143 57 L 145 57 L 145 58 L 146 58 L 146 59 L 148 59 L 148 61 L 149 61 L 149 62 L 150 62 L 150 64 L 151 64 L 151 66 L 152 66 L 152 70 L 153 70 L 153 80 L 152 80 L 152 85 L 151 85 L 151 89 L 150 89 L 150 91 L 149 91 L 149 94 L 148 94 L 148 96 L 147 96 L 147 97 L 146 97 L 146 99 L 145 99 L 145 101 L 144 101 L 144 102 L 143 102 L 143 103 L 142 103 L 142 105 L 141 105 L 141 106 L 140 106 L 140 107 L 141 107 L 141 109 L 140 109 L 140 110 L 139 110 L 139 111 L 138 111 L 138 113 L 139 113 L 139 112 L 140 112 L 140 111 L 141 111 L 141 110 L 142 110 L 142 109 L 143 109 L 143 108 L 144 108 L 144 107 L 146 107 L 146 109 L 147 109 L 147 107 L 148 107 L 148 106 L 149 106 L 149 104 L 150 104 L 150 103 L 151 103 L 151 101 L 152 101 L 152 99 L 153 99 L 153 97 L 154 97 L 154 95 L 155 95 L 155 93 L 156 93 L 156 90 L 157 90 L 157 87 L 158 87 L 158 83 L 159 83 L 159 66 L 158 66 L 158 63 L 157 63 L 157 61 L 156 61 L 156 59 L 155 59 L 155 57 L 154 57 L 154 56 L 153 56 L 153 55 L 152 55 L 152 54 L 151 54 L 151 53 L 150 53 L 150 52 L 148 52 L 148 51 L 147 51 L 147 50 L 145 50 L 145 49 Z M 115 51 L 117 51 L 117 53 L 116 53 L 116 54 L 113 54 L 113 53 L 114 53 L 114 52 L 115 52 Z M 127 53 L 126 53 L 126 54 L 127 54 Z M 59 53 L 60 53 L 60 54 L 61 54 L 61 73 L 60 73 L 60 75 L 59 75 L 59 76 L 58 76 L 58 71 L 59 71 Z M 125 54 L 124 54 L 124 56 L 125 56 L 125 55 L 126 55 L 126 54 Z M 110 54 L 111 54 L 111 55 L 112 55 L 112 56 L 110 56 Z M 114 55 L 117 55 L 117 56 L 116 56 L 116 57 L 115 57 L 115 66 L 116 66 L 116 73 L 117 73 L 117 75 L 115 75 L 115 74 L 114 74 L 114 71 L 113 71 L 113 57 L 114 57 Z M 109 58 L 112 58 L 112 59 L 111 59 L 111 60 L 109 60 Z M 134 59 L 133 59 L 133 60 L 130 60 L 130 61 L 129 61 L 129 62 L 127 62 L 127 63 L 126 63 L 126 64 L 125 64 L 125 65 L 124 65 L 124 67 L 123 67 L 123 69 L 124 69 L 124 73 L 125 73 L 125 76 L 126 76 L 126 79 L 127 79 L 127 82 L 128 82 L 128 84 L 129 84 L 129 87 L 130 87 L 130 89 L 131 89 L 131 92 L 132 92 L 132 95 L 133 95 L 133 98 L 134 98 L 134 100 L 135 100 L 135 103 L 137 103 L 137 102 L 138 102 L 138 101 L 139 101 L 139 100 L 140 100 L 140 98 L 141 98 L 141 97 L 142 97 L 142 95 L 143 95 L 143 93 L 144 93 L 144 91 L 145 91 L 145 89 L 146 89 L 146 85 L 147 85 L 147 78 L 148 78 L 148 73 L 147 73 L 147 67 L 146 67 L 146 65 L 145 65 L 145 64 L 144 64 L 144 63 L 143 63 L 143 62 L 142 62 L 142 61 L 140 61 L 140 60 L 137 60 L 137 59 Z M 109 66 L 110 66 L 110 67 L 111 67 L 111 71 L 109 71 Z M 111 77 L 112 77 L 112 78 L 113 78 L 113 80 L 112 80 L 112 79 L 111 79 Z M 56 79 L 58 79 L 58 81 L 57 81 L 57 82 L 56 82 Z M 117 79 L 118 79 L 118 80 L 119 80 L 119 83 L 120 83 L 120 87 L 119 87 L 119 86 L 118 86 L 118 84 L 117 84 Z M 89 95 L 95 95 L 95 96 L 105 96 L 105 97 L 106 97 L 106 98 L 91 98 L 91 97 L 86 97 L 86 96 L 89 96 Z M 72 96 L 79 96 L 79 98 L 71 98 L 71 97 L 72 97 Z M 116 97 L 115 97 L 115 98 L 118 98 L 118 97 Z M 126 105 L 127 105 L 127 106 L 128 106 L 128 107 L 129 107 L 129 110 L 130 110 L 130 115 L 131 115 L 131 134 L 130 134 L 130 137 L 129 137 L 129 140 L 128 140 L 128 143 L 127 143 L 127 144 L 126 144 L 126 145 L 125 145 L 125 146 L 124 146 L 124 147 L 123 147 L 123 148 L 122 148 L 122 149 L 121 149 L 121 150 L 120 150 L 120 151 L 119 151 L 119 152 L 118 152 L 118 150 L 119 150 L 119 148 L 120 148 L 120 147 L 121 147 L 121 146 L 122 146 L 122 144 L 123 144 L 123 143 L 124 143 L 124 141 L 125 141 L 125 139 L 126 139 L 126 136 L 127 136 L 127 133 L 128 133 L 128 126 L 129 126 L 129 121 L 128 121 L 128 114 L 127 114 L 127 109 L 126 109 Z M 140 107 L 139 107 L 139 108 L 140 108 Z M 46 108 L 48 108 L 48 110 L 47 110 L 47 114 L 46 114 L 46 113 L 45 113 L 45 111 L 46 111 Z M 146 109 L 145 109 L 145 110 L 146 110 Z M 145 110 L 144 110 L 144 111 L 145 111 Z M 144 111 L 143 111 L 143 112 L 144 112 Z M 123 111 L 124 111 L 124 112 L 125 112 L 125 116 L 123 116 L 123 114 L 122 114 L 122 112 L 123 112 Z M 143 112 L 142 112 L 142 113 L 143 113 Z M 141 113 L 140 113 L 140 114 L 138 114 L 138 116 L 140 116 L 140 115 L 141 115 L 141 114 L 142 114 L 142 113 Z M 52 114 L 56 114 L 56 117 L 54 117 L 54 118 L 53 118 L 53 120 L 52 120 L 52 125 L 50 125 L 50 117 L 51 117 L 51 115 L 52 115 Z M 123 118 L 125 118 L 125 120 L 124 120 L 124 119 L 123 119 Z M 106 120 L 109 120 L 109 122 L 108 122 L 108 123 L 106 123 Z M 44 125 L 46 125 L 46 129 L 45 129 L 45 130 L 44 130 Z M 74 125 L 77 125 L 77 126 L 78 126 L 78 127 L 77 127 L 77 129 L 73 129 L 73 126 L 74 126 Z M 51 127 L 52 127 L 52 129 L 53 129 L 53 131 L 54 131 L 54 134 L 55 134 L 55 136 L 54 136 L 54 137 L 53 137 L 53 136 L 52 136 L 52 134 L 51 134 Z M 119 133 L 122 133 L 122 138 L 121 138 L 121 139 L 120 139 L 120 141 L 117 141 L 117 137 L 118 137 L 118 135 L 119 135 Z M 46 136 L 47 136 L 47 137 L 48 137 L 48 138 L 49 138 L 49 140 L 50 140 L 50 142 L 51 142 L 51 143 L 52 143 L 52 144 L 53 144 L 53 145 L 54 145 L 54 146 L 55 146 L 55 147 L 56 147 L 56 148 L 57 148 L 57 149 L 58 149 L 58 151 L 56 151 L 56 150 L 55 150 L 55 149 L 53 149 L 53 148 L 52 148 L 52 147 L 51 147 L 51 146 L 50 146 L 50 145 L 49 145 L 49 143 L 48 143 L 48 142 L 47 142 L 47 139 L 46 139 Z M 97 142 L 99 142 L 99 144 L 98 144 L 98 145 L 96 145 L 96 143 L 97 143 Z M 63 143 L 65 143 L 65 144 L 66 144 L 66 145 L 67 145 L 67 146 L 66 146 L 66 147 L 64 147 L 64 146 L 63 146 Z M 116 145 L 117 145 L 117 147 L 116 147 L 116 148 L 115 148 L 115 149 L 113 149 L 113 150 L 110 150 L 110 149 L 111 149 L 111 148 L 112 148 L 112 147 L 113 147 L 113 146 L 116 146 Z M 139 150 L 142 150 L 142 152 L 139 152 Z M 89 151 L 102 151 L 102 152 L 112 152 L 112 153 L 114 153 L 114 155 L 113 155 L 113 156 L 110 156 L 110 157 L 107 157 L 107 158 L 102 158 L 102 159 L 90 159 L 90 160 L 86 160 L 86 158 L 90 158 L 90 157 L 99 157 L 99 156 L 105 156 L 105 155 L 107 155 L 107 154 L 83 154 L 83 153 L 81 153 L 81 152 L 89 152 Z M 70 152 L 73 152 L 73 153 L 74 153 L 74 154 L 68 154 L 68 153 L 70 153 Z M 62 153 L 63 153 L 63 154 L 67 154 L 67 155 L 71 155 L 71 156 L 75 156 L 75 157 L 78 157 L 78 159 L 73 159 L 73 158 L 68 158 L 68 157 L 65 157 L 65 156 L 63 156 L 63 155 L 61 155 L 61 154 L 62 154 Z"/>
</svg>
