<svg xmlns="http://www.w3.org/2000/svg" viewBox="0 0 192 192" role="img" aria-label="olio">
  <path fill="currentColor" fill-rule="evenodd" d="M 82 22 L 102 22 L 102 23 L 106 23 L 106 24 L 108 24 L 108 25 L 109 25 L 109 26 L 110 26 L 110 37 L 109 37 L 109 38 L 110 38 L 110 39 L 112 39 L 112 40 L 114 40 L 114 41 L 115 41 L 115 42 L 116 42 L 116 43 L 117 43 L 117 51 L 116 51 L 116 53 L 115 53 L 115 54 L 114 54 L 114 55 L 113 55 L 113 59 L 114 59 L 114 58 L 118 58 L 118 57 L 127 57 L 127 58 L 131 58 L 131 59 L 133 59 L 133 60 L 135 60 L 135 61 L 136 61 L 136 62 L 138 62 L 138 63 L 139 63 L 139 64 L 140 64 L 140 65 L 141 65 L 141 67 L 142 67 L 142 68 L 143 68 L 143 71 L 144 71 L 144 73 L 145 73 L 145 88 L 144 88 L 144 91 L 143 91 L 143 94 L 142 94 L 142 96 L 141 96 L 141 98 L 140 98 L 140 100 L 139 100 L 139 101 L 138 101 L 138 103 L 137 103 L 137 105 L 136 105 L 136 107 L 135 107 L 135 110 L 134 110 L 134 111 L 135 111 L 135 115 L 136 115 L 136 119 L 137 119 L 137 135 L 136 135 L 136 138 L 135 138 L 135 141 L 134 141 L 134 144 L 133 144 L 133 146 L 132 146 L 132 147 L 131 147 L 131 149 L 130 149 L 130 151 L 129 151 L 129 152 L 136 152 L 136 153 L 137 153 L 137 154 L 127 154 L 127 155 L 144 155 L 144 157 L 133 157 L 133 158 L 128 158 L 128 157 L 125 157 L 125 158 L 124 158 L 124 159 L 141 159 L 141 161 L 121 161 L 121 162 L 133 162 L 133 163 L 136 163 L 136 164 L 119 164 L 119 165 L 128 165 L 128 166 L 132 166 L 132 167 L 127 167 L 127 168 L 104 168 L 104 169 L 107 169 L 107 170 L 75 170 L 75 169 L 76 169 L 76 168 L 82 168 L 82 167 L 65 167 L 65 168 L 63 168 L 63 167 L 61 167 L 61 166 L 64 166 L 64 165 L 66 165 L 66 164 L 52 164 L 52 163 L 53 163 L 53 162 L 63 162 L 63 161 L 56 161 L 56 159 L 60 159 L 60 158 L 59 158 L 59 157 L 52 157 L 52 156 L 59 156 L 59 155 L 58 155 L 58 154 L 57 154 L 57 153 L 56 153 L 56 152 L 55 152 L 55 151 L 54 151 L 54 150 L 53 150 L 53 148 L 52 148 L 52 147 L 51 147 L 51 145 L 50 145 L 50 143 L 49 143 L 49 141 L 48 141 L 48 139 L 47 139 L 47 135 L 46 135 L 46 120 L 47 120 L 47 116 L 48 116 L 48 113 L 49 113 L 49 111 L 50 111 L 50 109 L 51 109 L 51 107 L 52 107 L 52 105 L 53 105 L 53 104 L 54 104 L 54 102 L 55 102 L 55 101 L 56 101 L 56 99 L 57 99 L 57 98 L 58 98 L 58 97 L 59 97 L 59 95 L 60 95 L 60 94 L 61 94 L 61 93 L 62 93 L 62 92 L 63 92 L 63 91 L 64 91 L 64 89 L 65 89 L 65 88 L 66 88 L 66 87 L 67 87 L 67 85 L 68 85 L 68 83 L 69 83 L 69 81 L 70 81 L 70 78 L 71 78 L 71 56 L 70 56 L 70 55 L 69 55 L 69 54 L 68 54 L 68 53 L 67 53 L 67 52 L 66 52 L 66 50 L 65 50 L 65 46 L 66 46 L 66 43 L 67 43 L 67 42 L 68 42 L 68 41 L 70 41 L 70 40 L 72 40 L 72 39 L 74 39 L 74 38 L 75 38 L 75 36 L 74 36 L 74 26 L 75 26 L 75 25 L 76 25 L 76 24 L 78 24 L 78 23 L 82 23 Z M 88 25 L 87 25 L 87 26 L 81 26 L 81 27 L 78 27 L 78 28 L 79 28 L 79 29 L 82 29 L 82 30 L 85 30 L 85 31 L 86 31 L 86 32 L 81 32 L 81 35 L 79 35 L 79 41 L 80 41 L 80 37 L 81 37 L 81 38 L 82 38 L 82 42 L 83 42 L 83 43 L 84 43 L 84 42 L 83 42 L 83 39 L 84 39 L 84 40 L 85 40 L 85 43 L 91 43 L 91 42 L 92 42 L 92 41 L 94 41 L 94 43 L 93 43 L 93 44 L 95 44 L 95 43 L 96 43 L 96 42 L 97 42 L 97 37 L 99 37 L 99 40 L 100 40 L 100 35 L 101 35 L 101 33 L 100 33 L 100 35 L 98 35 L 98 33 L 97 33 L 97 31 L 98 31 L 98 30 L 103 30 L 103 29 L 104 29 L 104 28 L 105 28 L 105 29 L 106 29 L 106 27 L 104 27 L 104 26 L 100 26 L 100 27 L 99 27 L 99 28 L 98 28 L 98 26 L 96 26 L 96 25 Z M 82 27 L 84 27 L 84 28 L 83 28 L 83 29 L 82 29 Z M 79 31 L 78 31 L 78 35 L 79 35 Z M 91 30 L 93 30 L 93 31 L 94 31 L 94 33 L 91 33 L 91 32 L 90 32 L 90 31 L 91 31 Z M 104 32 L 103 32 L 103 34 L 104 34 Z M 103 34 L 102 34 L 102 36 L 103 36 Z M 106 35 L 105 35 L 105 36 L 106 36 Z M 82 35 L 84 35 L 84 37 L 82 37 Z M 90 35 L 91 35 L 91 37 L 90 37 Z M 94 35 L 96 35 L 96 36 L 95 36 L 95 37 L 94 37 Z M 87 37 L 88 37 L 88 39 L 87 39 Z M 103 38 L 102 38 L 102 39 L 103 39 Z M 99 40 L 98 40 L 98 43 L 99 43 Z M 73 43 L 72 43 L 72 44 L 70 44 L 70 50 L 71 50 L 71 51 L 72 51 L 72 52 L 75 52 L 75 53 L 78 53 L 78 54 L 85 54 L 85 55 L 96 55 L 96 54 L 94 54 L 94 52 L 97 52 L 97 54 L 99 54 L 99 52 L 101 52 L 101 51 L 103 51 L 103 52 L 104 52 L 104 51 L 105 51 L 105 50 L 95 50 L 95 48 L 103 48 L 103 47 L 108 47 L 108 46 L 111 46 L 111 45 L 112 45 L 112 50 L 113 50 L 113 48 L 114 48 L 114 46 L 113 46 L 113 45 L 112 45 L 112 44 L 111 44 L 111 43 L 110 43 L 110 45 L 108 45 L 108 46 L 103 46 L 103 47 L 81 47 L 81 49 L 76 49 L 76 51 L 80 51 L 80 53 L 78 53 L 78 52 L 75 52 L 75 51 L 74 51 L 74 48 L 73 48 L 73 51 L 72 51 L 72 50 L 71 50 L 71 46 L 72 46 L 72 45 L 73 45 L 73 46 L 77 46 L 77 47 L 81 47 L 81 46 L 77 46 L 77 45 L 74 45 L 74 43 Z M 107 49 L 106 49 L 106 50 L 107 50 Z M 112 50 L 111 50 L 111 51 L 112 51 Z M 110 51 L 109 51 L 109 52 L 111 52 L 111 51 Z M 103 52 L 102 52 L 102 53 L 100 53 L 100 54 L 106 54 L 106 53 L 109 53 L 109 52 L 106 52 L 106 53 L 103 53 Z M 81 57 L 80 57 L 80 58 L 82 58 L 82 60 L 80 60 L 80 59 L 78 59 L 78 61 L 79 61 L 79 81 L 78 81 L 78 85 L 77 85 L 77 86 L 76 86 L 76 87 L 75 87 L 75 84 L 76 84 L 76 81 L 77 81 L 77 72 L 78 72 L 78 65 L 77 65 L 77 62 L 78 62 L 78 61 L 77 61 L 77 59 L 76 59 L 76 58 L 75 58 L 75 66 L 76 66 L 76 70 L 75 70 L 75 79 L 74 79 L 74 83 L 73 83 L 73 85 L 72 85 L 72 87 L 71 87 L 71 89 L 70 89 L 70 90 L 69 90 L 69 91 L 68 91 L 68 93 L 67 93 L 67 94 L 66 94 L 66 95 L 65 95 L 65 96 L 64 96 L 64 97 L 63 97 L 63 99 L 62 99 L 62 100 L 61 100 L 61 101 L 60 101 L 60 103 L 59 103 L 59 104 L 58 104 L 58 106 L 57 106 L 57 107 L 56 107 L 56 109 L 55 109 L 55 111 L 54 111 L 54 113 L 53 113 L 53 116 L 52 116 L 52 119 L 51 119 L 51 135 L 52 135 L 52 139 L 53 139 L 53 141 L 54 141 L 54 143 L 55 143 L 55 145 L 56 145 L 56 146 L 57 146 L 57 147 L 58 147 L 58 148 L 59 148 L 59 150 L 60 150 L 60 151 L 61 151 L 61 152 L 63 152 L 63 153 L 64 153 L 64 154 L 66 154 L 66 155 L 69 155 L 69 156 L 72 156 L 72 157 L 77 157 L 77 158 L 86 158 L 86 159 L 97 159 L 97 158 L 107 158 L 107 157 L 112 157 L 112 156 L 115 156 L 115 155 L 117 155 L 117 154 L 120 154 L 120 153 L 122 153 L 122 152 L 123 152 L 123 150 L 124 150 L 124 149 L 125 149 L 125 148 L 126 148 L 126 147 L 127 147 L 127 145 L 128 145 L 128 144 L 129 144 L 129 142 L 130 142 L 130 139 L 131 139 L 131 136 L 132 136 L 132 131 L 133 131 L 133 121 L 132 121 L 132 117 L 131 117 L 131 115 L 130 115 L 130 112 L 129 112 L 129 110 L 128 110 L 128 108 L 127 108 L 127 107 L 126 107 L 126 105 L 125 105 L 125 103 L 124 103 L 124 102 L 123 102 L 123 101 L 122 101 L 122 99 L 121 99 L 121 98 L 120 98 L 120 97 L 119 97 L 119 96 L 118 96 L 118 95 L 117 95 L 117 93 L 116 93 L 116 92 L 115 92 L 115 91 L 114 91 L 114 89 L 113 89 L 113 88 L 112 88 L 112 86 L 111 86 L 111 84 L 110 84 L 110 81 L 109 81 L 109 70 L 108 70 L 108 59 L 107 59 L 107 71 L 106 71 L 106 79 L 105 79 L 105 64 L 104 64 L 104 62 L 103 62 L 103 63 L 99 63 L 99 62 L 100 62 L 100 61 L 103 61 L 103 60 L 104 60 L 104 59 L 103 59 L 103 60 L 97 60 L 97 59 L 99 59 L 99 58 L 85 58 L 85 57 L 83 57 L 83 58 L 82 58 L 82 57 Z M 89 59 L 95 59 L 95 61 L 90 61 L 90 60 L 89 60 Z M 119 61 L 118 61 L 118 62 L 119 62 L 119 63 L 117 63 L 117 64 L 115 64 L 115 66 L 117 66 L 117 65 L 121 65 L 121 66 L 120 66 L 120 67 L 125 67 L 125 66 L 124 66 L 124 65 L 127 65 L 127 66 L 129 66 L 129 69 L 130 69 L 130 70 L 131 70 L 131 71 L 132 71 L 132 72 L 133 72 L 133 71 L 132 71 L 132 70 L 131 70 L 131 69 L 130 69 L 130 68 L 132 68 L 132 69 L 133 69 L 133 70 L 134 70 L 134 71 L 135 71 L 135 73 L 136 73 L 136 75 L 137 75 L 137 80 L 138 80 L 138 81 L 137 81 L 137 85 L 136 85 L 136 83 L 135 83 L 135 85 L 134 85 L 134 89 L 133 89 L 133 91 L 132 91 L 132 93 L 131 93 L 131 95 L 130 95 L 130 96 L 132 96 L 132 97 L 131 97 L 131 98 L 130 98 L 130 99 L 129 99 L 129 100 L 128 100 L 128 102 L 129 102 L 129 103 L 130 103 L 130 102 L 131 102 L 131 101 L 132 101 L 132 99 L 133 99 L 133 98 L 134 98 L 134 96 L 135 96 L 135 94 L 136 94 L 136 93 L 137 93 L 137 95 L 136 95 L 136 97 L 137 97 L 137 96 L 138 96 L 138 93 L 139 93 L 139 91 L 140 91 L 140 87 L 141 87 L 141 74 L 140 74 L 140 71 L 139 71 L 139 69 L 138 69 L 138 68 L 137 68 L 137 67 L 136 67 L 136 66 L 135 66 L 135 65 L 134 65 L 134 64 L 133 64 L 133 63 L 130 63 L 130 62 L 128 62 L 128 61 Z M 95 62 L 98 62 L 98 63 L 97 63 L 97 64 L 96 64 L 96 63 L 95 63 Z M 102 64 L 103 64 L 103 66 L 102 66 Z M 113 65 L 112 65 L 112 70 L 114 70 L 114 69 L 116 69 L 116 68 L 113 68 Z M 102 67 L 104 67 L 104 71 L 103 71 L 103 72 L 102 72 Z M 119 71 L 118 71 L 118 72 L 116 72 L 116 73 L 115 73 L 115 74 L 114 74 L 114 76 L 113 76 L 113 80 L 114 80 L 114 83 L 115 83 L 115 85 L 116 85 L 116 86 L 117 86 L 117 88 L 118 88 L 118 89 L 119 89 L 119 90 L 120 90 L 120 91 L 121 91 L 121 93 L 122 93 L 122 94 L 123 94 L 123 95 L 124 95 L 124 96 L 125 96 L 125 95 L 126 95 L 126 94 L 127 94 L 127 93 L 128 93 L 128 91 L 129 91 L 129 89 L 130 89 L 130 86 L 131 86 L 131 76 L 130 76 L 130 74 L 129 74 L 129 73 L 128 73 L 128 72 L 126 72 L 126 71 Z M 134 73 L 133 73 L 133 74 L 134 74 Z M 135 75 L 134 75 L 134 76 L 135 76 Z M 102 76 L 104 76 L 104 83 L 103 83 L 103 80 L 102 80 Z M 80 77 L 81 77 L 81 79 L 80 79 Z M 106 82 L 108 82 L 108 85 L 109 85 L 109 87 L 110 87 L 110 89 L 111 89 L 111 91 L 112 91 L 112 92 L 113 92 L 113 93 L 114 93 L 114 94 L 115 94 L 115 96 L 116 96 L 116 98 L 115 98 L 115 97 L 114 97 L 114 95 L 113 95 L 113 94 L 112 94 L 112 93 L 111 93 L 111 92 L 110 92 L 110 90 L 109 90 L 109 89 L 108 89 L 108 87 L 107 87 L 107 84 L 106 84 Z M 73 89 L 75 89 L 75 91 L 74 91 L 74 92 L 73 92 L 73 93 L 72 93 L 72 95 L 71 95 L 71 96 L 70 96 L 70 97 L 69 97 L 69 98 L 68 98 L 68 96 L 69 96 L 69 94 L 70 94 L 70 93 L 71 93 L 71 92 L 72 92 L 72 90 L 73 90 Z M 108 92 L 109 92 L 109 93 L 108 93 Z M 137 92 L 138 92 L 138 93 L 137 93 Z M 130 96 L 129 96 L 129 97 L 130 97 Z M 111 96 L 112 96 L 112 97 L 113 97 L 113 98 L 114 98 L 114 99 L 115 99 L 115 100 L 116 100 L 116 102 L 115 102 L 115 101 L 114 101 L 114 100 L 113 100 L 113 99 L 112 99 L 112 98 L 111 98 Z M 129 97 L 128 97 L 128 98 L 129 98 Z M 136 97 L 135 97 L 135 99 L 136 99 Z M 128 99 L 127 99 L 127 100 L 128 100 Z M 135 99 L 134 99 L 134 101 L 135 101 Z M 65 99 L 66 99 L 66 102 L 65 102 L 65 103 L 64 103 L 64 104 L 63 104 L 63 105 L 62 105 L 62 103 L 63 103 L 63 102 L 64 102 L 64 100 L 65 100 Z M 118 99 L 119 99 L 119 100 L 120 100 L 120 102 L 121 102 L 121 103 L 122 103 L 122 104 L 123 104 L 123 106 L 122 106 L 122 105 L 121 105 L 121 104 L 120 104 L 120 103 L 119 103 L 119 101 L 118 101 Z M 134 101 L 133 101 L 133 102 L 134 102 Z M 133 102 L 132 102 L 132 104 L 133 104 Z M 132 104 L 131 104 L 131 106 L 132 106 Z M 76 104 L 107 104 L 107 105 L 114 105 L 114 106 L 119 106 L 119 107 L 122 107 L 122 108 L 124 108 L 124 109 L 126 109 L 126 113 L 128 113 L 128 116 L 129 116 L 129 119 L 130 119 L 130 135 L 129 135 L 129 137 L 128 137 L 128 140 L 127 140 L 127 142 L 126 142 L 126 144 L 125 144 L 125 145 L 124 145 L 124 146 L 123 146 L 123 147 L 122 147 L 122 148 L 121 148 L 121 149 L 120 149 L 120 150 L 119 150 L 119 151 L 118 151 L 118 152 L 117 152 L 117 153 L 116 153 L 116 154 L 114 154 L 114 155 L 111 155 L 111 154 L 112 154 L 112 153 L 113 153 L 113 152 L 115 152 L 115 151 L 116 151 L 116 150 L 118 150 L 118 149 L 119 149 L 119 148 L 120 148 L 120 147 L 121 147 L 121 145 L 122 145 L 122 144 L 123 144 L 123 143 L 124 143 L 124 141 L 125 141 L 125 139 L 126 139 L 126 138 L 125 138 L 125 139 L 124 139 L 124 141 L 123 141 L 123 142 L 122 142 L 122 143 L 121 143 L 121 145 L 120 145 L 120 146 L 119 146 L 119 147 L 118 147 L 118 148 L 117 148 L 117 149 L 116 149 L 116 150 L 114 150 L 114 151 L 112 151 L 112 150 L 113 150 L 113 149 L 114 149 L 114 148 L 115 148 L 115 147 L 116 147 L 116 146 L 117 146 L 117 145 L 118 145 L 118 144 L 119 144 L 119 143 L 120 143 L 120 141 L 121 141 L 121 139 L 122 139 L 122 137 L 123 137 L 123 134 L 124 134 L 124 129 L 125 129 L 125 124 L 124 124 L 124 121 L 123 121 L 123 127 L 121 127 L 121 121 L 122 121 L 122 120 L 123 120 L 123 118 L 122 118 L 122 119 L 121 119 L 121 121 L 119 121 L 119 123 L 116 123 L 116 122 L 117 122 L 117 121 L 119 121 L 119 120 L 115 120 L 115 121 L 113 121 L 113 119 L 116 119 L 116 118 L 119 118 L 119 117 L 122 117 L 122 116 L 124 116 L 124 115 L 125 115 L 125 114 L 126 114 L 126 113 L 125 113 L 125 114 L 123 114 L 123 115 L 121 115 L 121 116 L 118 116 L 118 117 L 114 117 L 114 118 L 109 118 L 109 119 L 78 119 L 78 118 L 72 118 L 72 117 L 68 117 L 68 116 L 64 116 L 64 115 L 61 115 L 61 114 L 59 114 L 59 113 L 58 113 L 58 112 L 57 112 L 57 110 L 58 110 L 58 109 L 59 109 L 59 108 L 61 108 L 61 107 L 64 107 L 64 106 L 69 106 L 69 105 L 76 105 Z M 81 106 L 80 106 L 80 107 L 85 107 L 85 106 Z M 95 106 L 94 106 L 94 107 L 98 107 L 98 106 Z M 72 107 L 71 107 L 71 108 L 66 108 L 66 111 L 63 111 L 63 109 L 62 109 L 62 110 L 60 110 L 60 111 L 61 111 L 61 112 L 63 112 L 63 113 L 65 113 L 65 114 L 68 114 L 68 115 L 76 115 L 76 116 L 87 116 L 87 115 L 86 115 L 86 114 L 101 114 L 101 115 L 96 115 L 96 116 L 108 116 L 108 115 L 102 115 L 102 114 L 104 114 L 104 113 L 112 113 L 112 114 L 109 114 L 109 115 L 114 115 L 114 114 L 118 114 L 118 113 L 121 113 L 121 112 L 123 112 L 123 111 L 124 111 L 124 110 L 121 110 L 121 112 L 120 112 L 120 111 L 118 111 L 118 113 L 115 113 L 115 112 L 117 112 L 117 111 L 116 111 L 116 110 L 115 110 L 115 109 L 118 109 L 118 110 L 121 110 L 121 109 L 118 109 L 118 108 L 111 108 L 111 110 L 110 110 L 110 111 L 97 111 L 97 110 L 98 110 L 98 109 L 77 109 L 77 108 L 78 108 L 78 107 Z M 105 107 L 104 107 L 104 109 L 101 109 L 101 110 L 110 110 L 110 109 L 109 109 L 109 108 L 110 108 L 110 107 Z M 56 114 L 58 114 L 58 115 L 57 115 L 57 119 L 56 119 L 56 134 L 57 134 L 57 137 L 58 137 L 58 140 L 59 140 L 59 142 L 60 142 L 60 143 L 61 143 L 61 146 L 63 146 L 63 147 L 64 147 L 64 148 L 65 148 L 65 149 L 66 149 L 66 150 L 67 150 L 67 151 L 69 151 L 69 152 L 70 152 L 70 154 L 69 154 L 69 153 L 67 153 L 67 152 L 66 152 L 66 151 L 65 151 L 65 150 L 63 150 L 63 149 L 62 149 L 62 148 L 61 148 L 61 146 L 60 146 L 60 145 L 59 145 L 59 144 L 58 144 L 58 142 L 57 142 L 57 140 L 56 140 L 56 138 L 55 138 L 55 136 L 54 136 L 54 130 L 53 130 L 53 125 L 54 125 L 54 118 L 55 118 L 55 116 L 56 116 Z M 82 114 L 85 114 L 85 115 L 82 115 Z M 59 116 L 62 116 L 62 117 L 59 117 Z M 127 117 L 126 117 L 126 118 L 127 118 Z M 126 118 L 125 118 L 125 119 L 126 119 Z M 72 119 L 76 119 L 76 120 L 80 120 L 80 121 L 79 121 L 79 122 L 78 122 L 78 121 L 73 121 L 73 120 L 72 120 Z M 128 120 L 127 120 L 127 123 L 126 123 L 126 125 L 127 125 L 127 124 L 128 124 Z M 84 120 L 87 120 L 87 121 L 97 121 L 97 122 L 84 122 Z M 101 120 L 107 120 L 107 121 L 106 121 L 106 122 L 101 122 Z M 58 121 L 60 121 L 60 122 L 59 122 L 59 133 L 60 133 L 60 136 L 61 136 L 61 139 L 60 139 L 60 138 L 59 138 L 59 136 L 58 136 L 58 133 L 57 133 L 57 124 L 58 124 Z M 72 123 L 74 123 L 74 125 L 73 125 L 73 124 L 72 124 Z M 102 123 L 104 123 L 104 124 L 102 124 Z M 128 127 L 127 127 L 127 129 L 126 129 L 126 134 L 125 134 L 125 136 L 126 136 L 126 135 L 127 135 L 127 132 L 128 132 Z M 117 127 L 119 127 L 119 128 L 117 128 Z M 72 128 L 73 128 L 73 129 L 72 129 Z M 121 129 L 123 129 L 123 131 L 122 131 L 122 132 L 121 132 Z M 117 131 L 118 131 L 118 134 L 117 134 L 117 133 L 116 133 L 116 132 L 117 132 Z M 120 134 L 121 134 L 121 137 L 120 137 L 120 139 L 119 139 L 119 140 L 118 140 L 118 138 L 119 138 L 119 135 L 120 135 Z M 115 138 L 116 138 L 116 140 L 115 140 L 115 141 L 114 141 L 114 142 L 113 142 L 113 140 L 114 140 L 114 139 L 115 139 Z M 62 141 L 63 141 L 63 142 L 64 142 L 64 144 L 63 144 L 63 143 L 62 143 Z M 116 142 L 118 142 L 118 143 L 117 143 L 117 144 L 116 144 L 116 145 L 115 145 L 115 143 L 116 143 Z M 65 145 L 67 145 L 67 146 L 68 146 L 68 148 L 67 148 L 67 147 L 66 147 L 66 146 L 65 146 Z M 111 147 L 112 147 L 112 149 L 111 149 L 111 150 L 109 150 L 109 151 L 107 151 L 107 152 L 105 152 L 105 151 L 106 151 L 106 150 L 108 150 L 108 149 L 110 149 L 110 148 L 111 148 Z M 71 150 L 73 150 L 73 152 L 71 152 Z M 96 152 L 99 152 L 99 153 L 98 153 L 98 154 L 97 154 L 97 153 L 96 153 Z M 108 152 L 109 152 L 109 154 L 108 154 L 108 155 L 106 155 L 106 156 L 103 156 L 103 157 L 100 157 L 100 155 L 103 155 L 103 154 L 106 154 L 106 153 L 108 153 Z M 120 155 L 119 155 L 119 156 L 118 156 L 118 157 L 117 157 L 117 158 L 119 158 L 119 157 L 120 157 Z M 65 156 L 64 156 L 64 157 L 65 157 L 65 158 L 66 158 L 66 159 L 68 159 L 68 160 L 70 160 L 70 161 L 75 161 L 75 162 L 81 162 L 81 163 L 105 163 L 105 162 L 110 162 L 110 161 L 107 161 L 107 160 L 108 160 L 108 159 L 107 159 L 107 160 L 100 160 L 100 161 L 84 161 L 84 160 L 76 160 L 76 159 L 73 159 L 73 160 L 70 160 L 70 159 L 68 159 L 68 158 L 67 158 L 67 157 L 65 157 Z M 77 155 L 79 155 L 79 156 L 77 156 Z M 83 155 L 96 155 L 96 157 L 83 157 Z M 117 158 L 116 158 L 116 159 L 117 159 Z M 115 159 L 114 159 L 114 160 L 116 160 L 116 159 Z M 46 159 L 55 159 L 55 161 L 47 161 L 47 160 L 46 160 Z M 112 160 L 111 160 L 111 161 L 114 161 L 114 160 Z M 92 167 L 91 167 L 91 168 L 94 168 L 94 167 Z M 111 169 L 120 169 L 120 170 L 111 170 Z"/>
</svg>
