<svg xmlns="http://www.w3.org/2000/svg" viewBox="0 0 192 192" role="img" aria-label="sale">
  <path fill="currentColor" fill-rule="evenodd" d="M 84 22 L 105 22 L 105 23 L 110 23 L 110 24 L 114 24 L 114 25 L 116 25 L 116 26 L 118 26 L 118 27 L 120 27 L 120 28 L 122 28 L 122 29 L 123 29 L 123 30 L 124 30 L 124 31 L 125 31 L 125 32 L 126 32 L 126 33 L 127 33 L 127 34 L 128 34 L 128 36 L 129 36 L 129 38 L 130 38 L 130 49 L 129 49 L 129 55 L 130 55 L 130 57 L 131 57 L 131 64 L 130 64 L 130 66 L 129 66 L 129 70 L 130 70 L 130 71 L 131 71 L 131 73 L 132 73 L 132 75 L 133 75 L 133 79 L 134 79 L 134 84 L 135 84 L 135 89 L 136 89 L 136 96 L 137 96 L 137 102 L 138 102 L 138 109 L 139 109 L 139 116 L 140 116 L 140 123 L 141 123 L 141 131 L 142 131 L 142 148 L 141 148 L 141 150 L 147 150 L 147 152 L 140 152 L 140 153 L 153 153 L 153 155 L 138 155 L 138 156 L 136 156 L 136 157 L 152 157 L 152 158 L 151 158 L 151 159 L 131 159 L 131 160 L 136 160 L 136 161 L 147 161 L 147 162 L 146 162 L 146 163 L 123 163 L 123 164 L 121 164 L 121 165 L 125 165 L 125 164 L 132 164 L 132 165 L 139 165 L 139 166 L 133 166 L 133 167 L 62 167 L 62 165 L 70 165 L 70 164 L 67 164 L 67 163 L 47 163 L 47 161 L 60 161 L 60 160 L 57 160 L 57 159 L 39 159 L 39 157 L 54 157 L 54 156 L 53 156 L 53 155 L 50 155 L 50 154 L 44 154 L 44 153 L 45 153 L 45 152 L 50 152 L 50 151 L 49 151 L 49 148 L 48 148 L 48 141 L 47 141 L 47 139 L 48 139 L 48 126 L 49 126 L 49 117 L 50 117 L 50 108 L 51 108 L 51 101 L 52 101 L 52 94 L 53 94 L 53 87 L 54 87 L 54 81 L 55 81 L 55 77 L 56 77 L 56 75 L 57 75 L 57 72 L 58 72 L 58 71 L 59 71 L 59 65 L 58 65 L 58 57 L 59 57 L 59 54 L 60 54 L 60 52 L 59 52 L 59 49 L 58 49 L 58 38 L 59 38 L 59 36 L 60 36 L 60 35 L 61 35 L 61 33 L 62 33 L 62 32 L 63 32 L 63 31 L 64 31 L 64 30 L 66 30 L 66 29 L 67 29 L 67 28 L 68 28 L 68 27 L 71 27 L 71 26 L 73 26 L 73 25 L 76 25 L 76 24 L 79 24 L 79 23 L 84 23 Z M 86 26 L 85 26 L 85 27 L 86 27 L 86 28 L 87 28 L 87 29 L 86 29 L 86 30 L 81 30 L 81 28 L 82 28 L 82 27 L 80 27 L 80 28 L 77 28 L 77 29 L 74 29 L 74 30 L 72 30 L 72 31 L 70 31 L 70 32 L 69 32 L 69 33 L 67 33 L 67 34 L 66 34 L 66 35 L 65 35 L 65 36 L 64 36 L 64 38 L 63 38 L 63 41 L 64 41 L 64 42 L 65 42 L 65 43 L 66 43 L 66 44 L 67 44 L 67 45 L 69 45 L 69 46 L 71 46 L 71 47 L 74 47 L 74 48 L 78 48 L 78 49 L 84 49 L 84 50 L 104 50 L 104 49 L 112 49 L 112 50 L 111 50 L 111 51 L 108 51 L 108 52 L 103 52 L 103 53 L 79 53 L 79 52 L 75 52 L 75 51 L 72 51 L 72 50 L 69 50 L 69 49 L 67 49 L 67 50 L 68 50 L 68 52 L 67 52 L 67 53 L 69 53 L 69 54 L 70 54 L 70 55 L 73 55 L 73 56 L 74 56 L 74 57 L 75 57 L 75 58 L 70 58 L 70 57 L 68 57 L 68 56 L 67 56 L 67 58 L 69 58 L 69 59 L 70 59 L 70 60 L 69 60 L 69 61 L 71 61 L 71 62 L 75 62 L 75 63 L 78 63 L 78 64 L 84 64 L 84 65 L 105 65 L 105 64 L 110 64 L 110 63 L 114 63 L 114 62 L 113 62 L 113 60 L 116 60 L 116 59 L 117 59 L 117 58 L 116 58 L 116 59 L 112 59 L 112 60 L 106 60 L 106 61 L 84 61 L 84 60 L 79 60 L 79 59 L 78 59 L 78 58 L 97 58 L 97 57 L 106 57 L 106 56 L 111 56 L 111 55 L 114 55 L 114 54 L 117 54 L 117 52 L 116 52 L 116 53 L 114 53 L 114 54 L 113 54 L 113 52 L 114 52 L 114 51 L 118 51 L 118 49 L 119 49 L 119 48 L 117 48 L 117 49 L 114 49 L 114 48 L 115 48 L 115 47 L 116 47 L 116 46 L 118 46 L 118 45 L 120 45 L 120 44 L 121 44 L 121 43 L 123 43 L 123 41 L 124 41 L 124 36 L 123 36 L 123 35 L 122 35 L 122 34 L 121 34 L 121 33 L 120 33 L 120 32 L 118 32 L 118 31 L 117 31 L 117 30 L 114 30 L 114 29 L 112 29 L 112 28 L 109 28 L 109 27 L 106 27 L 106 28 L 107 28 L 107 30 L 103 30 L 103 29 L 102 29 L 102 28 L 103 28 L 103 27 L 104 27 L 104 26 L 95 26 L 95 27 L 97 27 L 97 29 L 95 29 L 95 30 L 93 30 L 93 29 L 92 29 L 92 27 L 94 27 L 94 26 Z M 88 31 L 91 31 L 91 32 L 92 32 L 92 34 L 88 34 Z M 98 31 L 101 31 L 101 32 L 102 32 L 102 34 L 98 34 L 98 33 L 97 33 L 97 32 L 98 32 Z M 76 32 L 79 32 L 79 33 L 80 33 L 80 36 L 78 36 L 78 37 L 75 37 L 75 36 L 74 36 L 74 33 L 76 33 Z M 109 32 L 114 32 L 114 33 L 115 33 L 115 35 L 114 35 L 114 36 L 110 36 L 110 35 L 109 35 Z M 102 36 L 104 36 L 104 37 L 106 37 L 106 40 L 105 40 L 105 41 L 101 41 L 101 40 L 100 40 L 100 37 L 102 37 Z M 86 37 L 91 37 L 91 38 L 92 38 L 92 40 L 91 40 L 91 41 L 89 41 L 89 42 L 88 42 L 88 41 L 86 41 L 86 39 L 85 39 L 85 38 L 86 38 Z M 121 37 L 123 37 L 123 41 L 122 41 L 122 42 L 121 42 L 121 41 L 120 41 L 120 40 L 121 40 Z M 65 39 L 66 39 L 66 41 L 67 41 L 67 43 L 66 43 L 66 42 L 65 42 Z M 118 42 L 120 42 L 120 43 L 119 43 L 119 44 L 117 44 L 117 43 L 118 43 Z M 126 43 L 125 43 L 125 46 L 126 46 Z M 122 46 L 121 46 L 121 47 L 120 47 L 120 48 L 121 48 L 121 49 L 122 49 L 122 47 L 123 47 L 123 46 Z M 110 46 L 111 46 L 111 47 L 110 47 Z M 125 47 L 124 47 L 124 48 L 125 48 Z M 64 48 L 63 48 L 63 49 L 64 49 Z M 67 48 L 66 48 L 66 49 L 67 49 Z M 65 50 L 64 50 L 64 51 L 65 51 Z M 121 50 L 120 50 L 120 51 L 119 51 L 119 52 L 121 52 Z M 69 51 L 71 51 L 71 52 L 73 52 L 73 54 L 71 54 L 71 53 L 70 53 L 70 52 L 69 52 Z M 119 52 L 118 52 L 118 53 L 119 53 Z M 108 53 L 111 53 L 111 54 L 110 54 L 110 55 L 107 55 L 107 54 L 108 54 Z M 65 55 L 64 55 L 64 57 L 65 57 Z M 68 59 L 67 59 L 67 60 L 69 60 L 69 59 Z M 119 60 L 118 60 L 118 61 L 119 61 Z M 116 61 L 115 61 L 115 62 L 117 62 L 117 61 Z M 63 62 L 62 62 L 62 64 L 63 64 L 63 65 L 64 65 L 64 66 L 65 66 L 65 67 L 66 67 L 66 68 L 68 68 L 68 69 L 70 69 L 70 70 L 73 70 L 73 71 L 75 71 L 75 73 L 71 73 L 71 72 L 68 72 L 68 73 L 66 73 L 66 71 L 65 71 L 65 70 L 64 70 L 64 71 L 63 71 L 63 73 L 62 73 L 62 75 L 61 75 L 61 78 L 60 78 L 60 81 L 59 81 L 59 87 L 58 87 L 58 93 L 57 93 L 57 100 L 56 100 L 56 108 L 55 108 L 55 116 L 54 116 L 54 125 L 53 125 L 53 147 L 54 147 L 54 149 L 55 149 L 55 150 L 56 150 L 56 151 L 57 151 L 57 152 L 58 152 L 58 153 L 59 153 L 59 154 L 60 154 L 60 155 L 62 155 L 62 156 L 64 156 L 64 157 L 66 157 L 66 158 L 69 158 L 69 159 L 72 159 L 72 160 L 76 160 L 76 161 L 81 161 L 81 162 L 109 162 L 109 161 L 114 161 L 114 160 L 117 160 L 117 159 L 121 159 L 121 158 L 123 158 L 123 157 L 125 157 L 125 156 L 127 156 L 127 155 L 129 155 L 129 154 L 131 154 L 131 153 L 132 153 L 132 152 L 133 152 L 133 151 L 134 151 L 134 150 L 135 150 L 135 148 L 136 148 L 136 146 L 137 146 L 137 129 L 136 129 L 136 121 L 135 121 L 135 114 L 134 114 L 134 107 L 133 107 L 133 101 L 132 101 L 132 95 L 131 95 L 131 88 L 130 88 L 130 83 L 129 83 L 129 79 L 128 79 L 128 76 L 127 76 L 127 74 L 126 74 L 126 72 L 125 72 L 125 70 L 123 70 L 123 73 L 121 73 L 121 74 L 119 74 L 119 75 L 116 75 L 116 74 L 117 74 L 117 73 L 119 73 L 119 72 L 117 72 L 117 73 L 114 73 L 114 74 L 112 74 L 112 73 L 111 73 L 111 72 L 113 72 L 113 71 L 115 71 L 115 70 L 118 70 L 118 69 L 120 69 L 120 68 L 122 68 L 122 67 L 123 67 L 123 66 L 122 66 L 122 67 L 120 67 L 120 68 L 118 68 L 118 69 L 115 69 L 115 68 L 117 68 L 117 67 L 119 67 L 119 66 L 116 66 L 116 67 L 113 67 L 113 68 L 108 68 L 108 69 L 109 69 L 109 71 L 105 71 L 105 72 L 103 72 L 103 70 L 107 70 L 107 69 L 102 69 L 102 70 L 87 70 L 87 69 L 80 69 L 80 68 L 75 68 L 75 67 L 72 67 L 72 66 L 69 66 L 69 67 L 71 67 L 71 69 L 70 69 L 70 68 L 68 68 L 68 67 L 66 67 L 66 66 L 65 66 L 65 65 L 64 65 L 64 64 L 65 64 L 65 63 L 63 63 Z M 108 61 L 111 61 L 111 62 L 110 62 L 110 63 L 106 63 L 106 62 L 108 62 Z M 126 62 L 125 62 L 125 65 L 126 65 L 126 63 L 127 63 L 127 62 Z M 101 62 L 105 62 L 105 63 L 104 63 L 104 64 L 100 64 L 100 63 L 101 63 Z M 67 64 L 66 64 L 66 65 L 67 65 Z M 69 65 L 68 65 L 68 66 L 69 66 Z M 125 65 L 124 65 L 124 66 L 125 66 Z M 81 73 L 108 73 L 108 75 L 102 75 L 102 76 L 87 76 L 87 75 L 81 75 Z M 65 74 L 67 74 L 67 76 L 66 76 L 66 78 L 65 78 L 65 82 L 64 82 L 64 87 L 63 87 L 63 94 L 62 94 L 62 102 L 61 102 L 61 106 L 62 106 L 62 105 L 64 105 L 64 104 L 66 104 L 66 103 L 70 103 L 70 104 L 69 104 L 69 105 L 67 105 L 67 106 L 65 106 L 65 107 L 63 107 L 63 108 L 62 108 L 62 110 L 61 110 L 61 114 L 60 114 L 60 123 L 59 123 L 59 132 L 58 132 L 58 144 L 59 144 L 59 146 L 60 146 L 60 147 L 61 147 L 61 148 L 62 148 L 62 149 L 63 149 L 63 150 L 65 150 L 65 151 L 67 151 L 67 152 L 70 152 L 70 153 L 72 153 L 72 154 L 75 154 L 75 155 L 76 155 L 76 156 L 75 156 L 75 157 L 74 157 L 74 156 L 70 156 L 70 155 L 67 155 L 67 154 L 65 154 L 65 153 L 63 153 L 63 152 L 61 152 L 61 151 L 60 151 L 60 150 L 59 150 L 59 149 L 58 149 L 58 148 L 57 148 L 57 147 L 56 147 L 56 144 L 55 144 L 55 134 L 56 134 L 56 124 L 57 124 L 57 115 L 58 115 L 58 107 L 59 107 L 59 98 L 60 98 L 60 90 L 61 90 L 61 84 L 62 84 L 62 79 L 63 79 L 63 77 L 64 77 L 64 75 L 65 75 Z M 122 74 L 123 74 L 123 75 L 124 75 L 124 76 L 125 76 L 125 78 L 126 78 L 126 81 L 127 81 L 127 87 L 128 87 L 128 93 L 129 93 L 129 99 L 130 99 L 130 106 L 131 106 L 131 113 L 132 113 L 132 121 L 133 121 L 133 129 L 134 129 L 134 137 L 135 137 L 135 143 L 134 143 L 134 146 L 133 146 L 133 147 L 132 147 L 132 149 L 131 149 L 131 150 L 130 150 L 130 151 L 128 151 L 128 152 L 130 152 L 130 153 L 129 153 L 129 154 L 128 154 L 128 152 L 127 152 L 127 153 L 125 153 L 125 154 L 122 154 L 122 155 L 119 155 L 119 156 L 116 156 L 116 157 L 113 157 L 113 155 L 115 155 L 115 154 L 118 154 L 118 153 L 120 153 L 120 152 L 123 152 L 123 151 L 125 151 L 125 150 L 126 150 L 126 149 L 128 149 L 128 148 L 129 148 L 129 147 L 130 147 L 130 146 L 131 146 L 131 144 L 132 144 L 132 135 L 131 135 L 131 128 L 130 128 L 130 119 L 129 119 L 129 113 L 128 113 L 128 109 L 127 109 L 127 106 L 128 106 L 128 104 L 127 104 L 127 96 L 126 96 L 126 90 L 125 90 L 125 84 L 124 84 L 124 80 L 123 80 L 123 77 L 122 77 Z M 103 76 L 105 76 L 105 78 L 101 78 L 101 77 L 103 77 Z M 68 78 L 69 78 L 69 80 L 68 80 L 68 81 L 66 81 L 66 80 L 67 80 L 67 79 L 68 79 Z M 120 79 L 122 79 L 122 81 L 123 81 L 123 84 L 121 84 L 121 81 L 120 81 Z M 66 83 L 67 83 L 67 90 L 66 90 L 66 98 L 65 98 L 65 101 L 64 101 L 64 90 L 65 90 L 65 84 L 66 84 Z M 122 87 L 124 87 L 124 92 L 125 92 L 125 101 L 124 101 L 124 98 L 123 98 L 123 91 L 122 91 Z M 84 98 L 86 98 L 86 99 L 91 99 L 91 98 L 99 98 L 99 99 L 103 99 L 103 98 L 106 98 L 106 99 L 109 99 L 109 100 L 113 100 L 113 101 L 115 101 L 115 102 L 120 102 L 120 103 L 121 103 L 121 104 L 116 104 L 116 103 L 113 103 L 113 102 L 106 102 L 106 101 L 101 101 L 101 102 L 100 102 L 100 101 L 97 101 L 97 100 L 92 100 L 92 101 L 83 101 L 83 102 L 81 102 L 81 103 L 80 103 L 80 102 L 78 102 L 78 103 L 75 103 L 75 104 L 73 104 L 73 102 L 74 102 L 74 101 L 76 101 L 76 100 L 81 100 L 81 99 L 84 99 Z M 122 103 L 124 103 L 124 104 L 125 104 L 125 105 L 126 105 L 126 106 L 123 106 L 123 105 L 122 105 Z M 99 104 L 100 104 L 100 106 L 99 106 Z M 94 105 L 95 105 L 95 107 L 94 107 Z M 111 107 L 112 107 L 112 108 L 113 108 L 113 109 L 111 109 Z M 75 108 L 77 108 L 77 110 L 75 110 Z M 115 108 L 116 108 L 116 110 L 115 110 Z M 84 109 L 86 109 L 86 110 L 84 110 Z M 97 110 L 99 110 L 99 111 L 98 111 L 98 112 L 97 112 Z M 105 111 L 107 111 L 107 112 L 105 112 Z M 125 111 L 126 111 L 126 113 L 125 113 L 125 114 L 124 114 L 124 112 L 125 112 Z M 64 112 L 65 112 L 65 114 L 64 114 Z M 67 114 L 70 114 L 70 115 L 71 115 L 71 116 L 68 116 L 68 115 L 67 115 Z M 119 114 L 121 114 L 121 116 L 119 116 Z M 76 116 L 78 116 L 78 118 L 76 118 Z M 112 116 L 113 116 L 113 118 L 111 118 L 111 117 L 112 117 Z M 82 118 L 84 118 L 84 119 L 82 119 Z M 90 118 L 92 118 L 92 119 L 94 119 L 94 120 L 90 120 Z M 103 118 L 106 118 L 106 119 L 105 119 L 105 120 L 103 120 Z M 125 118 L 127 118 L 127 120 L 126 120 L 126 119 L 125 119 Z M 63 120 L 64 120 L 64 121 L 65 121 L 65 122 L 63 122 Z M 124 124 L 125 124 L 125 125 L 126 125 L 126 126 L 124 126 Z M 70 125 L 72 125 L 72 127 L 71 127 L 71 128 L 70 128 Z M 116 125 L 118 125 L 118 127 L 116 127 Z M 94 126 L 95 126 L 95 128 L 93 128 L 93 127 L 94 127 Z M 106 130 L 108 130 L 108 132 L 106 132 Z M 126 130 L 128 130 L 128 132 L 126 132 Z M 83 132 L 84 132 L 84 133 L 85 133 L 85 134 L 83 134 Z M 104 133 L 106 133 L 106 135 L 104 135 Z M 63 134 L 65 134 L 65 137 L 63 137 Z M 119 138 L 122 138 L 122 140 L 121 140 L 121 141 L 119 141 Z M 82 139 L 84 139 L 84 141 L 83 141 L 83 140 L 82 140 Z M 69 142 L 70 142 L 70 144 L 69 144 Z M 62 144 L 64 144 L 64 146 L 65 146 L 65 148 L 64 148 L 64 147 L 63 147 L 63 146 L 62 146 Z M 126 144 L 127 144 L 127 146 L 126 146 L 126 147 L 124 147 L 124 146 L 125 146 L 125 145 L 126 145 Z M 114 146 L 115 146 L 115 148 L 113 148 L 113 147 L 114 147 Z M 69 147 L 71 147 L 71 149 L 70 149 L 70 148 L 69 148 Z M 94 147 L 95 147 L 95 150 L 94 150 L 94 149 L 93 149 L 93 148 L 94 148 Z M 75 148 L 76 148 L 76 149 L 77 149 L 77 151 L 76 151 L 76 150 L 75 150 Z M 112 149 L 113 149 L 113 151 L 112 151 Z M 105 151 L 106 151 L 106 152 L 107 152 L 107 153 L 104 153 L 104 152 L 105 152 Z M 78 155 L 80 155 L 80 156 L 92 156 L 92 157 L 99 157 L 99 156 L 109 156 L 109 158 L 104 158 L 104 159 L 85 159 L 85 158 L 79 158 L 79 157 L 78 157 Z M 77 168 L 109 168 L 109 170 L 77 170 Z M 114 168 L 122 168 L 122 169 L 123 169 L 123 170 L 114 170 Z"/>
</svg>
