<svg xmlns="http://www.w3.org/2000/svg" viewBox="0 0 192 192" role="img" aria-label="starter">
  <path fill="currentColor" fill-rule="evenodd" d="M 70 22 L 116 22 L 116 23 L 124 23 L 124 24 L 129 24 L 129 25 L 132 25 L 132 26 L 135 26 L 135 27 L 137 27 L 137 28 L 138 28 L 138 29 L 139 29 L 139 30 L 140 30 L 140 32 L 141 32 L 141 37 L 142 37 L 142 41 L 141 41 L 141 45 L 140 45 L 140 49 L 141 49 L 141 50 L 142 50 L 142 51 L 143 51 L 143 52 L 144 52 L 144 53 L 145 53 L 145 54 L 146 54 L 146 55 L 147 55 L 147 56 L 148 56 L 148 57 L 149 57 L 149 58 L 150 58 L 150 59 L 151 59 L 151 60 L 152 60 L 152 62 L 153 62 L 153 65 L 152 65 L 152 67 L 150 67 L 150 68 L 148 68 L 148 69 L 146 69 L 146 70 L 145 70 L 145 71 L 146 71 L 146 74 L 147 74 L 147 77 L 148 77 L 148 81 L 149 81 L 149 97 L 150 97 L 150 139 L 149 139 L 149 146 L 148 146 L 148 150 L 155 150 L 155 151 L 154 151 L 154 152 L 153 152 L 153 151 L 150 151 L 150 152 L 148 152 L 148 153 L 162 153 L 162 155 L 151 155 L 151 156 L 150 156 L 150 157 L 142 157 L 142 158 L 159 158 L 159 159 L 153 159 L 153 160 L 136 160 L 136 161 L 149 161 L 149 162 L 152 162 L 152 163 L 137 163 L 137 164 L 136 164 L 136 163 L 135 163 L 135 164 L 134 164 L 134 163 L 131 163 L 131 164 L 123 164 L 123 165 L 143 165 L 143 167 L 58 167 L 58 168 L 55 168 L 55 167 L 52 167 L 52 165 L 63 165 L 63 164 L 50 164 L 50 163 L 38 163 L 38 162 L 41 162 L 41 161 L 49 161 L 49 160 L 32 160 L 32 159 L 30 159 L 30 158 L 44 158 L 44 157 L 43 157 L 43 156 L 35 156 L 35 155 L 34 155 L 34 154 L 40 154 L 40 152 L 39 152 L 39 151 L 38 151 L 38 149 L 37 149 L 37 145 L 36 145 L 36 83 L 37 83 L 37 78 L 38 78 L 38 75 L 39 75 L 39 71 L 38 71 L 38 70 L 36 70 L 36 69 L 35 69 L 35 68 L 34 68 L 34 67 L 33 67 L 33 66 L 32 66 L 32 65 L 31 65 L 31 63 L 32 63 L 32 62 L 33 62 L 33 61 L 34 61 L 34 60 L 35 60 L 35 59 L 36 59 L 36 58 L 37 58 L 37 57 L 38 57 L 38 56 L 39 56 L 39 55 L 40 55 L 40 54 L 41 54 L 41 53 L 42 53 L 42 52 L 43 52 L 43 51 L 44 51 L 44 50 L 45 50 L 45 49 L 46 49 L 46 45 L 45 45 L 45 33 L 46 33 L 46 31 L 47 31 L 47 30 L 48 30 L 48 28 L 50 28 L 50 27 L 52 27 L 52 26 L 54 26 L 54 25 L 57 25 L 57 24 L 63 24 L 63 23 L 70 23 Z M 72 26 L 71 26 L 71 27 L 64 27 L 64 28 L 59 28 L 59 29 L 55 29 L 55 30 L 53 30 L 53 31 L 51 31 L 51 32 L 50 32 L 50 35 L 49 35 L 49 43 L 50 43 L 50 45 L 51 45 L 51 46 L 52 46 L 52 47 L 53 47 L 53 45 L 52 45 L 52 42 L 51 42 L 51 41 L 52 41 L 52 40 L 53 40 L 53 42 L 54 42 L 54 45 L 55 45 L 55 47 L 56 47 L 56 48 L 58 48 L 58 49 L 61 49 L 61 50 L 64 50 L 64 49 L 63 49 L 63 46 L 62 46 L 62 44 L 64 44 L 64 46 L 65 46 L 65 48 L 66 48 L 66 49 L 67 49 L 67 50 L 68 50 L 68 51 L 72 51 L 72 52 L 82 52 L 82 49 L 81 49 L 81 47 L 83 47 L 83 49 L 84 49 L 84 52 L 86 52 L 86 53 L 87 53 L 87 52 L 91 52 L 91 53 L 95 53 L 95 52 L 102 52 L 102 53 L 103 53 L 103 52 L 105 52 L 105 51 L 106 51 L 106 49 L 107 49 L 107 47 L 108 47 L 108 46 L 109 46 L 109 50 L 108 50 L 108 52 L 114 52 L 114 51 L 118 51 L 118 50 L 120 50 L 120 49 L 121 49 L 121 47 L 122 47 L 122 44 L 123 44 L 123 43 L 125 43 L 125 45 L 124 45 L 124 48 L 123 48 L 123 50 L 125 50 L 125 49 L 128 49 L 128 48 L 129 48 L 129 46 L 130 46 L 130 43 L 131 43 L 131 42 L 132 42 L 132 45 L 133 45 L 133 43 L 134 43 L 134 38 L 135 38 L 135 39 L 136 39 L 136 41 L 135 41 L 135 45 L 134 45 L 134 46 L 136 46 L 136 44 L 137 44 L 137 34 L 136 34 L 136 32 L 135 32 L 135 31 L 134 31 L 134 30 L 131 30 L 131 29 L 128 29 L 128 28 L 123 28 L 123 27 L 115 27 L 115 26 Z M 133 33 L 134 33 L 134 35 L 132 35 L 132 34 L 133 34 Z M 53 34 L 55 34 L 55 35 L 56 35 L 56 36 L 54 36 L 54 35 L 53 35 Z M 129 35 L 130 35 L 130 37 L 129 37 L 129 38 L 127 38 L 127 36 L 129 36 Z M 58 36 L 61 36 L 61 37 L 65 37 L 65 38 L 66 38 L 66 39 L 61 39 L 61 38 L 58 38 Z M 122 37 L 124 37 L 124 39 L 121 39 L 121 40 L 119 40 L 119 38 L 122 38 Z M 70 39 L 71 39 L 71 40 L 70 40 Z M 83 40 L 90 40 L 90 42 L 86 42 L 86 41 L 83 41 Z M 105 40 L 109 40 L 109 41 L 105 41 Z M 133 46 L 132 46 L 132 47 L 134 47 L 134 46 Z M 126 46 L 128 46 L 128 47 L 127 47 L 127 48 L 126 48 Z M 118 47 L 120 47 L 120 48 L 119 48 L 119 49 L 117 49 L 117 48 L 118 48 Z M 67 48 L 69 48 L 69 49 L 67 49 Z M 56 51 L 55 51 L 55 52 L 56 52 Z M 86 50 L 87 50 L 87 51 L 86 51 Z M 103 50 L 105 50 L 105 51 L 103 51 Z M 58 52 L 57 52 L 57 53 L 60 53 L 60 52 Z M 127 52 L 126 52 L 126 53 L 128 53 L 128 52 Z M 48 53 L 47 53 L 47 54 L 46 54 L 46 55 L 45 55 L 45 56 L 43 56 L 43 57 L 42 57 L 42 58 L 41 58 L 41 59 L 40 59 L 40 60 L 39 60 L 39 61 L 38 61 L 38 62 L 37 62 L 37 63 L 36 63 L 36 65 L 37 65 L 37 66 L 39 66 L 39 67 L 45 67 L 45 66 L 52 66 L 52 67 L 55 67 L 55 68 L 57 68 L 57 69 L 58 69 L 58 70 L 60 70 L 60 71 L 61 71 L 61 72 L 63 72 L 63 73 L 65 73 L 65 74 L 68 74 L 68 75 L 73 75 L 73 74 L 76 74 L 76 73 L 78 73 L 78 72 L 81 72 L 81 71 L 86 71 L 86 70 L 89 70 L 89 71 L 93 71 L 93 72 L 96 72 L 96 73 L 98 73 L 98 74 L 101 74 L 101 75 L 104 75 L 104 76 L 111 76 L 111 75 L 113 75 L 113 74 L 115 74 L 115 73 L 117 73 L 117 72 L 120 72 L 120 71 L 127 71 L 127 72 L 132 72 L 132 71 L 134 71 L 134 70 L 135 70 L 135 69 L 136 69 L 136 68 L 137 68 L 137 67 L 139 67 L 139 66 L 142 66 L 142 65 L 147 65 L 147 64 L 148 64 L 148 62 L 147 62 L 147 61 L 146 61 L 146 60 L 145 60 L 145 59 L 144 59 L 144 58 L 143 58 L 143 57 L 142 57 L 142 56 L 141 56 L 141 55 L 140 55 L 140 54 L 139 54 L 139 53 L 136 53 L 136 54 L 138 54 L 138 55 L 139 55 L 139 56 L 136 56 L 136 54 L 134 54 L 134 56 L 135 56 L 135 57 L 136 57 L 136 59 L 134 59 L 134 60 L 135 60 L 135 62 L 136 62 L 136 63 L 137 63 L 137 65 L 138 65 L 138 66 L 136 66 L 136 65 L 135 65 L 135 64 L 134 64 L 134 63 L 133 63 L 133 62 L 132 62 L 132 60 L 131 60 L 131 59 L 130 59 L 130 58 L 129 58 L 129 57 L 123 57 L 123 58 L 117 58 L 117 59 L 114 59 L 114 61 L 115 61 L 115 63 L 116 63 L 116 67 L 117 67 L 117 71 L 116 71 L 116 70 L 115 70 L 115 67 L 114 67 L 114 64 L 113 64 L 113 62 L 112 62 L 112 60 L 110 60 L 110 59 L 109 59 L 109 60 L 98 60 L 98 65 L 99 65 L 99 70 L 100 70 L 100 72 L 98 72 L 98 70 L 97 70 L 97 66 L 96 66 L 96 62 L 95 62 L 95 60 L 83 60 L 83 62 L 82 62 L 82 65 L 81 65 L 81 66 L 79 66 L 79 64 L 80 64 L 80 62 L 81 62 L 81 60 L 76 60 L 76 59 L 67 59 L 67 60 L 66 60 L 66 62 L 65 62 L 65 63 L 64 63 L 64 64 L 63 64 L 63 62 L 64 62 L 64 60 L 65 60 L 65 58 L 63 58 L 63 57 L 59 57 L 59 56 L 54 56 L 54 57 L 53 57 L 53 58 L 52 58 L 52 59 L 51 59 L 51 60 L 49 60 L 49 59 L 50 59 L 50 57 L 51 57 L 51 56 L 52 56 L 52 54 L 51 54 L 51 55 L 50 55 L 50 56 L 49 56 L 49 57 L 48 57 L 48 55 L 49 55 L 49 54 L 50 54 L 50 53 Z M 62 53 L 61 53 L 61 54 L 64 54 L 64 53 Z M 123 53 L 122 53 L 122 54 L 124 54 L 124 53 Z M 66 54 L 65 54 L 65 55 L 70 55 L 70 54 Z M 117 54 L 116 54 L 116 55 L 120 55 L 120 54 Z M 74 55 L 73 55 L 73 56 L 81 56 L 81 55 Z M 107 55 L 106 55 L 106 56 L 113 56 L 113 55 Z M 84 56 L 83 56 L 83 57 L 105 57 L 105 56 Z M 134 58 L 133 58 L 133 59 L 134 59 Z M 126 58 L 128 58 L 128 60 L 127 60 L 127 59 L 126 59 Z M 116 60 L 117 60 L 117 61 L 118 61 L 118 63 L 119 63 L 119 64 L 117 64 L 117 63 L 116 63 Z M 47 61 L 49 61 L 49 62 L 48 62 L 48 63 L 47 63 L 47 64 L 46 64 L 46 65 L 45 65 L 45 63 L 46 63 L 46 62 L 47 62 Z M 67 61 L 69 61 L 69 62 L 67 62 Z M 77 61 L 79 61 L 79 63 L 78 63 L 78 64 L 77 64 Z M 109 61 L 111 61 L 111 63 L 110 63 L 110 62 L 109 62 Z M 99 63 L 101 63 L 101 65 L 100 65 L 100 64 L 99 64 Z M 138 63 L 140 63 L 140 65 L 139 65 L 139 64 L 138 64 Z M 132 65 L 133 65 L 133 67 L 132 67 Z M 61 66 L 63 66 L 63 68 L 62 68 L 62 69 L 61 69 Z M 79 67 L 80 67 L 80 70 L 79 70 L 79 71 L 78 71 L 78 68 L 79 68 Z M 119 67 L 120 67 L 120 69 L 119 69 Z M 46 71 L 45 71 L 45 72 L 44 72 L 44 75 L 43 75 L 43 77 L 42 77 L 42 82 L 41 82 L 41 98 L 40 98 L 40 130 L 41 130 L 41 145 L 42 145 L 42 148 L 43 148 L 43 150 L 44 150 L 44 151 L 45 151 L 45 152 L 46 152 L 46 153 L 48 153 L 48 154 L 49 154 L 49 155 L 51 155 L 51 156 L 53 156 L 53 157 L 56 157 L 56 158 L 59 158 L 59 159 L 63 159 L 63 160 L 68 160 L 68 161 L 75 161 L 75 162 L 111 162 L 111 161 L 118 161 L 118 160 L 123 160 L 123 159 L 127 159 L 127 158 L 130 158 L 130 157 L 132 157 L 132 156 L 134 156 L 134 155 L 136 155 L 136 154 L 138 154 L 138 153 L 139 153 L 139 152 L 140 152 L 140 151 L 141 151 L 141 150 L 142 150 L 142 148 L 143 148 L 143 146 L 144 146 L 144 140 L 145 140 L 145 89 L 144 89 L 144 80 L 143 80 L 143 76 L 142 76 L 142 74 L 141 74 L 141 71 L 139 71 L 139 72 L 138 72 L 138 74 L 135 74 L 135 75 L 132 75 L 132 76 L 118 76 L 118 77 L 116 77 L 116 78 L 114 78 L 114 79 L 111 79 L 111 80 L 103 80 L 103 79 L 100 79 L 100 78 L 97 78 L 97 77 L 95 77 L 95 76 L 93 76 L 93 75 L 82 75 L 82 76 L 79 76 L 79 77 L 77 77 L 77 78 L 64 78 L 64 77 L 62 77 L 62 76 L 60 76 L 60 75 L 59 75 L 59 74 L 57 74 L 57 73 L 56 73 L 56 72 L 54 72 L 54 71 L 50 71 L 50 72 L 49 72 L 49 75 L 48 75 L 48 78 L 47 78 L 47 82 L 46 82 L 46 88 L 45 88 L 45 102 L 46 102 L 46 101 L 49 101 L 49 100 L 52 100 L 52 99 L 55 99 L 55 98 L 61 98 L 61 97 L 64 97 L 64 96 L 77 96 L 77 95 L 79 95 L 79 94 L 87 94 L 87 95 L 93 95 L 93 94 L 95 94 L 95 95 L 110 95 L 110 96 L 120 96 L 120 97 L 122 97 L 122 98 L 130 98 L 130 99 L 132 99 L 132 101 L 130 101 L 130 100 L 122 100 L 122 99 L 119 99 L 119 98 L 114 98 L 114 99 L 112 99 L 112 98 L 105 98 L 105 97 L 101 97 L 101 98 L 98 98 L 98 97 L 91 97 L 91 98 L 89 98 L 89 97 L 86 97 L 86 96 L 80 96 L 80 97 L 78 97 L 78 98 L 77 98 L 77 99 L 69 99 L 69 98 L 64 98 L 64 99 L 62 99 L 62 100 L 60 100 L 60 101 L 53 101 L 53 102 L 49 102 L 49 103 L 47 103 L 47 104 L 46 104 L 46 105 L 45 105 L 45 133 L 43 133 L 43 86 L 44 86 L 44 80 L 45 80 L 45 77 L 46 77 L 46 75 L 47 75 L 47 73 L 48 73 L 48 72 L 49 72 L 49 71 Z M 138 75 L 139 75 L 139 76 L 140 76 L 140 78 L 141 78 L 141 82 L 142 82 L 142 99 L 143 99 L 143 126 L 142 126 L 142 133 L 141 133 L 141 128 L 140 128 L 140 121 L 141 121 L 141 120 L 140 120 L 140 105 L 139 105 L 139 103 L 138 103 L 138 102 L 135 102 L 135 100 L 137 100 L 137 101 L 139 101 L 139 102 L 140 102 L 140 85 L 139 85 L 139 78 L 138 78 Z M 50 77 L 51 77 L 51 80 L 49 80 L 49 78 L 50 78 Z M 135 78 L 136 78 L 136 79 L 137 79 L 137 81 L 135 81 Z M 48 81 L 49 81 L 49 82 L 50 82 L 50 84 L 49 84 L 49 92 L 48 92 L 48 93 L 47 93 L 47 84 L 48 84 Z M 137 84 L 138 84 L 138 87 L 139 87 L 139 97 L 137 97 Z M 47 95 L 49 95 L 49 96 L 48 96 L 48 98 L 47 98 Z M 100 100 L 102 100 L 102 101 L 100 101 Z M 91 101 L 94 101 L 94 103 L 91 103 Z M 115 102 L 117 102 L 117 103 L 118 103 L 118 104 L 115 104 Z M 64 103 L 66 103 L 66 105 L 63 105 L 63 104 L 64 104 Z M 124 103 L 127 103 L 127 105 L 124 105 Z M 57 104 L 59 104 L 59 105 L 57 105 Z M 72 104 L 74 104 L 74 105 L 73 105 L 73 106 L 72 106 Z M 95 105 L 99 105 L 99 107 L 95 107 Z M 105 105 L 108 105 L 108 106 L 107 106 L 107 107 L 106 107 L 106 106 L 105 106 Z M 48 107 L 50 107 L 50 108 L 48 108 Z M 80 107 L 84 107 L 84 108 L 85 108 L 85 109 L 86 109 L 86 113 L 85 113 L 85 114 L 83 114 L 83 115 L 81 115 L 81 114 L 79 114 L 79 112 L 78 112 L 78 109 L 79 109 L 79 108 L 80 108 Z M 136 107 L 138 107 L 138 108 L 137 108 L 137 109 L 134 109 L 134 108 L 136 108 Z M 52 108 L 54 108 L 54 110 L 53 110 L 53 109 L 52 109 Z M 82 109 L 81 109 L 81 110 L 80 110 L 80 111 L 81 111 L 81 112 L 84 112 L 84 110 L 83 110 L 83 109 Z M 118 108 L 121 108 L 121 109 L 122 109 L 122 110 L 123 110 L 123 112 L 122 112 L 122 113 L 120 113 L 120 114 L 119 114 L 119 113 L 117 113 L 117 112 L 116 112 L 116 111 L 117 111 L 117 110 L 118 110 Z M 59 109 L 60 109 L 60 111 L 59 111 Z M 120 110 L 119 110 L 119 111 L 120 111 Z M 128 109 L 130 109 L 130 110 L 129 110 L 129 111 L 128 111 Z M 66 110 L 67 110 L 67 111 L 68 111 L 68 112 L 66 112 Z M 92 112 L 94 112 L 94 114 L 92 114 Z M 101 112 L 102 112 L 102 113 L 103 113 L 103 114 L 101 114 Z M 49 114 L 50 114 L 50 117 L 49 117 Z M 135 114 L 136 114 L 136 116 L 135 116 Z M 59 116 L 60 116 L 60 117 L 62 117 L 62 118 L 63 118 L 63 120 L 64 120 L 64 123 L 63 123 L 63 124 L 62 124 L 62 125 L 60 125 L 60 126 L 59 126 L 59 125 L 56 125 L 56 123 L 55 123 L 55 119 L 56 119 L 56 117 L 59 117 Z M 59 119 L 58 119 L 58 120 L 57 120 L 57 123 L 61 123 L 61 119 Z M 130 118 L 131 118 L 131 119 L 132 119 L 132 122 L 129 122 L 129 119 L 130 119 Z M 102 119 L 107 119 L 107 120 L 108 120 L 108 121 L 109 121 L 109 127 L 108 127 L 108 128 L 106 128 L 106 129 L 103 129 L 103 128 L 101 128 L 101 127 L 100 127 L 100 126 L 99 126 L 99 122 L 100 122 L 100 121 L 101 121 L 101 120 L 102 120 Z M 90 120 L 91 120 L 91 121 L 90 121 Z M 104 121 L 103 121 L 103 122 L 102 122 L 102 123 L 101 123 L 101 125 L 102 125 L 102 126 L 107 126 L 107 122 L 106 122 L 106 121 Z M 75 123 L 78 123 L 78 124 L 79 124 L 79 127 L 78 127 L 78 128 L 75 128 L 75 126 L 74 126 L 74 124 L 75 124 Z M 117 123 L 119 123 L 119 124 L 118 124 L 118 125 L 117 125 Z M 87 128 L 89 128 L 89 131 L 87 131 Z M 135 128 L 137 128 L 137 129 L 135 129 Z M 48 129 L 50 129 L 50 131 L 48 131 Z M 124 130 L 127 130 L 127 131 L 128 131 L 128 132 L 129 132 L 129 133 L 130 133 L 130 136 L 129 136 L 129 137 L 128 137 L 128 138 L 127 138 L 127 139 L 124 139 L 124 138 L 122 138 L 122 136 L 121 136 L 121 133 L 122 133 L 122 132 L 123 132 L 123 131 L 124 131 Z M 66 131 L 67 131 L 67 132 L 68 132 L 68 133 L 66 133 Z M 126 132 L 125 132 L 125 133 L 124 133 L 124 134 L 123 134 L 123 135 L 124 135 L 124 136 L 125 136 L 125 137 L 126 137 L 126 136 L 127 136 L 127 133 L 126 133 Z M 112 132 L 113 132 L 113 134 L 111 134 L 111 133 L 112 133 Z M 56 136 L 59 136 L 59 138 L 60 138 L 60 139 L 59 139 L 59 141 L 56 141 L 56 140 L 55 140 L 55 139 L 54 139 L 54 138 L 55 138 L 55 137 L 56 137 Z M 141 136 L 142 136 L 142 138 L 143 138 L 143 140 L 142 140 L 142 144 L 141 144 L 141 146 L 140 146 L 140 148 L 139 148 L 139 149 L 138 149 L 138 150 L 137 150 L 137 151 L 136 151 L 136 152 L 135 152 L 135 153 L 133 153 L 133 154 L 131 154 L 131 155 L 128 155 L 128 156 L 124 156 L 124 157 L 119 157 L 119 158 L 113 158 L 113 159 L 110 159 L 110 157 L 113 157 L 113 156 L 118 156 L 118 155 L 122 155 L 122 154 L 128 154 L 128 153 L 130 153 L 130 152 L 131 152 L 131 151 L 133 151 L 133 150 L 135 150 L 135 149 L 136 149 L 136 148 L 137 148 L 137 147 L 138 147 L 138 145 L 139 145 L 139 143 L 140 143 L 140 138 L 141 138 Z M 43 137 L 45 137 L 45 141 L 46 141 L 46 144 L 47 144 L 47 146 L 48 146 L 48 148 L 49 148 L 49 149 L 51 149 L 51 150 L 52 150 L 52 151 L 54 151 L 54 152 L 55 152 L 55 153 L 57 153 L 57 154 L 58 154 L 58 155 L 55 155 L 55 154 L 52 154 L 52 153 L 51 153 L 51 152 L 49 152 L 49 151 L 48 151 L 48 150 L 47 150 L 47 149 L 46 149 L 46 148 L 45 148 L 45 145 L 44 145 L 44 142 L 43 142 Z M 77 137 L 79 137 L 79 138 L 81 138 L 81 139 L 82 139 L 82 141 L 83 141 L 83 143 L 82 143 L 82 145 L 81 145 L 81 146 L 75 146 L 75 144 L 74 144 L 74 139 L 75 139 L 75 138 L 77 138 Z M 100 137 L 101 137 L 101 138 L 102 138 L 102 139 L 103 139 L 103 140 L 104 140 L 104 141 L 103 141 L 103 143 L 102 143 L 102 144 L 99 144 L 99 143 L 98 143 L 98 142 L 97 142 L 97 140 L 98 140 L 98 138 L 100 138 Z M 77 140 L 76 140 L 76 143 L 77 143 L 77 144 L 80 144 L 80 143 L 81 143 L 81 142 L 80 142 L 80 140 Z M 100 140 L 99 140 L 99 141 L 101 141 L 101 140 Z M 130 143 L 132 143 L 132 145 L 130 145 Z M 115 144 L 117 144 L 117 145 L 115 145 Z M 134 145 L 135 145 L 135 147 L 134 147 L 134 148 L 133 148 L 133 146 L 134 146 Z M 51 146 L 53 146 L 53 147 L 54 147 L 54 149 L 52 149 L 52 148 L 51 148 Z M 117 146 L 119 146 L 119 147 L 120 147 L 120 148 L 119 148 L 119 149 L 117 149 L 117 148 L 116 148 L 116 147 L 117 147 Z M 55 148 L 57 148 L 57 150 L 56 150 L 56 149 L 55 149 Z M 65 148 L 67 148 L 67 150 L 65 150 Z M 91 149 L 92 149 L 92 150 L 93 150 L 93 151 L 91 151 Z M 107 149 L 109 149 L 109 150 L 107 150 Z M 128 149 L 130 149 L 130 150 L 128 150 Z M 69 151 L 70 151 L 70 152 L 71 152 L 71 153 L 69 153 Z M 110 152 L 111 152 L 111 154 L 110 154 Z M 104 153 L 105 153 L 105 155 L 104 155 Z M 59 154 L 62 154 L 62 155 L 63 155 L 63 156 L 59 156 Z M 64 155 L 68 155 L 68 156 L 75 156 L 75 157 L 83 157 L 83 158 L 84 158 L 84 159 L 71 159 L 71 158 L 67 158 L 67 157 L 64 157 Z M 97 157 L 108 157 L 108 159 L 103 159 L 103 160 L 87 160 L 87 159 L 86 159 L 86 158 L 97 158 Z M 69 168 L 106 168 L 106 169 L 105 169 L 105 170 L 78 170 L 78 169 L 69 169 Z M 108 168 L 120 168 L 120 170 L 107 170 L 107 169 L 108 169 Z"/>
</svg>
