<svg xmlns="http://www.w3.org/2000/svg" viewBox="0 0 192 192" role="img" aria-label="caldo">
  <path fill="currentColor" fill-rule="evenodd" d="M 95 25 L 98 25 L 98 26 L 99 26 L 99 49 L 98 49 L 98 50 L 96 50 L 96 49 L 95 49 Z M 48 45 L 50 45 L 50 46 L 52 46 L 52 47 L 53 47 L 53 48 L 54 48 L 54 49 L 55 49 L 55 50 L 56 50 L 56 51 L 57 51 L 57 52 L 58 52 L 58 53 L 59 53 L 59 54 L 60 54 L 60 55 L 61 55 L 61 56 L 62 56 L 62 58 L 63 58 L 63 59 L 64 59 L 64 62 L 60 62 L 60 61 L 58 61 L 58 60 L 57 60 L 57 59 L 56 59 L 56 58 L 55 58 L 55 57 L 54 57 L 54 55 L 53 55 L 53 54 L 52 54 L 52 53 L 51 53 L 51 52 L 50 52 L 50 51 L 49 51 L 49 50 L 48 50 L 48 49 L 47 49 L 47 46 L 48 46 Z M 143 45 L 144 45 L 144 46 L 146 46 L 146 48 L 145 48 L 145 50 L 144 50 L 144 51 L 143 51 L 143 52 L 142 52 L 142 53 L 141 53 L 141 55 L 140 55 L 140 56 L 139 56 L 139 57 L 138 57 L 138 58 L 137 58 L 137 59 L 136 59 L 136 60 L 135 60 L 135 61 L 134 61 L 134 62 L 132 62 L 132 63 L 130 63 L 130 62 L 129 62 L 129 59 L 130 59 L 130 58 L 131 58 L 131 57 L 132 57 L 132 56 L 133 56 L 133 55 L 134 55 L 134 54 L 135 54 L 135 53 L 136 53 L 136 52 L 137 52 L 137 51 L 138 51 L 138 50 L 139 50 L 139 49 L 140 49 L 140 48 L 141 48 L 141 47 L 142 47 L 142 46 L 143 46 Z M 91 59 L 102 59 L 102 60 L 107 60 L 107 61 L 110 61 L 110 62 L 112 62 L 112 63 L 114 63 L 114 64 L 116 64 L 116 65 L 118 65 L 118 66 L 119 66 L 119 67 L 120 67 L 120 68 L 122 68 L 122 69 L 123 69 L 123 70 L 124 70 L 124 71 L 125 71 L 125 72 L 126 72 L 126 73 L 127 73 L 127 75 L 128 75 L 128 76 L 129 76 L 129 77 L 130 77 L 130 79 L 131 79 L 131 81 L 132 81 L 132 83 L 133 83 L 133 86 L 134 86 L 134 89 L 135 89 L 135 106 L 134 106 L 134 109 L 133 109 L 133 112 L 132 112 L 132 114 L 131 114 L 131 116 L 130 116 L 130 118 L 129 118 L 129 119 L 128 119 L 128 121 L 127 121 L 127 122 L 126 122 L 126 123 L 125 123 L 125 124 L 124 124 L 124 125 L 123 125 L 123 126 L 122 126 L 122 127 L 121 127 L 121 128 L 120 128 L 120 129 L 118 129 L 118 130 L 117 130 L 117 131 L 115 131 L 115 132 L 113 132 L 113 133 L 110 133 L 110 134 L 108 134 L 108 135 L 104 135 L 104 136 L 89 136 L 89 135 L 85 135 L 85 134 L 82 134 L 82 133 L 80 133 L 80 132 L 78 132 L 78 131 L 76 131 L 76 130 L 75 130 L 75 129 L 73 129 L 73 128 L 72 128 L 72 127 L 71 127 L 71 126 L 70 126 L 70 125 L 69 125 L 69 124 L 68 124 L 68 123 L 67 123 L 67 122 L 66 122 L 66 121 L 65 121 L 65 119 L 64 119 L 64 118 L 63 118 L 63 116 L 62 116 L 62 114 L 61 114 L 61 112 L 60 112 L 60 109 L 59 109 L 59 106 L 58 106 L 58 90 L 59 90 L 59 86 L 60 86 L 60 83 L 61 83 L 61 81 L 62 81 L 62 79 L 63 79 L 63 78 L 64 78 L 64 76 L 65 76 L 65 75 L 66 75 L 66 73 L 67 73 L 67 72 L 68 72 L 68 71 L 69 71 L 69 70 L 70 70 L 70 69 L 71 69 L 71 68 L 73 68 L 73 67 L 74 67 L 74 66 L 75 66 L 75 65 L 77 65 L 77 64 L 79 64 L 79 63 L 81 63 L 81 62 L 83 62 L 83 61 L 86 61 L 86 60 L 91 60 Z M 90 65 L 89 65 L 89 66 L 86 66 L 86 67 L 83 67 L 83 68 L 81 68 L 81 69 L 79 69 L 79 70 L 77 70 L 77 71 L 76 71 L 76 72 L 75 72 L 75 73 L 74 73 L 74 74 L 73 74 L 73 75 L 72 75 L 72 76 L 71 76 L 71 77 L 70 77 L 70 78 L 69 78 L 69 80 L 68 80 L 68 81 L 67 81 L 67 83 L 66 83 L 66 86 L 65 86 L 65 89 L 64 89 L 64 93 L 63 93 L 63 103 L 64 103 L 64 107 L 65 107 L 65 110 L 66 110 L 66 112 L 67 112 L 67 114 L 68 114 L 68 116 L 69 116 L 69 117 L 70 117 L 70 118 L 71 118 L 71 119 L 72 119 L 72 121 L 74 121 L 74 122 L 75 122 L 75 123 L 76 123 L 76 124 L 77 124 L 77 125 L 79 125 L 79 126 L 80 126 L 80 127 L 82 127 L 82 128 L 85 128 L 85 129 L 88 129 L 88 130 L 105 130 L 105 129 L 108 129 L 108 128 L 111 128 L 111 127 L 113 127 L 113 126 L 114 126 L 114 125 L 116 125 L 116 124 L 117 124 L 117 123 L 119 123 L 119 122 L 120 122 L 120 121 L 121 121 L 121 120 L 122 120 L 122 118 L 123 118 L 123 117 L 124 117 L 124 116 L 125 116 L 125 114 L 126 114 L 126 112 L 127 112 L 127 110 L 128 110 L 128 107 L 129 107 L 129 103 L 130 103 L 130 92 L 129 92 L 129 88 L 128 88 L 128 85 L 127 85 L 127 83 L 126 83 L 126 81 L 125 81 L 125 79 L 124 79 L 124 78 L 123 78 L 123 77 L 122 77 L 122 76 L 121 76 L 121 75 L 120 75 L 120 74 L 119 74 L 119 73 L 118 73 L 118 72 L 117 72 L 117 71 L 115 71 L 115 70 L 114 70 L 114 69 L 112 69 L 112 68 L 110 68 L 110 67 L 108 67 L 108 66 L 104 66 L 104 65 Z M 91 70 L 94 70 L 94 72 L 93 72 L 93 73 L 90 73 L 90 72 L 89 72 L 89 71 L 91 71 Z M 82 73 L 85 73 L 85 75 L 84 75 L 84 76 L 83 76 L 83 77 L 82 77 L 82 78 L 80 78 L 80 79 L 79 79 L 79 80 L 78 80 L 78 81 L 77 81 L 77 82 L 76 82 L 76 83 L 75 83 L 75 85 L 74 85 L 74 87 L 73 87 L 73 89 L 72 89 L 72 92 L 71 92 L 71 93 L 69 93 L 69 89 L 70 89 L 70 86 L 71 86 L 71 85 L 72 85 L 72 83 L 73 83 L 73 82 L 74 82 L 74 80 L 75 80 L 75 79 L 76 79 L 76 78 L 77 78 L 77 77 L 78 77 L 78 76 L 79 76 L 79 75 L 81 75 L 81 74 L 82 74 Z M 116 80 L 119 80 L 119 81 L 120 81 L 120 83 L 121 83 L 121 85 L 122 85 L 122 89 L 120 89 L 120 87 L 119 87 L 119 85 L 118 85 L 118 83 L 117 83 L 117 81 L 116 81 Z M 28 90 L 36 90 L 36 91 L 47 91 L 47 92 L 48 92 L 48 95 L 46 95 L 46 96 L 32 96 L 32 95 L 26 95 L 26 91 L 28 91 Z M 122 92 L 123 92 L 123 93 L 124 93 L 124 96 L 125 96 L 125 99 L 124 99 L 124 103 L 122 103 Z M 145 93 L 165 93 L 165 96 L 164 96 L 164 97 L 145 97 L 145 96 L 144 96 L 144 95 L 145 95 Z M 113 105 L 115 105 L 115 108 L 114 108 L 114 109 L 113 109 L 113 111 L 112 111 L 112 112 L 111 112 L 111 113 L 110 113 L 110 114 L 109 114 L 109 115 L 106 115 L 106 113 L 107 113 L 107 112 L 109 112 L 109 110 L 110 110 L 110 109 L 111 109 L 111 108 L 112 108 L 112 106 L 113 106 Z M 121 106 L 122 106 L 122 107 L 123 107 L 123 108 L 122 108 L 122 110 L 121 110 L 121 112 L 120 112 L 120 114 L 119 114 L 119 115 L 118 115 L 118 116 L 117 116 L 117 117 L 116 117 L 116 118 L 115 118 L 115 119 L 114 119 L 114 120 L 113 120 L 113 121 L 111 121 L 111 122 L 109 122 L 109 123 L 108 123 L 108 124 L 105 124 L 105 125 L 102 125 L 102 124 L 101 124 L 101 123 L 102 123 L 102 122 L 105 122 L 105 121 L 107 121 L 107 120 L 109 120 L 109 119 L 111 119 L 111 118 L 112 118 L 112 117 L 113 117 L 113 116 L 114 116 L 114 115 L 115 115 L 115 114 L 116 114 L 116 113 L 117 113 L 117 112 L 118 112 L 118 110 L 119 110 L 119 108 L 120 108 L 120 107 L 121 107 Z M 76 115 L 78 115 L 78 116 L 79 116 L 79 117 L 81 117 L 81 118 L 82 118 L 82 119 L 83 119 L 83 121 L 80 121 L 80 120 L 79 120 L 79 119 L 78 119 L 78 118 L 77 118 L 77 117 L 76 117 Z M 95 117 L 101 117 L 101 118 L 100 118 L 100 119 L 94 119 L 94 118 L 95 118 Z M 87 122 L 93 122 L 93 123 L 97 123 L 97 125 L 89 125 L 89 124 L 88 124 L 88 123 L 87 123 Z M 56 127 L 60 127 L 60 131 L 59 131 L 59 132 L 58 132 L 58 133 L 57 133 L 57 134 L 56 134 L 56 135 L 55 135 L 55 136 L 54 136 L 54 137 L 53 137 L 53 138 L 52 138 L 52 139 L 51 139 L 51 140 L 50 140 L 50 141 L 48 141 L 48 142 L 47 142 L 47 143 L 46 143 L 46 144 L 45 144 L 45 143 L 44 143 L 44 142 L 43 142 L 43 140 L 44 140 L 44 139 L 45 139 L 45 138 L 46 138 L 46 137 L 47 137 L 47 136 L 48 136 L 48 135 L 49 135 L 49 134 L 50 134 L 50 133 L 51 133 L 51 132 L 52 132 L 52 131 L 53 131 L 53 130 L 54 130 L 54 129 L 55 129 L 55 128 L 56 128 Z M 131 128 L 134 128 L 134 129 L 136 129 L 136 130 L 137 130 L 137 131 L 138 131 L 138 132 L 139 132 L 139 133 L 140 133 L 140 134 L 141 134 L 141 135 L 142 135 L 142 136 L 143 136 L 143 138 L 144 138 L 144 139 L 145 139 L 145 140 L 146 140 L 146 144 L 143 144 L 143 143 L 141 143 L 141 142 L 140 142 L 140 141 L 139 141 L 139 140 L 138 140 L 138 139 L 137 139 L 137 138 L 136 138 L 136 137 L 135 137 L 135 136 L 134 136 L 134 134 L 133 134 L 133 133 L 132 133 L 132 132 L 131 132 L 131 131 L 130 131 L 130 129 L 131 129 Z M 94 144 L 97 144 L 97 145 L 98 145 L 98 164 L 97 164 L 97 167 L 94 167 L 94 166 L 93 166 L 93 146 L 94 146 Z"/>
</svg>
