<svg xmlns="http://www.w3.org/2000/svg" viewBox="0 0 192 192" role="img" aria-label="freddo">
  <path fill="currentColor" fill-rule="evenodd" d="M 53 27 L 54 27 L 54 28 L 55 28 L 55 29 L 56 29 L 56 30 L 57 30 L 57 32 L 56 32 L 56 34 L 54 34 L 54 35 L 52 35 L 52 34 L 51 34 L 51 33 L 50 33 L 50 29 L 51 29 L 51 28 L 53 28 Z M 54 31 L 53 31 L 53 32 L 54 32 Z M 92 31 L 96 31 L 96 50 L 97 50 L 97 49 L 98 49 L 98 48 L 99 48 L 99 47 L 100 47 L 100 46 L 102 46 L 102 45 L 103 45 L 103 44 L 104 44 L 104 43 L 105 43 L 105 42 L 107 42 L 107 41 L 109 41 L 109 45 L 108 45 L 108 46 L 107 46 L 107 47 L 106 47 L 106 48 L 105 48 L 105 49 L 104 49 L 104 50 L 103 50 L 103 51 L 102 51 L 102 52 L 101 52 L 101 53 L 100 53 L 100 54 L 99 54 L 99 55 L 98 55 L 98 56 L 97 56 L 97 57 L 96 57 L 96 70 L 97 70 L 97 69 L 98 69 L 98 68 L 99 68 L 99 67 L 100 67 L 100 66 L 101 66 L 101 65 L 103 65 L 103 64 L 106 64 L 106 65 L 107 65 L 107 66 L 106 66 L 106 68 L 105 68 L 105 69 L 104 69 L 104 70 L 103 70 L 103 71 L 102 71 L 102 72 L 101 72 L 101 73 L 100 73 L 100 74 L 99 74 L 99 75 L 98 75 L 98 76 L 96 76 L 96 95 L 97 95 L 97 94 L 99 94 L 99 93 L 101 93 L 101 92 L 103 92 L 103 91 L 105 91 L 105 90 L 106 90 L 106 89 L 108 89 L 108 88 L 109 88 L 109 87 L 110 87 L 110 84 L 111 84 L 111 80 L 112 80 L 112 76 L 113 76 L 113 73 L 114 73 L 114 72 L 115 72 L 115 73 L 116 73 L 116 74 L 117 74 L 117 76 L 116 76 L 116 82 L 115 82 L 115 84 L 117 84 L 117 83 L 119 83 L 119 82 L 120 82 L 120 81 L 122 81 L 122 80 L 124 80 L 124 79 L 125 79 L 125 77 L 126 77 L 126 71 L 127 71 L 127 65 L 128 65 L 128 61 L 129 61 L 129 60 L 130 60 L 130 59 L 131 59 L 131 60 L 132 60 L 132 61 L 133 61 L 133 64 L 132 64 L 132 71 L 131 71 L 131 75 L 133 75 L 133 74 L 135 74 L 135 73 L 136 73 L 136 72 L 138 72 L 138 71 L 140 71 L 140 70 L 142 70 L 142 69 L 144 69 L 144 68 L 146 68 L 146 67 L 148 67 L 148 68 L 149 68 L 149 71 L 148 71 L 148 72 L 146 72 L 146 73 L 144 73 L 144 74 L 143 74 L 143 75 L 141 75 L 141 76 L 139 76 L 139 77 L 137 77 L 137 78 L 136 78 L 136 79 L 134 79 L 134 80 L 135 80 L 135 81 L 138 81 L 138 82 L 140 82 L 140 83 L 143 83 L 143 84 L 145 84 L 145 85 L 146 85 L 146 88 L 144 88 L 144 89 L 143 89 L 143 88 L 140 88 L 140 87 L 137 87 L 137 86 L 135 86 L 135 85 L 132 85 L 132 84 L 129 84 L 129 83 L 127 83 L 127 84 L 125 84 L 125 85 L 123 85 L 123 86 L 121 86 L 121 87 L 120 87 L 120 88 L 118 88 L 118 89 L 120 89 L 120 90 L 123 90 L 123 91 L 126 91 L 126 92 L 127 92 L 127 95 L 126 95 L 126 96 L 125 96 L 125 95 L 121 95 L 121 94 L 118 94 L 118 93 L 115 93 L 115 92 L 111 92 L 111 93 L 109 93 L 109 94 L 107 94 L 107 95 L 105 95 L 105 96 L 104 96 L 104 97 L 102 97 L 102 98 L 100 98 L 100 99 L 99 99 L 99 100 L 101 100 L 101 101 L 102 101 L 102 102 L 104 102 L 104 103 L 106 103 L 106 104 L 108 104 L 108 105 L 110 105 L 110 106 L 111 106 L 111 107 L 115 107 L 115 106 L 118 106 L 118 105 L 121 105 L 121 104 L 127 104 L 127 107 L 126 107 L 126 108 L 123 108 L 123 109 L 120 109 L 120 110 L 118 110 L 118 111 L 120 111 L 120 112 L 121 112 L 121 113 L 123 113 L 123 114 L 125 114 L 125 115 L 127 115 L 127 116 L 129 116 L 129 115 L 131 115 L 131 114 L 134 114 L 134 113 L 136 113 L 136 112 L 139 112 L 139 111 L 142 111 L 142 110 L 145 110 L 145 111 L 146 111 L 146 113 L 145 113 L 145 114 L 144 114 L 144 115 L 142 115 L 142 116 L 139 116 L 139 117 L 137 117 L 137 118 L 134 118 L 134 120 L 136 120 L 136 121 L 137 121 L 137 122 L 139 122 L 139 123 L 141 123 L 141 124 L 143 124 L 143 125 L 144 125 L 144 126 L 146 126 L 146 127 L 148 127 L 148 128 L 149 128 L 149 131 L 147 131 L 147 132 L 146 132 L 146 131 L 144 131 L 144 130 L 142 130 L 142 129 L 140 129 L 140 128 L 138 128 L 138 127 L 136 127 L 136 126 L 135 126 L 135 125 L 133 125 L 133 124 L 131 124 L 131 129 L 132 129 L 132 135 L 133 135 L 133 137 L 132 137 L 132 138 L 131 138 L 131 139 L 130 139 L 130 138 L 129 138 L 129 137 L 128 137 L 128 133 L 127 133 L 127 128 L 126 128 L 126 122 L 125 122 L 125 120 L 124 120 L 124 119 L 122 119 L 122 118 L 121 118 L 121 117 L 119 117 L 119 116 L 117 116 L 117 115 L 115 115 L 115 117 L 116 117 L 116 123 L 117 123 L 117 125 L 116 125 L 116 126 L 114 126 L 114 125 L 113 125 L 113 123 L 112 123 L 112 119 L 111 119 L 111 114 L 110 114 L 110 111 L 108 111 L 108 110 L 107 110 L 107 109 L 105 109 L 105 108 L 103 108 L 103 107 L 101 107 L 101 106 L 100 106 L 100 105 L 98 105 L 98 104 L 96 104 L 96 120 L 97 120 L 97 121 L 98 121 L 98 122 L 99 122 L 99 123 L 100 123 L 100 124 L 101 124 L 101 125 L 102 125 L 102 126 L 103 126 L 103 127 L 104 127 L 104 128 L 105 128 L 105 129 L 106 129 L 106 130 L 107 130 L 107 133 L 103 133 L 103 132 L 102 132 L 102 131 L 101 131 L 101 130 L 100 130 L 100 129 L 99 129 L 99 128 L 98 128 L 98 127 L 97 127 L 97 126 L 96 126 L 96 139 L 97 139 L 97 140 L 99 140 L 99 141 L 100 141 L 100 142 L 101 142 L 101 143 L 102 143 L 102 144 L 103 144 L 103 145 L 104 145 L 104 146 L 105 146 L 105 147 L 106 147 L 106 148 L 107 148 L 107 149 L 108 149 L 108 150 L 109 150 L 109 151 L 110 151 L 110 153 L 109 153 L 109 154 L 105 154 L 105 153 L 104 153 L 104 152 L 103 152 L 103 151 L 102 151 L 102 150 L 101 150 L 101 149 L 100 149 L 100 148 L 99 148 L 99 147 L 98 147 L 98 146 L 96 146 L 96 155 L 97 155 L 97 160 L 96 160 L 96 164 L 95 164 L 95 165 L 93 165 L 93 164 L 92 164 L 92 161 L 91 161 L 91 146 L 90 146 L 90 147 L 89 147 L 89 148 L 88 148 L 88 149 L 87 149 L 87 150 L 86 150 L 86 151 L 85 151 L 85 152 L 84 152 L 84 153 L 83 153 L 83 154 L 79 154 L 79 151 L 80 151 L 80 150 L 81 150 L 81 149 L 82 149 L 82 148 L 83 148 L 83 146 L 84 146 L 84 145 L 85 145 L 85 144 L 86 144 L 86 143 L 87 143 L 87 142 L 88 142 L 88 141 L 89 141 L 89 140 L 90 140 L 90 139 L 91 139 L 91 127 L 90 127 L 90 128 L 89 128 L 89 129 L 88 129 L 88 130 L 87 130 L 87 131 L 86 131 L 86 132 L 85 132 L 85 133 L 83 133 L 83 134 L 82 134 L 82 133 L 81 133 L 81 130 L 82 130 L 82 129 L 83 129 L 83 128 L 84 128 L 84 127 L 85 127 L 85 126 L 86 126 L 86 125 L 87 125 L 87 124 L 88 124 L 88 123 L 89 123 L 89 122 L 90 122 L 90 121 L 91 121 L 91 104 L 90 104 L 90 105 L 88 105 L 88 106 L 86 106 L 86 107 L 85 107 L 85 108 L 83 108 L 83 109 L 81 109 L 81 110 L 79 110 L 79 111 L 78 111 L 78 114 L 77 114 L 77 118 L 76 118 L 76 123 L 75 123 L 75 125 L 74 125 L 74 126 L 71 126 L 71 121 L 72 121 L 72 116 L 73 116 L 73 115 L 71 115 L 71 116 L 69 116 L 69 117 L 67 117 L 67 118 L 66 118 L 66 119 L 64 119 L 64 120 L 63 120 L 63 122 L 62 122 L 62 128 L 61 128 L 61 133 L 60 133 L 60 137 L 59 137 L 59 139 L 57 139 L 57 138 L 56 138 L 56 129 L 57 129 L 57 124 L 56 124 L 56 125 L 54 125 L 54 126 L 52 126 L 52 127 L 50 127 L 50 128 L 48 128 L 48 129 L 46 129 L 46 130 L 45 130 L 45 131 L 42 131 L 42 132 L 40 132 L 40 131 L 39 131 L 39 128 L 41 128 L 41 127 L 42 127 L 42 126 L 44 126 L 44 125 L 45 125 L 45 124 L 47 124 L 47 123 L 49 123 L 49 122 L 51 122 L 51 121 L 52 121 L 52 120 L 54 120 L 54 119 L 53 119 L 53 118 L 51 118 L 51 117 L 48 117 L 48 116 L 46 116 L 46 115 L 44 115 L 44 114 L 43 114 L 43 113 L 42 113 L 42 111 L 44 111 L 44 110 L 45 110 L 45 111 L 48 111 L 48 112 L 51 112 L 51 113 L 54 113 L 54 114 L 56 114 L 56 115 L 59 115 L 59 116 L 60 116 L 60 115 L 63 115 L 63 114 L 65 114 L 65 113 L 66 113 L 66 112 L 68 112 L 68 111 L 69 111 L 69 110 L 67 110 L 67 109 L 64 109 L 64 108 L 62 108 L 62 107 L 61 107 L 61 104 L 66 104 L 66 105 L 69 105 L 69 106 L 72 106 L 72 107 L 76 107 L 76 106 L 78 106 L 78 105 L 80 105 L 80 104 L 82 104 L 82 103 L 84 103 L 84 102 L 85 102 L 85 101 L 87 101 L 87 100 L 89 100 L 89 99 L 87 99 L 87 98 L 86 98 L 86 97 L 84 97 L 84 96 L 82 96 L 82 95 L 80 95 L 80 94 L 78 94 L 78 93 L 76 93 L 76 92 L 73 92 L 73 93 L 70 93 L 70 94 L 67 94 L 67 95 L 63 95 L 63 96 L 62 96 L 62 95 L 60 95 L 60 93 L 61 93 L 61 92 L 62 92 L 62 91 L 65 91 L 65 90 L 68 90 L 68 89 L 70 89 L 70 88 L 68 88 L 68 87 L 66 87 L 66 86 L 64 86 L 64 85 L 62 85 L 62 84 L 60 84 L 60 83 L 59 83 L 59 84 L 56 84 L 56 85 L 53 85 L 53 86 L 51 86 L 51 87 L 48 87 L 48 88 L 45 88 L 45 89 L 43 89 L 43 88 L 42 88 L 42 85 L 43 85 L 43 84 L 46 84 L 46 83 L 48 83 L 48 82 L 51 82 L 51 81 L 53 81 L 53 79 L 51 79 L 51 78 L 50 78 L 50 77 L 48 77 L 48 76 L 46 76 L 46 75 L 44 75 L 44 74 L 43 74 L 43 73 L 41 73 L 41 72 L 39 72 L 39 70 L 38 70 L 38 69 L 39 69 L 39 68 L 40 68 L 40 67 L 41 67 L 41 68 L 43 68 L 43 69 L 45 69 L 45 70 L 47 70 L 47 71 L 49 71 L 49 72 L 51 72 L 51 73 L 53 73 L 53 74 L 55 74 L 55 75 L 57 75 L 57 73 L 56 73 L 56 67 L 55 67 L 55 60 L 56 60 L 56 59 L 58 59 L 58 60 L 59 60 L 59 63 L 60 63 L 60 68 L 61 68 L 61 74 L 62 74 L 62 79 L 63 79 L 63 80 L 65 80 L 65 81 L 67 81 L 67 82 L 69 82 L 69 83 L 70 83 L 70 84 L 72 84 L 72 79 L 71 79 L 71 73 L 74 73 L 74 74 L 75 74 L 75 78 L 76 78 L 76 82 L 77 82 L 77 86 L 78 86 L 78 88 L 80 88 L 80 89 L 81 89 L 81 90 L 83 90 L 83 91 L 85 91 L 85 92 L 86 92 L 86 93 L 88 93 L 88 94 L 90 94 L 90 95 L 91 95 L 91 76 L 90 76 L 90 75 L 89 75 L 89 74 L 88 74 L 88 73 L 87 73 L 87 72 L 86 72 L 86 71 L 85 71 L 85 70 L 84 70 L 84 69 L 83 69 L 83 68 L 82 68 L 82 67 L 81 67 L 81 64 L 85 64 L 85 65 L 86 65 L 86 66 L 87 66 L 87 67 L 88 67 L 88 68 L 89 68 L 89 69 L 90 69 L 90 70 L 91 70 L 91 56 L 90 56 L 90 55 L 89 55 L 89 54 L 88 54 L 88 53 L 87 53 L 87 52 L 86 52 L 86 51 L 85 51 L 85 50 L 83 50 L 83 49 L 82 49 L 82 48 L 81 48 L 81 47 L 80 47 L 80 45 L 79 45 L 79 44 L 78 44 L 78 42 L 79 42 L 79 41 L 81 41 L 81 42 L 82 42 L 82 43 L 84 43 L 84 44 L 85 44 L 85 45 L 86 45 L 86 46 L 87 46 L 87 47 L 88 47 L 88 48 L 89 48 L 89 49 L 91 49 L 91 34 L 92 34 Z M 56 46 L 58 46 L 58 48 L 56 48 Z M 146 46 L 147 46 L 147 47 L 149 47 L 149 49 L 150 49 L 150 51 L 149 51 L 149 52 L 148 52 L 148 53 L 145 53 L 145 52 L 144 52 L 144 51 L 143 51 L 143 49 L 144 49 L 144 47 L 146 47 Z M 68 55 L 70 55 L 70 56 L 71 56 L 71 59 L 69 59 L 69 58 L 68 58 Z M 117 55 L 119 55 L 119 58 L 118 58 L 118 59 L 116 59 L 116 56 L 117 56 Z M 78 60 L 80 60 L 80 61 L 81 61 L 81 64 L 80 64 L 80 63 L 78 63 Z M 51 98 L 54 98 L 54 99 L 55 99 L 55 100 L 54 100 L 54 101 L 51 101 L 51 100 L 50 100 L 50 99 L 51 99 Z M 136 98 L 140 98 L 140 101 L 136 101 Z M 132 99 L 134 99 L 134 100 L 132 100 Z M 164 106 L 165 106 L 165 107 L 167 107 L 167 108 L 168 108 L 168 110 L 169 110 L 169 112 L 168 112 L 168 113 L 167 113 L 167 114 L 162 114 L 162 113 L 161 113 L 161 109 L 162 109 L 162 107 L 164 107 Z M 165 110 L 164 110 L 164 111 L 165 111 Z M 25 113 L 29 113 L 29 114 L 30 114 L 30 115 L 31 115 L 31 117 L 30 117 L 30 119 L 29 119 L 29 120 L 26 120 L 26 119 L 25 119 L 25 118 L 24 118 L 24 114 L 25 114 Z M 28 116 L 27 116 L 27 117 L 28 117 Z M 72 134 L 74 134 L 74 136 L 72 136 Z M 80 135 L 82 135 L 82 136 L 81 136 L 81 138 L 80 138 L 80 139 L 79 139 L 79 140 L 77 140 L 77 138 L 78 138 L 78 136 L 80 136 Z M 115 135 L 117 135 L 117 139 L 116 139 L 116 138 L 115 138 Z M 118 140 L 120 140 L 120 141 L 121 141 L 121 143 L 119 143 L 119 142 L 118 142 Z M 50 150 L 51 150 L 51 151 L 53 151 L 53 152 L 54 152 L 54 155 L 53 155 L 53 156 L 51 156 L 51 157 L 50 157 L 50 156 L 49 156 L 49 155 L 48 155 L 48 151 L 50 151 Z M 131 156 L 135 156 L 135 157 L 136 157 L 136 161 L 135 161 L 135 162 L 134 162 L 134 163 L 132 163 L 132 162 L 130 162 L 130 160 L 129 160 L 129 158 L 130 158 L 130 157 L 131 157 Z M 133 159 L 132 159 L 132 160 L 134 160 L 134 159 Z"/>
</svg>
