<svg xmlns="http://www.w3.org/2000/svg" viewBox="0 0 192 192" role="img" aria-label="temperatura">
  <path fill="currentColor" fill-rule="evenodd" d="M 91 23 L 101 23 L 101 24 L 103 24 L 103 25 L 105 25 L 105 26 L 107 26 L 107 27 L 108 27 L 108 28 L 109 28 L 109 29 L 110 29 L 110 30 L 111 30 L 111 31 L 112 31 L 112 33 L 113 33 L 113 37 L 114 37 L 114 111 L 115 111 L 115 112 L 116 112 L 116 113 L 117 113 L 117 114 L 118 114 L 118 115 L 119 115 L 119 116 L 120 116 L 120 117 L 121 117 L 121 119 L 122 119 L 122 120 L 123 120 L 123 122 L 124 122 L 124 125 L 125 125 L 125 128 L 126 128 L 126 143 L 125 143 L 125 146 L 124 146 L 124 148 L 123 148 L 123 150 L 122 150 L 122 152 L 121 152 L 121 154 L 120 154 L 120 155 L 119 155 L 119 156 L 118 156 L 118 157 L 117 157 L 117 158 L 123 158 L 123 159 L 125 159 L 125 160 L 114 160 L 114 161 L 132 161 L 132 163 L 109 163 L 109 164 L 124 164 L 124 165 L 125 165 L 125 166 L 68 166 L 68 165 L 70 165 L 70 164 L 84 164 L 84 163 L 59 163 L 59 162 L 60 162 L 60 161 L 61 161 L 61 162 L 62 162 L 62 161 L 78 161 L 78 160 L 65 160 L 65 159 L 66 159 L 66 158 L 75 158 L 75 157 L 74 157 L 74 156 L 73 156 L 73 154 L 72 154 L 72 153 L 71 153 L 71 151 L 70 151 L 70 150 L 69 150 L 69 147 L 68 147 L 68 145 L 67 145 L 67 140 L 66 140 L 66 132 L 67 132 L 67 127 L 68 127 L 68 124 L 69 124 L 69 122 L 70 122 L 70 120 L 71 120 L 71 119 L 72 119 L 72 117 L 73 117 L 73 116 L 74 116 L 74 115 L 75 115 L 75 114 L 76 114 L 76 113 L 77 113 L 77 112 L 78 112 L 78 111 L 79 111 L 79 105 L 78 105 L 78 38 L 79 38 L 79 34 L 80 34 L 80 32 L 81 32 L 81 31 L 82 31 L 82 29 L 83 29 L 83 28 L 84 28 L 84 27 L 86 27 L 86 26 L 87 26 L 87 25 L 89 25 L 89 24 L 91 24 Z M 92 27 L 91 27 L 91 28 L 89 28 L 89 29 L 88 29 L 88 30 L 86 30 L 86 31 L 85 31 L 85 33 L 84 33 L 84 34 L 83 34 L 83 37 L 82 37 L 82 113 L 81 113 L 81 114 L 80 114 L 80 115 L 79 115 L 79 116 L 78 116 L 78 117 L 77 117 L 77 118 L 76 118 L 76 119 L 75 119 L 75 121 L 74 121 L 74 122 L 73 122 L 73 124 L 72 124 L 72 127 L 71 127 L 71 130 L 70 130 L 70 141 L 71 141 L 71 145 L 72 145 L 72 147 L 73 147 L 73 149 L 74 149 L 74 151 L 75 151 L 75 152 L 76 152 L 76 153 L 77 153 L 77 154 L 78 154 L 78 155 L 79 155 L 79 156 L 80 156 L 80 157 L 81 157 L 81 158 L 83 158 L 83 159 L 84 159 L 84 160 L 87 160 L 87 161 L 90 161 L 90 162 L 102 162 L 102 161 L 106 161 L 106 160 L 108 160 L 108 159 L 110 159 L 110 158 L 111 158 L 111 157 L 113 157 L 113 156 L 114 156 L 114 155 L 115 155 L 115 154 L 116 154 L 116 153 L 117 153 L 117 151 L 118 151 L 118 150 L 119 150 L 119 148 L 120 148 L 120 146 L 121 146 L 121 143 L 122 143 L 122 127 L 121 127 L 121 125 L 120 125 L 120 123 L 119 123 L 119 121 L 118 121 L 118 120 L 117 120 L 117 118 L 116 118 L 116 117 L 115 117 L 115 116 L 114 116 L 114 115 L 113 115 L 113 114 L 111 114 L 111 102 L 105 102 L 105 101 L 102 101 L 102 100 L 103 100 L 103 99 L 106 99 L 106 98 L 111 98 L 111 94 L 110 94 L 110 93 L 106 93 L 106 91 L 110 91 L 110 86 L 103 86 L 103 84 L 110 84 L 110 83 L 111 83 L 111 81 L 110 81 L 110 80 L 107 80 L 107 79 L 110 79 L 110 76 L 106 76 L 106 74 L 110 74 L 110 69 L 102 69 L 102 68 L 101 68 L 101 66 L 110 66 L 110 62 L 111 62 L 111 60 L 106 60 L 106 59 L 105 59 L 105 58 L 107 58 L 107 57 L 110 57 L 110 52 L 102 52 L 102 51 L 101 51 L 101 49 L 102 49 L 102 48 L 110 48 L 110 36 L 109 36 L 109 34 L 108 34 L 108 32 L 107 32 L 107 31 L 106 31 L 106 30 L 105 30 L 105 29 L 103 29 L 103 28 L 101 28 L 101 27 Z M 93 29 L 97 29 L 97 31 L 94 31 L 94 32 L 91 32 L 91 33 L 90 33 L 90 34 L 89 34 L 89 35 L 88 35 L 88 37 L 87 37 L 87 40 L 86 40 L 86 41 L 87 41 L 87 42 L 86 42 L 86 44 L 85 44 L 85 36 L 86 36 L 86 35 L 87 35 L 87 33 L 88 33 L 88 32 L 89 32 L 89 31 L 91 31 L 91 30 L 93 30 Z M 100 30 L 102 30 L 102 31 L 103 31 L 103 32 L 104 32 L 104 33 L 105 33 L 105 34 L 106 34 L 106 36 L 107 36 L 107 38 L 108 38 L 108 39 L 107 39 L 107 40 L 106 40 L 106 38 L 105 38 L 105 36 L 104 36 L 104 34 L 103 34 L 103 33 L 101 33 L 101 32 L 100 32 Z M 106 42 L 108 42 L 108 46 L 106 46 Z M 85 47 L 86 47 L 86 52 L 85 52 L 85 51 L 84 51 L 84 50 L 85 50 L 85 49 L 84 49 L 84 48 L 85 48 Z M 107 54 L 108 54 L 108 55 L 107 55 Z M 85 56 L 86 56 L 86 65 L 87 65 L 87 95 L 86 95 L 86 100 L 85 100 L 85 97 L 84 97 L 84 96 L 85 96 L 85 59 L 84 59 L 84 58 L 85 58 Z M 108 62 L 109 62 L 109 64 L 107 64 L 107 63 L 108 63 Z M 92 74 L 100 74 L 100 75 L 101 75 L 101 119 L 102 119 L 102 120 L 104 120 L 104 121 L 105 121 L 105 122 L 107 122 L 107 123 L 108 123 L 108 124 L 109 124 L 109 126 L 110 126 L 110 127 L 111 127 L 111 129 L 112 129 L 112 134 L 113 134 L 113 137 L 112 137 L 112 141 L 111 141 L 111 143 L 110 143 L 110 145 L 109 145 L 109 146 L 108 146 L 108 147 L 107 147 L 107 148 L 106 148 L 106 149 L 105 149 L 105 150 L 103 150 L 103 151 L 101 151 L 101 152 L 91 152 L 91 151 L 89 151 L 89 150 L 87 150 L 87 149 L 86 149 L 86 148 L 85 148 L 85 147 L 84 147 L 84 146 L 83 146 L 83 144 L 82 144 L 82 143 L 81 143 L 81 140 L 80 140 L 80 130 L 81 130 L 81 128 L 82 128 L 82 126 L 83 126 L 83 125 L 84 125 L 84 124 L 85 124 L 85 123 L 86 123 L 86 122 L 87 122 L 87 121 L 89 121 L 89 120 L 90 120 L 90 119 L 91 119 L 91 75 L 92 75 Z M 95 78 L 94 78 L 94 107 L 95 107 L 95 118 L 94 118 L 94 122 L 93 122 L 93 123 L 91 123 L 91 124 L 89 124 L 89 125 L 88 125 L 88 126 L 87 126 L 87 127 L 86 127 L 86 128 L 85 128 L 85 130 L 84 130 L 84 134 L 83 134 L 83 137 L 84 137 L 84 140 L 85 140 L 85 142 L 86 142 L 86 144 L 87 144 L 87 145 L 89 145 L 89 146 L 90 146 L 90 147 L 92 147 L 92 148 L 100 148 L 100 147 L 102 147 L 102 146 L 104 146 L 104 145 L 105 145 L 105 144 L 106 144 L 106 143 L 107 143 L 107 141 L 108 141 L 108 139 L 109 139 L 109 132 L 108 132 L 108 129 L 107 129 L 107 128 L 106 128 L 106 126 L 105 126 L 105 125 L 103 125 L 103 124 L 102 124 L 102 123 L 99 123 L 99 122 L 98 122 L 98 111 L 97 111 L 97 97 L 96 97 L 96 95 L 97 95 L 97 78 Z M 107 81 L 108 81 L 108 82 L 107 82 Z M 108 96 L 109 96 L 109 97 L 108 97 Z M 85 103 L 86 103 L 86 105 L 87 105 L 87 114 L 86 114 L 86 116 L 84 116 L 84 117 L 83 117 L 83 118 L 82 118 L 82 119 L 81 119 L 81 120 L 80 120 L 80 121 L 79 121 L 79 123 L 78 123 L 78 124 L 77 124 L 77 126 L 76 126 L 76 129 L 75 129 L 75 142 L 76 142 L 76 145 L 77 145 L 77 147 L 78 147 L 78 149 L 79 149 L 79 150 L 80 150 L 80 151 L 81 151 L 81 152 L 82 152 L 82 153 L 83 153 L 83 154 L 85 154 L 85 155 L 86 155 L 86 156 L 88 156 L 88 157 L 92 157 L 92 158 L 93 158 L 93 159 L 88 159 L 88 158 L 86 158 L 86 157 L 84 157 L 84 156 L 83 156 L 83 155 L 81 155 L 81 154 L 80 154 L 80 153 L 79 153 L 79 151 L 78 151 L 78 150 L 77 150 L 77 149 L 76 149 L 76 147 L 75 147 L 75 146 L 74 146 L 74 143 L 73 143 L 73 129 L 74 129 L 74 126 L 75 126 L 75 124 L 76 124 L 76 122 L 77 122 L 77 121 L 78 121 L 78 120 L 79 120 L 79 119 L 80 119 L 80 118 L 81 118 L 81 117 L 82 117 L 82 116 L 83 116 L 83 115 L 84 115 L 84 114 L 85 114 Z M 107 104 L 108 104 L 108 107 L 107 107 Z M 107 110 L 108 110 L 108 113 L 109 113 L 109 115 L 110 115 L 110 116 L 111 116 L 111 117 L 112 117 L 112 118 L 113 118 L 113 119 L 114 119 L 114 120 L 115 120 L 115 121 L 116 121 L 116 123 L 117 123 L 117 124 L 118 124 L 118 127 L 119 127 L 119 130 L 118 130 L 118 129 L 117 129 L 117 127 L 116 127 L 116 125 L 115 125 L 115 123 L 114 123 L 114 121 L 113 121 L 113 120 L 112 120 L 112 119 L 111 119 L 111 118 L 110 118 L 110 117 L 108 117 L 108 116 L 107 116 Z M 90 126 L 92 126 L 92 128 L 91 128 L 91 129 L 90 129 L 90 130 L 89 130 L 89 131 L 88 131 L 88 134 L 87 134 L 87 137 L 86 137 L 86 131 L 87 131 L 87 129 L 88 129 L 88 128 L 89 128 L 89 127 L 90 127 Z M 100 126 L 103 126 L 103 127 L 104 127 L 104 128 L 105 128 L 105 130 L 106 130 L 106 133 L 107 133 L 107 137 L 106 137 L 106 140 L 105 140 L 105 142 L 104 142 L 104 143 L 103 143 L 103 144 L 102 144 L 102 145 L 99 145 L 99 146 L 98 146 L 98 144 L 99 144 L 99 143 L 101 143 L 101 142 L 102 142 L 102 141 L 103 141 L 103 140 L 104 140 L 104 138 L 105 138 L 105 132 L 104 132 L 104 130 L 103 130 L 103 129 L 102 129 L 102 128 L 101 128 L 101 127 L 100 127 Z M 102 132 L 103 132 L 103 134 L 102 134 Z M 119 132 L 120 132 L 120 141 L 119 141 L 119 144 L 118 144 L 118 146 L 117 146 L 117 148 L 116 148 L 116 150 L 115 150 L 115 151 L 114 151 L 114 152 L 113 152 L 113 153 L 112 153 L 112 154 L 111 154 L 111 155 L 110 155 L 110 156 L 108 156 L 108 157 L 106 157 L 106 158 L 104 158 L 104 157 L 105 157 L 105 156 L 106 156 L 106 155 L 108 155 L 108 154 L 109 154 L 109 153 L 110 153 L 110 152 L 111 152 L 111 151 L 112 151 L 112 150 L 113 150 L 113 149 L 114 149 L 114 148 L 115 148 L 115 146 L 116 146 L 116 144 L 117 144 L 117 141 L 118 141 L 118 133 L 119 133 Z M 102 136 L 103 136 L 103 139 L 102 139 L 102 140 L 101 140 L 101 141 L 100 141 L 100 142 L 98 142 L 98 143 L 95 143 L 95 141 L 98 141 L 98 140 L 100 140 L 100 138 L 101 138 L 101 137 L 102 137 Z M 88 141 L 90 141 L 90 142 L 91 142 L 91 143 L 93 143 L 93 144 L 96 144 L 96 146 L 93 146 L 93 145 L 91 145 L 91 144 L 89 144 L 89 143 L 88 143 Z M 99 158 L 102 158 L 102 159 L 99 159 Z M 80 167 L 102 167 L 102 169 L 80 169 Z M 106 167 L 113 167 L 113 168 L 114 168 L 114 169 L 106 169 Z"/>
</svg>
